<svg width="1440" height="560" viewBox="0 0 1440 560" fill="none" xmlns="http://www.w3.org/2000/svg">
<path d="M1442.07 0C1443.25 17.6113 1443.37 37.3602 1442.07 58.28V560H-7V275.273C20.2605 335.521 143.785 434.388 419.798 347.873C764.814 239.73 773.759 294.936 1121.33 347.873C1362.73 384.64 1433.47 196.063 1442.07 58.28V0Z" fill="black"/>
<line x1="1244.5" y1="395" x2="1244.5" y2="367" stroke="white"/>
<line x1="1301.5" y1="537" x2="1301.5" y2="509" stroke="white"/>
<line x1="1244" y1="367.5" x2="600" y2="367.5" stroke="white"/>
<line x1="1302" y1="536.5" x2="869" y2="536.5" stroke="white"/>
<line x1="491" y1="536.5" x2="58" y2="536.5" stroke="white"/>
<line x1="869" y1="335.5" x2="490" y2="335.5" stroke="white"/>
<line x1="601" y1="474.5" x2="4.37113e-08" y2="474.5" stroke="white"/>
<line x1="1383" y1="435.5" x2="268" y2="435.5" stroke="white"/>
<line x1="600.5" y1="368" x2="600.5" y2="474" stroke="white"/>
<line x1="490.5" y1="335" x2="490.5" y2="536" stroke="white"/>
<line x1="58.5" y1="342" x2="58.5" y2="536" stroke="white"/>
<line x1="869.5" y1="335" x2="869.5" y2="537" stroke="white"/>
<line x1="1383.5" y1="435" x2="1383.5" y2="560" stroke="white"/>
<line x1="268.5" y1="380" x2="268.5" y2="435" stroke="white"/>
<g filter="url(#filter0_bd_0_1499)">
<rect x="1153" y="394" width="183" height="116" rx="24" fill="url(#paint0_radial_0_1499)" shape-rendering="crispEdges"/>
<rect x="1154" y="395" width="181" height="114" rx="23" stroke="url(#paint1_linear_0_1499)" stroke-width="2" shape-rendering="crispEdges"/>
</g>
<circle cx="144" cy="537" r="6" fill="#D9D9D9"/>
<circle cx="408" cy="474" r="6" fill="#D9D9D9"/>
<circle cx="491" cy="336" r="6" fill="#D9D9D9"/>
<circle cx="718" cy="436" r="6" fill="#D9D9D9"/>
<circle cx="902" cy="536" r="6" fill="#D9D9D9"/>
<circle cx="1245" cy="388" r="6" fill="#D9D9D9"/>
<circle cx="1342" cy="435" r="6" fill="#D9D9D9"/>
<circle cx="1302" cy="516" r="6" fill="#D9D9D9"/>
<circle cx="1147" cy="435" r="6" fill="#D9D9D9"/>
<defs>
<filter id="filter0_bd_0_1499" x="1113" y="354" width="263" height="196" filterUnits="userSpaceOnUse" color-interpolation-filters="sRGB">
<feFlood flood-opacity="0" result="BackgroundImageFix"/>
<feGaussianBlur in="BackgroundImageFix" stdDeviation="20"/>
<feComposite in2="SourceAlpha" operator="in" result="effect1_backgroundBlur_0_1499"/>
<feColorMatrix in="SourceAlpha" type="matrix" values="0 0 0 0 0 0 0 0 0 0 0 0 0 0 0 0 0 0 127 0" result="hardAlpha"/>
<feMorphology radius="1" operator="erode" in="SourceAlpha" result="effect2_dropShadow_0_1499"/>
<feOffset dy="4"/>
<feGaussianBlur stdDeviation="12"/>
<feComposite in2="hardAlpha" operator="out"/>
<feColorMatrix type="matrix" values="0 0 0 0 0 0 0 0 0 0 0 0 0 0 0 0 0 0 0.2 0"/>
<feBlend mode="normal" in2="effect1_backgroundBlur_0_1499" result="effect2_dropShadow_0_1499"/>
<feBlend mode="normal" in="SourceGraphic" in2="effect2_dropShadow_0_1499" result="shape"/>
</filter>
<radialGradient id="paint0_radial_0_1499" cx="0" cy="0" r="1" gradientUnits="userSpaceOnUse" gradientTransform="translate(1166.58 399.916) rotate(30.1611) scale(233.647 290.762)">
<stop offset="0.0424637" stop-color="white" stop-opacity="0.4"/>
<stop offset="0.963852" stop-color="white" stop-opacity="0"/>
</radialGradient>
<linearGradient id="paint1_linear_0_1499" x1="1172.46" y1="379.175" x2="1260.66" y2="556.27" gradientUnits="userSpaceOnUse">
<stop offset="0.0249996" stop-color="white"/>
<stop offset="0.128235" stop-color="white" stop-opacity="0.92"/>
<stop offset="0.248841" stop-color="white" stop-opacity="0.82"/>
<stop offset="0.388114" stop-color="white" stop-opacity="0.71"/>
<stop offset="0.546909" stop-color="white" stop-opacity="0.58"/>
<stop offset="0.606744" stop-color="white" stop-opacity="0.53"/>
<stop offset="0.877293" stop-color="white" stop-opacity="0.17"/>
<stop offset="1" stop-color="white" stop-opacity="0"/>
</linearGradient>
</defs>
</svg>
