<svg width="408" height="408" viewBox="0 0 408 408" fill="none" xmlns="http://www.w3.org/2000/svg">
<g clip-path="url(#clip0_0_1485)">
<g filter="url(#filter0_d_0_1485)">
<path d="M308.827 114.763C311.543 115.315 314.156 115.555 314.59 119.44C314.81 121.418 317.48 121.621 319.451 121.674C322.985 121.77 323.91 122.342 323.699 125.493C323.53 128.039 324.352 128.792 326.732 129.001C329.865 129.277 332.801 130.17 336.098 128.902C339.066 127.762 340.763 129.267 342.172 132.841C342.471 133.598 342.899 134.608 343.783 134.062C347.815 131.574 352.63 133.512 356.95 131.317C359.819 129.859 363.908 130.519 366.787 133.286C368.179 134.624 369.831 135.267 371.559 134.091C373.391 132.844 374.908 133.991 375.851 134.961C378.846 138.041 382.227 137.125 385.663 136.47C386.123 136.383 386.568 136.217 387.02 136.088C388.886 135.553 387.137 139.836 389.229 138.011C390.337 137.043 391.113 136.841 392.366 136.689C398.077 135.995 402.289 139.234 406.669 142.105L404.574 147.026C404.422 146.987 404.27 146.952 404.117 146.92C402.875 146.661 401.741 144.487 401.366 145.081C400.592 146.309 399.034 147.358 399.236 149.075C399.496 151.277 398.407 151.797 396.456 151.891C394.719 151.974 392.944 152.281 391.599 153.654C390.503 154.774 389.205 154.796 387.651 154.736C383.636 154.582 381.475 156.488 380.973 160.558C380.458 164.732 376.56 166.23 374.499 169.169C373.832 170.119 373.235 168.888 372.877 168.255C371.241 165.355 372.255 162.66 373.714 160.117C374.42 158.886 375.555 157.908 376.45 156.779C376.994 156.094 378.407 155.654 377.763 154.59C377.194 153.648 375.884 153.392 374.75 153.421C373.332 153.459 372.373 154.431 371.719 155.535C370.58 157.458 369.238 157.176 367.265 156.822C362.122 155.9 356.796 155.36 353.213 160.522C352.265 161.889 349.33 162.088 350.225 164.308C351.067 166.396 353.661 165.014 355.418 165.556C356.716 165.955 358.466 165.507 358.525 167.254C358.587 169.138 360.504 171.247 358.365 172.925C357.701 173.446 357.102 173.763 357.012 174.65C356.967 175.097 356.982 175.774 356.435 175.772C355.918 175.771 355.975 175.103 355.921 174.673C355.882 174.356 355.909 174.032 355.872 173.714C355.771 172.822 356.163 171.855 355.471 171.052C355.229 171.955 355.147 172.943 354.719 173.747C352.681 177.586 350.509 181.212 345.746 182.367C341.382 183.425 340.949 184.319 341.998 188.725C342.381 190.332 342.389 191.7 340.667 192.268C339.001 192.817 338.482 191.271 337.908 190.2C337.465 189.374 337.216 188.404 337.072 187.469C336.861 186.1 336.1 185.976 335.033 186.368C334.203 186.673 333.322 187.708 332.564 186.482C332.041 185.637 331.708 185.077 330.953 186.138C330.502 186.773 329.79 187.556 329.878 188.174C330.07 189.519 331.068 188.431 331.717 188.494C333.571 188.675 335.319 188.896 332.882 191.082C331.777 192.073 332.107 193.37 332.361 194.665C333.655 201.274 330.822 206.156 324.549 208.397C322.982 208.957 321.024 208.862 320.347 211.071C319.916 212.479 319.272 212.36 318.646 210.95C317.889 209.246 316.756 210.337 315.906 210.931C314.753 211.739 314.734 212.751 315.804 213.721C316.279 214.151 316.787 214.548 317.231 215.008C320.26 218.144 319.194 222.534 315.073 224.171C313.936 224.623 313.762 223.847 313.307 223.201C312.069 221.446 309.933 219.374 308.344 220.812C306.294 222.667 308.462 224.87 310.094 226.431C311.294 227.579 312.707 228.962 312.402 230.454C311.705 233.866 314.727 235.941 314.919 238.964C315.006 240.326 316.319 240.53 317.411 240.833C320.616 241.722 323.599 243.558 327.14 243.005C327.749 242.911 328.644 243.155 328.689 243.81C328.752 244.739 327.787 244.472 327.223 244.523C323.184 244.885 319.049 244.205 315.416 243.044C312.615 242.149 310.245 238.927 308.425 236.238C306.914 233.999 305.256 231.861 303.464 229.84C302.939 229.25 301.959 228.877 302.593 227.983C303.307 226.976 304.351 227.372 305.092 228.025C306.167 228.972 307.106 230.075 308.116 231.099C308.45 231.439 308.929 231.81 309.334 231.468C309.809 231.068 309.301 230.633 309.052 230.286C306.423 226.607 305.438 222.526 305.798 218.03C305.933 216.353 305.659 214.675 303.171 215.212C301.031 215.674 301.087 213.632 300.344 212.58C297.224 208.165 296.065 208.052 292.058 211.631C291.138 212.452 290.129 213.175 289.122 213.889C285.661 216.346 284.748 219.985 286.527 224.025C286.891 224.853 287.784 225.77 286.798 226.608C285.889 227.381 285.124 226.403 284.258 226.108C280.264 224.743 278.76 221.415 278.211 217.834C277.392 212.501 273.378 209.418 270.508 205.511C269.772 204.508 268.672 204.296 267.518 204.276C266.077 204.25 264.623 204.123 263.196 204.262C262.307 204.349 261.462 204.22 260.628 204.037C259.207 203.727 258.364 205.553 259.523 206.432C260.076 206.851 260.676 207.233 261.188 207.687C262.109 208.505 261.161 209 260.893 209.694C259.2 214.08 254.979 215.21 251.353 216.876C249.085 217.917 246.937 219.492 244.285 219.648C243.792 219.677 243.302 219.936 243.302 220.498C243.302 221.258 243.903 221.624 244.542 221.682C246.167 221.828 247.598 220.942 249.152 220.694C251.316 220.35 252.36 221.818 251.395 223.786C249.491 227.669 247.043 231.251 243.537 233.981C238.168 238.162 237.656 239.87 239.67 246.132C241.248 251.04 241.063 251.781 236.783 255.027C235.15 256.266 233.751 257.402 234.563 259.747C234.884 260.674 234.963 261.942 234.194 262.472C231.124 264.593 230.119 268.12 228.192 270.988C225.093 275.6 220.343 275.378 215.774 275.726C214.342 275.835 213.262 274.415 213.117 273.305C212.594 269.31 210.613 265.674 209.24 262.151C207.128 256.73 205.543 252.056 207.659 246.34C208.267 244.7 207.466 241.989 206.387 240.396C204.578 237.725 203.718 235.035 203.802 231.894C203.828 230.893 203.284 229.647 202.275 229.793C199.524 230.193 197.293 227.659 194.988 228.178C192.402 228.76 189.571 228.251 187.195 229.729C185.599 230.722 184.187 230.323 182.733 229.368C179.083 226.969 177.016 223.045 173.831 220.199C173.497 219.9 173.296 219.313 173.375 218.873C174.47 212.81 172.376 205.838 178.097 201.082C180.878 198.769 181.976 195.226 184.652 192.856C185.776 191.86 185.827 190.513 184.12 189.847C182.981 189.402 181.794 188.762 182.164 187.533C182.782 185.484 181.593 183.324 182.631 181.449C183.563 179.767 185.374 180.072 186.96 180.157C191.686 180.408 192.118 180.046 191.278 175.226C190.923 173.185 191.409 172.233 193.153 170.97C195.176 169.506 197.11 167.803 199.166 166.35C202.475 164.012 202.849 163.104 200.486 159.553C199.746 158.442 199.267 157.355 198.975 156.104C198.164 152.618 198.71 151.119 202.001 149.573C204.297 148.494 206.018 147.083 207.027 144.725C208.781 140.628 212.16 138.306 216.16 136.767C217.801 136.135 219.516 135.694 221.169 135.088C224.113 134.007 226.628 133.508 229.298 136.333C231.055 138.192 234.407 137.906 236.733 139.413C237.524 139.926 238.753 140.015 239.247 140.689C241.184 143.324 242.603 144.689 243.703 140.13C243.955 139.083 245.628 138.734 246.53 139.808C247.901 141.441 249.135 141.059 250.691 140.161C253.3 138.655 256.326 139.418 259.136 138.871C262.118 138.29 260.161 137.004 259.777 135.896L259.831 135.83C262.177 136.31 264.512 136.858 266.873 137.243C268.122 137.447 269.003 137.478 269.391 135.521C270.233 131.275 272.14 130.474 276.803 130.913C278.471 131.07 280.084 130.782 281.774 131.529C282.75 131.96 284.501 131.77 284.772 130.036C285.15 127.618 286.386 127.929 288.207 128.463C289.892 128.957 292.191 129.801 292.167 126.4C292.161 125.509 293.262 125.347 294.036 125.178C297.434 124.437 300.604 122.876 304.268 123.04C307.633 123.19 308.541 120.956 306.732 117.749C307.724 116.963 308.294 115.877 308.827 114.763ZM201.013 180.989C197.466 181.616 195.059 183.755 193.614 186.838C192.908 188.345 192.293 189.697 190.732 190.439C190.212 190.686 189.157 190.544 189.284 191.223C189.384 191.752 190.448 191.641 191.019 191.442C193.878 190.445 196.724 189.512 199.789 189.246C201.463 189.1 202.966 189.341 204.425 190.008C205.859 190.665 205.675 192.021 205.754 193.309C205.816 194.31 206.6 195.144 207.601 195.196C210.811 195.361 213.869 198.082 217.27 195.711C217.794 195.345 218.934 195.421 219.573 195.734C223.11 197.47 226.893 196.265 230.527 196.765C232.307 197.01 232.94 195.267 233.281 193.974C233.698 192.393 232.415 192.362 231.184 192.276C230.118 192.202 229.012 191.31 228.043 191.475C224.705 192.046 223.236 190.66 223.025 187.457C222.982 186.81 222.59 186.193 221.786 186.304C221.244 186.379 221.291 186.972 221.087 187.366C219.905 189.64 216.846 190.031 215.383 188.096C214.939 187.509 214.9 185.953 214.255 186.277C210.933 187.944 209.463 184.859 207.25 183.788C205.796 183.084 204.893 182.826 204.747 184.936C204.669 186.059 204.042 187.477 202.775 187.104C200.956 186.568 202.571 185.307 202.649 184.355C202.769 182.927 203.802 181.028 201.013 180.989ZM213.689 163.508C215.904 163.623 215.721 163.507 216.62 162.089C218.733 158.759 217.895 155.467 216.792 152.15C216.482 151.217 216.606 149.494 214.896 150.103C213.594 150.568 212.778 152.084 213.622 153.23C216.474 157.109 212.722 158.982 211.187 161.328C210.228 162.795 208.299 164.283 206.67 161.512C206.432 161.107 205.883 160.778 205.497 161.161C205.221 161.435 205.111 162.059 205.188 162.479C205.697 165.231 207.865 164.645 209.718 164.649C211.148 164.653 212.054 162.811 213.689 163.508ZM240.038 182.872C239.362 180.239 235.626 180.467 235.074 177.445C234.948 176.756 234.006 178.503 233.336 179.01C232.275 179.812 231.203 180.052 230.546 178.733C230.008 177.653 229.429 177.004 228.494 177.99C227.424 179.117 226.158 180.28 226.364 182.099C226.494 183.256 227.384 183.916 228.361 183.703C231.427 183.035 234.267 183.464 237.162 184.603C238.375 185.08 239.703 184.508 240.038 182.872ZM237.015 207.871C236.012 208.088 235.973 208.817 235.921 209.615C235.766 211.94 237.438 213.292 238.667 214.876C239.225 215.594 239.798 216.877 240.72 216.485C242.051 215.917 241.213 214.61 240.961 213.624C240.483 211.75 239.102 210.379 238.133 208.779C237.912 208.411 237.432 208.199 237.015 207.871ZM-2.88379 166.764C1.1237 164.306 5.18138 161.956 9.66699 160.442C10.2391 160.249 11.0344 159.895 10.9723 159.203C10.9006 158.402 9.93394 158.75 9.42713 158.452C7.36243 157.238 5.22202 156.129 3.2649 154.759C0.84718 153.067 0.959539 151.666 3.44898 150.15C3.98607 149.822 4.61799 149.652 5.2029 149.4C5.87307 149.111 7.23732 149.31 6.96957 148.321C6.73449 147.453 5.56866 148.274 4.8188 148.231C4.18848 148.196 3.51113 148.232 2.94296 148.01C1.84726 147.581 0.880648 146.764 1.07668 145.518C1.3261 143.932 2.73498 143.809 4.0554 143.794C4.64349 143.786 5.48659 144.476 5.74796 143.739C5.99101 143.056 4.98376 142.947 4.47615 142.617C0.68382 140.155 0.698164 139.553 4.51838 137.335C5.48499 136.774 6.39024 136.085 7.40466 135.636C10.2886 134.361 12.9987 133.589 16.4022 134.786C20.0909 136.083 24.2394 136.007 28.1306 136.81C32.9581 137.805 37.5417 137.828 42.4648 136.577C47.1934 135.375 52.2624 136.27 57.0054 137.937C57.5751 138.137 58.3059 138.641 58.7489 137.98C59.1497 137.381 58.6605 136.732 58.1242 136.371C57.3233 135.833 56.591 135.381 56.3878 134.265C56.1575 133.002 55.41 132.719 54.4354 133.767C53.28 135.01 51.8894 134.987 50.471 134.37C49.0191 133.738 47.909 132.81 48.9139 131.059C49.4765 130.078 50.0925 129.182 50.0247 127.972C49.9291 126.274 51.4137 125.9 52.26 126.443C54.9829 128.19 58.3967 127.222 61.1627 129.359C63.4369 131.117 66.5774 131.633 69.5777 129.804C71.3093 128.749 73.1365 128.515 72.758 131.629C72.6114 132.837 73.017 134.157 73.9127 134.631C76.3718 135.932 78.4349 136.936 74.9342 139.482C74.2003 140.016 74.7462 141.021 75.6594 141.28C76.7479 141.589 78.309 141.803 78.4341 140.415C78.5807 138.788 79.1449 137.906 80.4144 136.968C82.4854 135.438 82.1372 134.504 79.4772 134.476C77.3161 134.453 76.5758 132.213 74.9494 131.322C76.8436 130.981 77.5878 128.709 79.6302 128.569C80.7419 128.492 81.8431 128.251 82.9468 128.07C84.5214 127.811 85.5996 127.027 85.8315 125.336C85.9494 124.478 85.8873 123.688 84.8745 123.486C83.4297 123.199 82.1595 122.34 80.8558 124.432C79.015 127.384 75.3677 124.913 72.8185 126.266L72.1579 124.516C72.5572 124.093 72.6018 123.669 72.1563 123.246C72.4839 121.546 71.2495 120.013 72.0743 118.106C73.4576 114.907 73.8051 114.58 76.5941 116.348C77.4261 116.875 78.4907 117.47 78.1656 118.494C77.7297 119.863 76.5702 118.702 75.7415 118.758C74.7127 118.828 73.7222 118.92 73.711 120.211C73.6999 121.481 74.6378 121.707 75.6992 121.7C76.8173 121.694 77.9385 121.804 79.0525 121.744C81.1076 121.634 82.3085 120.937 80.6566 118.808C79.9378 117.882 79.015 116.858 80.2 115.923C81.4336 114.948 82.2894 116.364 82.8871 117.118C83.4839 117.871 85.5773 117.871 84.3382 119.94C83.9628 120.567 85.9494 120.995 86.9639 121.245C87.4492 121.365 87.9265 121.068 88.0476 120.527C88.2931 119.428 87.7695 118.696 86.8308 118.198C86.6821 118.123 86.5396 118.036 86.4045 117.938C80.4757 113.581 80.5466 112.214 86.9129 108.467C88.0143 107.818 89.2077 107.338 90.4526 107.046C96.9694 105.492 103.648 105.043 110.262 104.269C113.026 103.946 115.955 104.893 118.79 105.375C119.868 105.558 121.751 106.003 121.777 106.423C121.854 107.643 120.158 107.599 119.401 108.378C118.97 108.821 118.168 109.137 118.596 109.881C119.084 110.73 120.166 110.77 120.633 110.144C123.415 106.417 127.295 107.36 131.111 107.122C134.216 106.929 137.353 106.521 140.544 105.423C144.058 104.213 148.25 103.862 152.198 103.546C152.99 103.483 154.007 103.932 154.56 103.58C159.337 100.542 163.331 105.063 167.79 104.848C168.322 104.822 168.731 105.272 168.561 105.805C168.433 106.203 168.02 106.776 167.696 106.802C165.468 106.984 163.229 107.032 160.994 107.153C160.534 107.177 160.08 107.329 159.622 107.422C159.893 108.204 160.588 107.937 161.092 107.936C165.865 107.925 170.629 108.599 175.416 108.025C176.579 107.886 178.264 107.72 178.493 109.469C178.673 110.845 177.21 111.106 176.258 111.628C172.838 113.505 169.024 115.156 171.645 120.28C171.972 120.92 171.122 121.511 171.136 122.009C171.265 126.427 167.403 129.881 168.228 134.488C168.459 135.783 167.646 137.135 166.329 137.541C163.451 138.429 161.213 140.966 157.926 140.761C157.616 140.742 157.231 140.763 156.99 140.928C152.285 144.146 146.02 145.673 144.445 152.31C143.846 154.83 142.371 155.145 140.119 154.501C136.553 153.481 134.79 150.768 132.999 147.839C131.143 144.803 130.338 142.056 133.18 139.205C133.624 138.761 133.593 138.203 132.972 137.622C131.555 136.296 129.049 131.951 128.673 130.507C127.52 126.074 123.107 122.456 118.734 123.624C113.903 124.915 112.164 121.699 109.738 119.153C108.751 118.119 109.616 117.396 110.508 116.95C111.783 116.312 113.286 116.316 114.522 115.434C115.524 114.719 115.592 114.108 115.081 113.057C114.542 111.947 113.882 112.337 113.152 112.629C108.81 114.368 104.957 116.498 103.531 121.55C103.054 123.243 101.716 124.625 101.278 126.564C100.901 128.233 98.6158 127.853 97.0746 128.103C96.5128 128.195 95.5398 127.663 95.4904 128.441C95.4538 129.018 96.6212 128.742 97.1216 129.03C100.585 131.017 104.88 129.808 108.337 132.311C111.089 134.304 114.333 135.348 115.672 139.095C116.326 140.924 118.859 141.586 120.767 142.387C121.658 142.762 122.952 143.051 121.978 144.204C121.215 145.107 120.853 147.272 118.813 146.196C118.126 145.834 117.615 145.144 117.008 144.622C116.656 144.318 116.179 143.912 115.788 144.255C115.356 144.633 115.776 145.103 116.077 145.445C116.499 145.926 117.016 146.333 117.39 146.846C118.074 147.781 119.865 148.656 118.464 149.945C117.406 150.918 116.075 152.484 114.284 151.644C110.756 149.99 107.596 147.327 103.274 148.095C102.865 148.168 102.462 147.625 102.455 147.103C102.446 146.519 102.862 146.28 103.383 146.238C104.179 146.175 105.021 146.291 105.765 146.07C107.809 145.461 109.064 142.935 108.336 141.115C107.491 139.001 102.368 136.543 99.9434 136.821C98.2245 137.019 99.3465 137.695 99.2302 138.426C98.9026 140.485 100.543 143.748 96.1606 143.924C94.6043 143.987 95.8363 145.269 96.4634 145.85C97.603 146.906 100.268 147.073 99.9561 148.611C99.6589 150.077 97.0603 147.945 95.743 149.439C95.1948 150.06 94.1724 150.125 93.5174 149.59C90.9467 147.493 89.3943 149.67 87.7528 150.97C82.8695 154.84 83.0711 156.979 88.7401 159.71C90.0223 160.328 91.204 161.257 92.5763 161.591C96.151 162.462 99.1967 163.794 100.095 167.884C100.253 168.604 101.143 169.91 102.218 168.901C102.809 168.345 102.813 167.419 102.356 166.749C100.956 164.693 101.221 163.329 103.623 162.278C104.694 161.809 104.368 160.575 103.92 159.718C103.122 158.196 103.428 156.591 103.355 155.01C103.168 150.958 105.444 149.475 109.093 151.401C110.48 152.133 112.077 152.992 112.854 154.242C114.157 156.34 115.182 157.428 117.705 155.864C119.345 154.847 120.512 156.408 121.041 157.678C122.201 160.457 124.321 162.247 126.479 164.165C128.122 165.626 130.723 166.937 129.175 170.063C128.675 171.073 129.805 171.296 130.424 171.714C131.5 172.44 132.506 173.244 132.745 174.629C132.855 175.265 132.443 176.388 132.365 176.328C130.604 174.964 128.501 176.262 126.769 175.567C125.6 175.099 125.535 173.861 125.972 172.652C126.644 170.797 125.671 170.844 124.288 171.187C123.368 171.415 122.355 171.561 121.431 171.421C118.102 170.92 118.289 172.052 119.301 174.707C120.199 177.063 121.119 176.879 122.794 175.933C123.577 175.491 124.402 175.591 124.768 176.509C125.117 177.382 124.573 178.403 123.908 178.51C121.411 178.915 119.373 181.923 116.407 179.808C115.514 179.173 114.015 179.655 113.862 180.365C113.256 183.183 110.881 183.925 108.923 185.218C108.553 185.462 108.283 185.962 108.121 186.4C106.679 190.287 104.619 193.614 101.204 196.227C99.4684 197.555 99.3561 199.863 101.137 201.772C102.011 202.708 102.258 204.001 101.081 204.675C99.9139 205.342 99.7497 203.668 99.0493 203.15C98.3026 202.597 97.6715 201.796 97.1981 200.982C95.8028 198.585 93.66 198.327 91.3778 199.059C89.9808 199.506 88.6317 199.845 87.1758 199.846C84.3103 199.847 81.7523 199.706 82.4169 204.19C82.6647 205.863 80.2725 207.742 82.4607 209.878C84.0545 211.432 85.4944 212.17 87.5049 210.915C88.1831 210.492 88.8174 209.996 89.5035 209.585C90.5028 208.987 91.7459 208.528 92.699 209.118C94.1612 210.025 92.7293 211.165 92.3428 211.952C91.0996 214.487 91.3443 215.8 94.5262 215.774C96.2236 215.76 97.171 216.895 97.2101 218.564C97.2467 220.127 96.5837 222.093 98.5831 222.697C100.669 223.327 103.316 223.54 104.943 222.24C108.446 219.44 111.897 220.033 115.663 221.213C116.676 221.53 117.728 221.68 118.787 221.75C124.896 222.153 128.258 227.922 133.866 229.285C135.779 235.904 142.614 234.88 147.014 237.629C148.154 238.341 149.619 238.707 150.853 239.468C153.231 240.938 153.887 242.824 152.082 245.038C150.277 247.253 149.81 249.847 149.042 252.469C147.779 256.779 147.001 261.758 140.805 262.15C139.134 262.256 138.267 263.828 137.773 265.505C135.79 272.237 135.074 272.947 127.801 275.757C127.236 275.975 127.073 276.198 127.258 276.716C128.401 279.915 126.21 280.786 123.892 281.003C121.725 281.206 121.614 283.008 120.755 284.181C119.209 286.29 118.848 289.163 116.544 290.838C116.4 290.942 116.561 291.869 116.836 292.08C118.326 293.224 117.666 293.961 116.718 295.151C113.576 299.104 113.632 299.321 116.455 303.432C116.906 304.089 117.777 304.578 116.361 305.055C112.533 306.343 108.939 304.562 107.489 300.751C106.357 297.779 106.29 294.531 107.081 291.752C108.731 285.949 108.491 279.919 109.893 274.035C110.967 269.53 111.833 264.519 111.904 259.615C111.95 256.546 110.726 254.183 108.295 252.746C105.605 251.156 104.097 248.921 103.084 246.137C102.815 245.398 102.331 244.738 101.991 244.021C101.092 242.128 97.5241 241.502 99.572 238.152C100.68 236.34 100.193 233.703 102.234 232.205C103.548 231.24 103.615 229.838 103.69 228.347C103.772 226.754 103.387 226.097 101.635 225.927C98.466 225.619 95.1438 225.277 94.3629 221.137C94.1931 220.237 93.1157 220.138 92.4025 219.994C88.721 219.246 85.8172 216.802 81.5619 216.646C77.9703 216.516 73.1301 214.693 71.3077 209.91C70.5028 207.797 69.6024 206.261 66.2722 206.936C63.5485 207.487 61.781 204.061 60.8567 201.579C59.4151 197.71 57.36 194.739 54.0314 192.076C50.4335 189.196 49.4454 184.466 49.5362 179.869C49.5984 176.728 49.8367 173.755 46.4579 172.045C45.7383 171.681 45.4435 171.095 45.3439 170.155C44.9478 166.426 44.6418 166.217 40.6814 165.902C39.4072 165.801 39.4574 164.719 38.9888 163.93C36.1081 159.083 32.4496 155.495 26.3368 154.834C24.1215 154.594 22.7612 155.737 20.993 156.079C19.1163 156.442 16.8827 155.567 18.1163 159.055C18.4804 160.086 16.8652 161.647 15.5439 161.22C13.1286 160.438 11.9779 161.732 10.7396 163.267C10.4447 163.633 10.0686 164.196 9.71241 164.21C5.33598 164.376 1.71816 167.278 -2.60329 167.595L-2.88379 166.764ZM88.0946 130.987C87.3097 131.119 86.5256 131.274 85.9813 131.927C85.3606 132.671 85.594 133.452 86.1128 134.075C87.7926 136.092 89.0413 138.591 92.0129 139.192C92.5898 139.308 91.8631 141.064 93.107 140.757C93.7142 140.608 94.3397 139.707 94.5597 139.02C94.8434 138.133 94.0361 137.514 93.2839 137.329C90.706 136.693 89.796 134.867 89.5194 132.48C89.4246 131.664 89.176 130.906 88.0946 130.987Z" fill="black"/>
</g>
<g filter="url(#filter1_d_0_1485)">
<path d="M355.887 249.59C355.844 247.239 355.933 245.226 353.408 244.617C353.101 244.543 352.539 244.375 352.548 244.304C353.107 239.442 348.822 240.226 346.335 238.909C345.785 238.617 345.323 238.122 344.891 237.655C344.117 236.821 343.217 235.796 344.11 234.724C345.157 233.466 346.829 233.885 347.39 235.016C348.562 237.383 350.015 236.68 352.027 236.502C356.48 236.108 360.053 238.493 362.48 242.007C363.423 243.372 366.071 244.901 365.25 245.807C363.942 247.249 362.26 245.045 360.775 244.296C359.579 243.693 358.538 243.993 357.749 244.908C356.868 245.929 357.453 246.941 357.953 248.004C360.385 253.178 363.963 257.572 367.379 262.08C370.559 266.274 370.737 268.591 368.187 273.162C367.716 274.006 367.233 274.845 366.832 275.724C363.754 282.479 358.652 283.311 353.419 278.355C350.943 276.01 347.96 274.173 345.093 272.28C343.305 271.099 341.472 271.665 339.667 272.669C336.732 274.303 333.657 275.463 330.221 275.803C326.465 276.175 326.421 276.387 325.893 272.587C325.439 269.319 323.485 266.467 323.938 262.865C324.298 259.989 325.381 258.561 328.041 257.806C330.238 257.182 332.298 256.782 333.363 253.797C333.953 252.142 337.068 250.481 339.66 250.603C341.169 250.674 342.015 250.44 342.77 249.156C343.955 247.141 345.993 247.365 347.923 247.51C349.179 247.604 350.232 248.178 349.923 249.602C349.226 252.813 351.291 253.884 353.651 253.755C356.361 253.606 355.63 250.983 355.887 249.59ZM210.104 113.248C208.56 113.629 206.459 111.981 205.479 114.348C204.472 116.78 207.273 117.414 207.953 119.077C208.332 120.003 209.148 120.525 209.901 121.124C211.259 122.202 212.698 122.368 213.575 120.822C214.927 118.44 216.394 118.398 218.367 119.934C218.879 120.331 219.594 120.245 220.135 119.798C220.539 119.464 220.761 118.852 220.357 118.55C216.108 115.379 219.909 115.917 221.735 115.42C222.475 115.219 223.148 114.719 223.805 114.284C224.174 114.039 224.69 113.66 224.707 113.321C224.731 112.813 224.098 112.741 223.655 112.712C221.43 112.565 219.341 111.479 216.821 111.841C214.542 111.363 212.408 112.679 210.104 113.248ZM68.8466 121.684C68.1016 120.85 66.9525 120.653 66.4943 121.775C64.7077 126.152 62.5322 122.835 61.1759 121.797C57.5589 119.029 56.0018 118.88 52.9315 121.853C51.6007 123.141 51.517 123.949 53.5092 124.348C56.1644 124.878 58.6602 125.642 61.062 127.07C63.9714 128.8 69.8268 127.203 72.1569 124.517C72.5561 124.093 72.6007 123.67 72.1553 123.246C70.7504 123.363 69.7535 122.698 68.8466 121.684ZM318.494 232.614C318.322 232.737 318.292 233.233 318.37 233.508C318.986 235.677 319.639 237.853 322.228 238.479C324.467 239.02 326.105 238.412 327.528 236.392C329.311 233.861 328.5 230.857 329.52 228.203C329.897 227.223 328.641 226.703 326.988 226.692C324.418 228.472 321.441 230.522 318.494 232.614ZM249.897 248.671C247.902 250.073 245.137 251.17 244.112 253.302C242.932 255.759 242.506 258.731 242.677 261.607C242.737 262.617 243.269 263.423 244.363 263.618C245.688 263.853 247.261 263.767 247.639 262.409C248.689 258.647 250.722 255.197 251.24 251.514C250.795 250.263 251.212 247.747 249.897 248.671ZM259.833 135.838C256.535 132.175 256.539 131.403 260.28 128.298C262.487 126.466 264.895 124.941 267.766 124.264C268.991 123.975 270.188 123.508 271.337 122.987C271.643 122.848 271.891 122.203 271.871 121.806C271.832 121.055 271.208 120.665 270.529 120.832C264.348 122.344 258.163 123.863 254.158 129.504C252.557 131.759 253.108 134.211 255.558 135.431C256.9 136.1 258.356 135.886 259.779 135.903L259.833 135.838ZM390 290.316C391.153 287.534 393.253 285.791 395.588 284.057C398.421 281.952 398.218 280.432 395.294 278.115C394.677 277.626 394.058 276.823 393.258 277.188C392.293 277.629 392.908 278.553 393.035 279.286C393.403 281.408 393.118 282.858 390.789 284.089C388.81 285.136 387.403 287.363 385.918 289.208C384.748 290.661 385.38 292.199 387.2 292.304C388.449 292.321 389.523 291.467 390 290.316ZM355.854 184.671C355.212 184.301 354.537 184.431 354.2 185.036C352.163 188.706 348.763 190.499 345.062 192.01C343.549 192.628 342.494 193.901 342.572 195.736C342.603 196.445 342.997 197.07 343.739 196.741C347.123 195.238 350.614 193.887 353.766 191.985C355.663 190.841 356.305 188.431 356.745 186.561C356.796 185.503 356.435 185.005 355.854 184.671ZM304.273 110.665C301.98 109.167 300.565 110.593 299.708 112.366C298.815 114.21 299.466 115.837 301.629 116.457C303.317 116.941 305.032 117.328 306.735 117.758C307.723 116.964 308.294 115.878 308.827 114.764C307.774 112.88 306.006 111.795 304.273 110.665ZM351.292 124.228C350.348 125.885 352.364 126.137 353.078 127.014C353.378 127.382 353.715 127.725 353.971 128.121C354.689 129.233 355.553 130.398 356.985 129.929C358.755 129.35 356.566 128.035 357.257 127.134C357.637 126.639 357.958 126.094 358.362 125.619C359.318 124.497 358.686 123.882 357.635 123.593C356.731 123.344 355.76 123.341 355.13 123.267C353.568 123.401 351.984 123.013 351.292 124.228ZM333.299 221.321C334.849 222.66 336.257 221.595 337.041 220.648C337.889 219.624 336.954 218.435 335.713 218.189C333.467 217.744 333.332 216.646 334.111 214.766C334.442 213.968 333.497 213.284 332.741 213.079C331.73 212.805 331.368 213.717 331.117 214.453C330.914 215.044 330.937 215.713 330.86 216.348C330.703 218.49 331.768 219.998 333.299 221.321ZM329.526 236.77C329.643 238.192 329.846 240.227 331.39 240.581C332.223 240.772 334.355 240.02 334.215 238.145C334.113 236.773 333.789 235.255 331.869 235.054C330.724 235.109 329.422 235.499 329.526 236.77Z" fill="black"/>
</g>
<path d="M277.119 197.597C274.906 197.597 273.113 199.383 273.113 201.595C273.113 205.421 277.119 210.41 277.119 210.41C277.119 210.41 281.126 205.42 281.126 201.595C281.126 199.384 279.333 197.597 277.119 197.597ZM277.119 203.808C276.546 203.808 275.995 203.58 275.589 203.174C275.184 202.768 274.956 202.218 274.956 201.644C274.956 201.07 275.184 200.52 275.589 200.114C275.995 199.709 276.546 199.481 277.119 199.481C277.693 199.481 278.243 199.709 278.649 200.114C279.055 200.52 279.283 201.07 279.283 201.644C279.283 202.218 279.055 202.768 278.649 203.174C278.243 203.58 277.693 203.808 277.119 203.808Z" fill="url(#paint0_linear_0_1485)"/>
<path d="M193.984 191.253C191.77 191.253 189.977 193.039 189.977 195.252C189.977 199.077 193.984 204.066 193.984 204.066C193.984 204.066 197.99 199.076 197.99 195.252C197.99 193.04 196.197 191.253 193.984 191.253ZM193.984 197.464C193.41 197.464 192.859 197.236 192.454 196.83C192.048 196.425 191.82 195.874 191.82 195.301C191.82 194.727 192.048 194.176 192.454 193.771C192.859 193.365 193.41 193.137 193.984 193.137C194.557 193.137 195.108 193.365 195.513 193.771C195.919 194.176 196.147 194.727 196.147 195.301C196.147 195.874 195.919 196.425 195.513 196.83C195.108 197.236 194.557 197.464 193.984 197.464Z" fill="url(#paint1_linear_0_1485)"/>
<path d="M339.555 250.35C337.342 250.35 335.548 252.136 335.548 254.348C335.548 258.174 339.555 263.163 339.555 263.163C339.555 263.163 343.561 258.173 343.561 254.348C343.561 252.137 341.768 250.35 339.555 250.35ZM339.555 256.561C338.981 256.561 338.431 256.333 338.025 255.927C337.619 255.521 337.391 254.971 337.391 254.397C337.391 253.823 337.619 253.273 338.025 252.867C338.431 252.461 338.981 252.233 339.555 252.233C340.129 252.233 340.679 252.461 341.085 252.867C341.49 253.273 341.718 253.823 341.718 254.397C341.718 254.971 341.49 255.521 341.085 255.927C340.679 256.333 340.129 256.561 339.555 256.561Z" fill="url(#paint2_linear_0_1485)"/>
<path d="M54.0881 149.518C51.8749 149.518 50.0815 151.304 50.0815 153.517C50.0815 157.342 54.0881 162.331 54.0881 162.331C54.0881 162.331 58.0946 157.341 58.0946 153.517C58.0946 151.305 56.3013 149.518 54.0881 149.518ZM54.0881 155.729C53.5143 155.729 52.964 155.501 52.5582 155.096C52.1525 154.69 51.9246 154.14 51.9246 153.566C51.9246 152.992 52.1525 152.442 52.5582 152.036C52.964 151.63 53.5143 151.402 54.0881 151.402C54.6619 151.402 55.2122 151.63 55.6179 152.036C56.0237 152.442 56.2516 152.992 56.2516 153.566C56.2516 154.14 56.0237 154.69 55.6179 155.096C55.2122 155.501 54.6619 155.729 54.0881 155.729Z" fill="url(#paint3_linear_0_1485)"/>
<path d="M98.8278 176.896C96.6146 176.896 94.8213 178.682 94.8213 180.895C94.8213 184.72 98.8278 189.709 98.8278 189.709C98.8278 189.709 102.834 184.719 102.834 180.895C102.834 178.683 101.041 176.896 98.8278 176.896ZM98.8278 183.107C98.254 183.107 97.7037 182.879 97.298 182.474C96.8922 182.068 96.6643 181.517 96.6643 180.944C96.6643 180.37 96.8922 179.82 97.298 179.414C97.7037 179.008 98.254 178.78 98.8278 178.78C99.4016 178.78 99.9519 179.008 100.358 179.414C100.763 179.82 100.991 180.37 100.991 180.944C100.991 181.517 100.763 182.068 100.358 182.474C99.9519 182.879 99.4016 183.107 98.8278 183.107Z" fill="url(#paint4_linear_0_1485)"/>
</g>
<defs>
<filter id="filter0_d_0_1485" x="-2.88379" y="102.527" width="417.552" height="210.944" filterUnits="userSpaceOnUse" color-interpolation-filters="sRGB">
<feFlood flood-opacity="0" result="BackgroundImageFix"/>
<feColorMatrix in="SourceAlpha" type="matrix" values="0 0 0 0 0 0 0 0 0 0 0 0 0 0 0 0 0 0 127 0" result="hardAlpha"/>
<feOffset dx="4" dy="4"/>
<feGaussianBlur stdDeviation="2"/>
<feComposite in2="hardAlpha" operator="out"/>
<feColorMatrix type="matrix" values="0 0 0 0 0 0 0 0 0 0 0 0 0 0 0 0 0 0 0.25 0"/>
<feBlend mode="normal" in2="BackgroundImageFix" result="effect1_dropShadow_0_1485"/>
<feBlend mode="normal" in="SourceGraphic" in2="effect1_dropShadow_0_1485" result="shape"/>
</filter>
<filter id="filter1_d_0_1485" x="51.9673" y="110.036" width="353.637" height="190.268" filterUnits="userSpaceOnUse" color-interpolation-filters="sRGB">
<feFlood flood-opacity="0" result="BackgroundImageFix"/>
<feColorMatrix in="SourceAlpha" type="matrix" values="0 0 0 0 0 0 0 0 0 0 0 0 0 0 0 0 0 0 127 0" result="hardAlpha"/>
<feOffset dx="4" dy="4"/>
<feGaussianBlur stdDeviation="2"/>
<feComposite in2="hardAlpha" operator="out"/>
<feColorMatrix type="matrix" values="0 0 0 0 0 0 0 0 0 0 0 0 0 0 0 0 0 0 0.25 0"/>
<feBlend mode="normal" in2="BackgroundImageFix" result="effect1_dropShadow_0_1485"/>
<feBlend mode="normal" in="SourceGraphic" in2="effect1_dropShadow_0_1485" result="shape"/>
</filter>
<linearGradient id="paint0_linear_0_1485" x1="277.119" y1="197.597" x2="277.119" y2="210.41" gradientUnits="userSpaceOnUse">
<stop stop-color="#2B92D5"/>
<stop offset="1" stop-color="#3FD9D7"/>
</linearGradient>
<linearGradient id="paint1_linear_0_1485" x1="193.984" y1="191.253" x2="193.984" y2="204.066" gradientUnits="userSpaceOnUse">
<stop stop-color="#2B92D5"/>
<stop offset="1" stop-color="#3FD9D7"/>
</linearGradient>
<linearGradient id="paint2_linear_0_1485" x1="339.555" y1="250.35" x2="339.555" y2="263.163" gradientUnits="userSpaceOnUse">
<stop stop-color="#2B92D5"/>
<stop offset="1" stop-color="#3FD9D7"/>
</linearGradient>
<linearGradient id="paint3_linear_0_1485" x1="54.0881" y1="149.518" x2="54.0881" y2="162.331" gradientUnits="userSpaceOnUse">
<stop stop-color="#2B92D5"/>
<stop offset="1" stop-color="#3FD9D7"/>
</linearGradient>
<linearGradient id="paint4_linear_0_1485" x1="98.8278" y1="176.896" x2="98.8278" y2="189.709" gradientUnits="userSpaceOnUse">
<stop stop-color="#2B92D5"/>
<stop offset="1" stop-color="#3FD9D7"/>
</linearGradient>
<clipPath id="clip0_0_1485">
<rect width="408" height="408" fill="white"/>
</clipPath>
</defs>
</svg>
