<svg width="1440" height="1401" viewBox="0 0 1440 1401" fill="none" xmlns="http://www.w3.org/2000/svg">
<path fill-rule="evenodd" clip-rule="evenodd" d="M190 124V0H164V124H-95V150H55V394H164V544H190V394H299V150H449V124H190Z" fill="black" fill-opacity="0.1"/>
<path fill-rule="evenodd" clip-rule="evenodd" d="M1181 898V774H1155V898H896V924H1046V1168H1155V1318H1181V1168H1290V924H1440V898H1181Z" fill="#D9D9D9" fill-opacity="0.2"/>
<g clip-path="url(#clip0_2031_23)">
<g filter="url(#filter0_d_2031_23)">
<path d="M1033.97 522.728C1042.1 524.38 1049.93 525.098 1051.23 536.733C1051.89 542.66 1059.88 543.266 1065.79 543.426C1076.37 543.714 1079.14 545.426 1078.51 554.865C1078 562.488 1080.47 564.744 1087.59 565.372C1096.98 566.197 1105.77 568.873 1115.65 565.076C1124.53 561.66 1129.62 566.169 1133.84 576.873C1134.73 579.141 1136.01 582.165 1138.66 580.53C1150.74 573.078 1165.16 578.883 1178.1 572.307C1186.69 567.94 1198.94 569.918 1207.56 578.205C1211.73 582.212 1216.68 584.138 1221.86 580.616C1227.34 576.88 1231.89 580.317 1234.71 583.222C1243.68 592.447 1253.81 589.704 1264.1 587.742C1265.47 587.48 1266.81 586.983 1268.16 586.597C1273.75 584.995 1268.51 597.824 1274.78 592.356C1278.1 589.458 1280.42 588.852 1284.17 588.396C1301.28 586.317 1313.89 596.019 1327.01 604.619L1320.74 619.357C1320.28 619.241 1319.83 619.136 1319.37 619.039C1315.65 618.264 1312.25 611.753 1311.13 613.533C1308.81 617.209 1304.14 620.352 1304.75 625.493C1305.53 632.09 1302.27 633.648 1296.42 633.928C1291.22 634.176 1285.91 635.097 1281.88 639.21C1278.59 642.563 1274.71 642.63 1270.05 642.451C1258.03 641.988 1251.56 647.697 1250.05 659.886C1248.51 672.387 1236.83 676.874 1230.66 685.679C1228.66 688.524 1226.87 684.836 1225.8 682.939C1220.9 674.256 1223.94 666.184 1228.31 658.566C1230.42 654.881 1233.82 651.95 1236.5 648.568C1238.13 646.518 1242.37 645.2 1240.44 642.012C1238.73 639.19 1234.81 638.424 1231.41 638.513C1227.17 638.625 1224.29 641.537 1222.33 644.842C1218.92 650.604 1214.91 649.756 1209 648.697C1193.59 645.935 1177.64 644.319 1166.91 659.781C1164.07 663.874 1155.28 664.471 1157.96 671.118C1160.48 677.373 1168.25 673.235 1173.51 674.855C1177.4 676.051 1182.64 674.71 1182.82 679.944C1183 685.586 1188.74 691.901 1182.34 696.928C1180.35 698.488 1178.56 699.438 1178.29 702.095C1178.15 703.434 1178.19 705.46 1176.56 705.455C1175.01 705.451 1175.18 703.45 1175.02 702.164C1174.9 701.214 1174.98 700.243 1174.87 699.29C1174.57 696.62 1175.74 693.722 1173.67 691.319C1172.95 694.023 1172.7 696.982 1171.42 699.391C1165.31 710.887 1158.81 721.747 1144.54 725.208C1131.47 728.377 1130.17 731.053 1133.32 744.251C1134.46 749.063 1134.49 753.161 1129.33 754.863C1124.34 756.507 1122.79 751.875 1121.07 748.667C1119.74 746.194 1118.99 743.287 1118.56 740.488C1117.93 736.387 1115.65 736.017 1112.46 737.191C1109.97 738.106 1107.33 741.204 1105.06 737.533C1103.5 735 1102.5 733.325 1100.24 736.502C1098.88 738.404 1096.75 740.748 1097.02 742.6C1097.59 746.629 1100.58 743.368 1102.52 743.557C1108.08 744.101 1113.31 744.762 1106.01 751.309C1102.7 754.278 1103.69 758.164 1104.45 762.04C1108.33 781.835 1099.84 796.458 1081.06 803.17C1076.36 804.848 1070.5 804.561 1068.47 811.18C1067.18 815.397 1065.25 815.039 1063.37 810.817C1061.11 805.712 1057.71 808.979 1055.17 810.76C1051.72 813.18 1051.66 816.211 1054.86 819.116C1056.29 820.404 1057.81 821.593 1059.14 822.97C1068.21 832.362 1065.02 845.51 1052.67 850.415C1049.27 851.768 1048.75 849.444 1047.38 847.51C1043.68 842.253 1037.28 836.047 1032.52 840.353C1026.38 845.909 1032.87 852.508 1037.76 857.184C1041.35 860.623 1045.59 864.764 1044.67 869.232C1042.59 879.452 1051.64 885.667 1052.21 894.72C1052.47 898.801 1056.41 899.412 1059.68 900.319C1069.27 902.98 1078.21 908.479 1088.82 906.825C1090.64 906.541 1093.32 907.274 1093.45 909.236C1093.65 912.019 1090.76 911.217 1089.07 911.369C1076.97 912.455 1064.58 910.417 1053.7 906.94C1045.31 904.259 1038.21 894.61 1032.76 886.557C1028.24 879.849 1023.27 873.448 1017.9 867.394C1016.33 865.626 1013.4 864.509 1015.29 861.833C1017.44 858.816 1020.56 860.002 1022.78 861.957C1026 864.795 1028.81 868.098 1031.84 871.165C1032.84 872.182 1034.27 873.294 1035.49 872.27C1036.91 871.072 1035.39 869.769 1034.64 868.728C1026.77 857.711 1023.81 845.489 1024.9 832.021C1025.3 826.999 1024.48 821.973 1017.03 823.581C1010.62 824.965 1010.79 818.848 1008.56 815.698C999.215 802.475 995.745 802.136 983.742 812.855C980.985 815.316 977.964 817.481 974.949 819.619C964.581 826.977 961.848 837.878 967.176 849.978C968.266 852.458 970.939 855.203 967.987 857.714C965.266 860.029 962.973 857.1 960.381 856.215C948.418 852.126 943.912 842.159 942.268 831.436C939.817 815.462 927.792 806.227 919.198 794.525C916.992 791.52 913.699 790.886 910.243 790.826C905.925 790.749 901.572 790.368 897.297 790.785C894.636 791.045 892.104 790.659 889.607 790.112C885.349 789.181 882.824 794.652 886.297 797.284C887.953 798.54 889.75 799.683 891.283 801.043C894.042 803.492 891.202 804.977 890.4 807.053C885.33 820.192 872.688 823.574 861.826 828.565C855.033 831.684 848.601 836.4 840.656 836.868C839.181 836.954 837.713 837.73 837.713 839.415C837.713 841.689 839.512 842.787 841.427 842.959C846.293 843.398 850.58 840.744 855.234 840.002C861.716 838.971 864.843 843.367 861.952 849.26C856.25 860.89 848.918 871.619 838.417 879.796C822.335 892.319 820.803 897.433 826.834 916.191C831.56 930.89 831.006 933.108 818.187 942.831C813.297 946.543 809.106 949.944 811.538 956.968C812.499 959.746 812.736 963.543 810.435 965.13C801.239 971.481 798.229 982.045 792.456 990.637C783.174 1004.45 768.949 1003.79 755.264 1004.83C750.975 1005.15 747.741 1000.9 747.306 997.575C745.741 985.611 739.807 974.72 735.695 964.168C729.368 947.932 724.621 933.934 730.96 916.814C732.778 911.899 730.382 903.782 727.148 899.009C721.73 891.011 719.155 882.953 719.406 873.545C719.484 870.547 717.854 866.814 714.833 867.253C706.594 868.452 699.911 860.862 693.008 862.415C685.264 864.16 676.784 862.635 669.666 867.062C664.886 870.036 660.656 868.841 656.303 865.979C645.372 858.795 639.178 847.043 629.641 838.517C628.641 837.622 628.037 835.866 628.276 834.546C631.555 816.388 625.283 795.506 642.417 781.26C650.747 774.334 654.036 763.72 662.05 756.622C665.416 753.641 665.571 749.605 660.456 747.609C657.045 746.278 653.489 744.361 654.599 740.678C656.449 734.542 652.888 728.074 655.998 722.458C658.79 717.42 664.213 718.334 668.962 718.587C683.118 719.341 684.411 718.255 681.896 703.82C680.831 697.706 682.287 694.853 687.512 691.073C693.572 686.686 699.362 681.586 705.522 677.235C715.432 670.232 716.551 667.511 709.474 656.876C707.26 653.549 705.823 650.293 704.949 646.546C702.52 636.107 704.157 631.615 714.012 626.985C720.888 623.756 726.043 619.529 729.067 612.466C734.32 600.196 744.44 593.241 756.419 588.63C761.335 586.737 766.472 585.418 771.422 583.601C780.241 580.365 787.773 578.868 795.769 587.329C801.031 592.898 811.072 592.041 818.039 596.556C820.407 598.093 824.087 598.358 825.569 600.378C831.369 608.27 835.62 612.357 838.913 598.702C839.67 595.568 844.68 594.523 847.381 597.74C851.487 602.631 855.184 601.485 859.842 598.795C867.657 594.284 876.721 596.571 885.137 594.931C894.068 593.191 888.209 589.341 887.058 586.021L887.218 585.823C894.245 587.263 901.238 588.902 908.31 590.057C912.052 590.668 914.689 590.759 915.852 584.9C918.374 572.181 924.086 569.782 938.05 571.097C943.048 571.568 947.879 570.706 952.941 572.942C955.865 574.233 961.109 573.665 961.92 568.472C963.051 561.228 966.753 562.161 972.209 563.761C977.255 565.238 984.14 567.765 984.069 557.581C984.05 554.913 987.348 554.426 989.666 553.92C999.845 551.7 1009.34 547.027 1020.31 547.517C1030.39 547.965 1033.11 541.275 1027.69 531.669C1030.66 529.315 1032.37 526.062 1033.97 522.728ZM711.052 721.081C700.429 722.957 693.221 729.365 688.894 738.6C686.779 743.113 684.937 747.161 680.261 749.383C678.702 750.123 675.542 749.698 675.924 751.731C676.223 753.316 679.411 752.984 681.12 752.388C689.684 749.402 698.207 746.607 707.386 745.81C712.401 745.373 716.902 746.094 721.272 748.094C725.568 750.061 725.017 754.123 725.253 757.98C725.439 760.978 727.785 763.476 730.785 763.632C740.399 764.126 749.559 772.276 759.743 765.173C761.314 764.078 764.729 764.305 766.643 765.243C777.236 770.443 788.565 766.835 799.451 768.331C804.783 769.064 806.678 763.844 807.7 759.973C808.948 755.237 805.105 755.142 801.418 754.887C798.225 754.665 794.912 751.992 792.009 752.488C782.014 754.197 777.613 750.046 776.98 740.452C776.854 738.514 775.677 736.666 773.269 736.998C771.648 737.223 771.789 739.001 771.176 740.18C767.636 746.991 758.474 748.161 754.092 742.366C752.762 740.609 752.645 735.948 750.714 736.917C740.764 741.91 736.363 732.671 729.733 729.463C725.379 727.356 722.673 726.583 722.236 732.903C722.005 736.265 720.124 740.511 716.331 739.394C710.883 737.791 715.718 734.012 715.952 731.16C716.312 726.886 719.406 721.196 711.052 721.081ZM749.02 668.721C755.653 669.067 755.104 668.719 757.798 664.473C764.125 654.499 761.617 644.639 758.314 634.706C757.385 631.911 757.755 626.748 752.633 628.574C748.734 629.966 746.292 634.505 748.819 637.94C757.362 649.558 746.122 655.167 741.526 662.194C738.652 666.588 732.876 671.044 727.998 662.745C727.284 661.53 725.64 660.547 724.484 661.692C723.656 662.513 723.327 664.382 723.558 665.64C725.081 673.884 731.575 672.127 737.127 672.141C741.409 672.153 744.122 666.635 749.02 668.721ZM827.937 726.721C825.913 718.833 814.724 719.515 813.07 710.465C812.693 708.4 809.872 713.635 807.864 715.153C804.685 717.556 801.475 718.274 799.506 714.322C797.895 711.088 796.162 709.145 793.36 712.098C790.157 715.472 786.365 718.957 786.981 724.406C787.372 727.869 790.036 729.845 792.962 729.208C802.146 727.208 810.652 728.492 819.323 731.905C822.956 733.332 826.934 731.618 827.937 726.721ZM818.884 801.595C815.879 802.244 815.762 804.428 815.605 806.817C815.142 813.781 820.149 817.832 823.832 822.574C825.502 824.724 827.218 828.569 829.98 827.393C833.966 825.693 831.455 821.779 830.701 818.824C829.271 813.211 825.132 809.106 822.233 804.313C821.569 803.211 820.132 802.576 818.884 801.595ZM100.362 678.473C112.365 671.113 124.518 664.074 137.953 659.54C139.667 658.962 142.049 657.9 141.863 655.828C141.648 653.43 138.753 654.473 137.235 653.58C131.051 649.943 124.64 646.623 118.778 642.52C111.537 637.45 111.873 633.255 119.33 628.713C120.938 627.732 122.831 627.223 124.583 626.469C126.59 625.603 130.676 626.199 129.874 623.238C129.17 620.636 125.678 623.094 123.432 622.968C121.544 622.863 119.516 622.97 117.814 622.304C114.532 621.02 111.637 618.574 112.224 614.841C112.971 610.089 117.191 609.722 121.146 609.676C122.907 609.655 125.432 611.719 126.215 609.514C126.943 607.466 123.926 607.139 122.406 606.153C111.048 598.778 111.091 596.974 122.533 590.332C125.428 588.652 128.139 586.587 131.177 585.243C139.815 581.425 147.932 579.112 158.126 582.697C169.174 586.582 181.599 586.356 193.253 588.759C207.712 591.74 221.441 591.809 236.186 588.062C250.348 584.463 265.53 587.141 279.736 592.136C281.443 592.735 283.631 594.244 284.958 592.263C286.159 590.47 284.693 588.525 283.087 587.444C280.688 585.833 278.495 584.48 277.886 581.138C277.197 577.353 274.958 576.508 272.039 579.647C268.578 583.367 264.413 583.301 260.165 581.451C255.816 579.558 252.492 576.78 255.501 571.534C257.186 568.596 259.031 565.913 258.829 562.288C258.542 557.202 262.989 556.082 265.523 557.71C273.679 562.942 283.903 560.042 292.188 566.443C298.999 571.708 308.405 573.253 317.391 567.775C322.578 564.615 328.051 563.916 326.917 573.241C326.478 576.861 327.692 580.814 330.375 582.234C337.741 586.131 343.92 589.136 333.435 596.762C331.237 598.361 332.872 601.373 335.607 602.149C338.867 603.072 343.543 603.714 343.917 599.557C344.357 594.685 346.046 592.041 349.848 589.232C356.051 584.649 355.008 581.852 347.042 581.768C340.569 581.699 338.352 574.992 333.48 572.322C339.154 571.3 341.383 564.496 347.5 564.076C350.829 563.846 354.128 563.126 357.433 562.582C362.15 561.806 365.379 559.457 366.073 554.393C366.427 551.825 366.24 549.457 363.207 548.853C358.88 547.994 355.075 545.421 351.171 551.686C345.657 560.529 334.733 553.128 327.098 557.178L325.12 551.939C326.315 550.669 326.449 549.402 325.115 548.135C326.096 543.041 322.399 538.449 324.869 532.738C329.012 523.158 330.053 522.179 338.406 527.473C340.898 529.053 344.087 530.833 343.113 533.9C341.808 538.001 338.335 534.526 335.853 534.693C332.771 534.9 329.805 535.177 329.771 539.044C329.738 542.848 332.547 543.524 335.726 543.504C339.075 543.485 342.433 543.815 345.77 543.636C351.925 543.306 355.522 541.218 350.574 534.843C348.421 532.067 345.657 529.003 349.206 526.201C352.901 523.282 355.464 527.523 357.254 529.781C359.042 532.036 365.312 532.034 361.601 538.232C360.476 540.111 366.427 541.392 369.465 542.142C370.918 542.5 372.348 541.612 372.711 539.991C373.446 536.7 371.878 534.507 369.066 533.015C368.621 532.789 368.194 532.529 367.789 532.237C350.032 519.186 350.245 515.093 369.312 503.871C372.611 501.924 376.185 500.489 379.914 499.613C399.432 494.959 419.436 493.615 439.245 491.297C447.525 490.328 456.296 493.164 464.788 494.608C468.015 495.157 473.655 496.488 473.733 497.746C473.965 501.403 468.886 501.269 466.616 503.603C465.327 504.93 462.924 505.875 464.206 508.105C465.669 510.647 468.908 510.768 470.306 508.892C478.638 497.73 490.259 500.553 501.689 499.842C510.99 499.264 520.384 498.04 529.943 494.751C540.468 491.128 553.023 490.078 564.849 489.13C567.219 488.942 570.267 490.288 571.923 489.233C586.229 480.135 598.191 493.675 611.547 493.03C613.139 492.954 614.366 494.3 613.855 495.897C613.473 497.09 612.237 498.804 611.266 498.882C604.592 499.429 597.886 499.572 591.193 499.933C589.814 500.007 588.453 500.46 587.083 500.739C587.895 503.081 589.976 502.281 591.487 502.279C605.781 502.245 620.049 504.264 634.388 502.546C637.87 502.128 642.918 501.632 643.603 506.871C644.143 510.993 639.761 511.773 636.911 513.336C626.667 518.959 615.244 523.905 623.092 539.251C624.073 541.168 621.526 542.939 621.569 544.428C621.956 557.662 610.387 568.007 612.858 581.804C613.552 585.685 611.115 589.733 607.17 590.95C598.552 593.609 591.847 601.206 582.005 600.592C581.074 600.535 579.921 600.6 579.2 601.094C565.109 610.731 546.345 615.304 541.626 635.183C539.834 642.732 535.413 643.675 528.671 641.747C517.99 638.692 512.709 630.565 507.343 621.791C501.785 612.7 499.374 604.471 507.887 595.934C509.217 594.602 509.124 592.931 507.264 591.191C503.018 587.22 495.515 574.207 494.388 569.88C490.935 556.605 477.717 545.767 464.621 549.266C450.15 553.132 444.942 543.5 437.675 535.877C434.72 532.779 437.31 530.611 439.98 529.277C443.802 527.365 448.303 527.377 452.005 524.735C455.005 522.594 455.208 520.766 453.678 517.616C452.064 514.291 450.088 515.461 447.902 516.336C434.897 521.544 423.355 527.924 419.085 543.053C417.655 548.125 413.65 552.264 412.337 558.073C411.209 563.071 404.363 561.932 399.748 562.682C398.065 562.956 395.151 561.364 395.003 563.694C394.893 565.422 398.389 564.596 399.888 565.458C410.261 571.41 423.125 567.787 433.479 575.284C441.723 581.253 451.437 584.382 455.449 595.604C457.406 601.082 464.993 603.063 470.707 605.464C473.378 606.585 477.251 607.452 474.335 610.905C472.051 613.61 470.967 620.094 464.857 616.872C462.8 615.786 461.268 613.722 459.451 612.156C458.396 611.247 456.967 610.032 455.795 611.058C454.501 612.189 455.761 613.598 456.661 614.622C457.926 616.063 459.473 617.283 460.595 618.817C462.642 621.619 468.008 624.24 463.809 628.099C460.642 631.014 456.654 635.703 451.291 633.188C440.725 628.235 431.259 620.259 418.316 622.56C417.089 622.777 415.884 621.152 415.863 619.588C415.836 617.839 417.082 617.123 418.641 616.999C421.025 616.808 423.548 617.156 425.777 616.493C431.897 614.669 435.656 607.106 433.477 601.654C430.944 595.323 415.602 587.96 408.34 588.792C403.192 589.384 406.552 591.411 406.204 593.599C405.223 599.767 410.137 609.54 397.01 610.068C392.349 610.256 396.039 614.096 397.917 615.836C401.33 618.999 409.314 619.498 408.378 624.104C407.488 628.496 399.705 622.111 395.759 626.584C394.117 628.445 391.055 628.639 389.093 627.037C381.394 620.755 376.744 627.276 371.828 631.171C357.202 642.761 357.806 649.167 374.785 657.349C378.625 659.198 382.165 661.981 386.275 662.981C396.981 665.59 406.103 669.58 408.793 681.829C409.268 683.987 411.932 687.896 415.151 684.875C416.922 683.211 416.934 680.438 415.567 678.43C411.373 672.273 412.166 668.187 419.359 665.039C422.569 663.635 421.593 659.938 420.249 657.372C417.86 652.814 418.777 648.005 418.557 643.272C417.999 631.135 424.815 626.694 435.744 632.46C439.899 634.653 444.68 637.226 447.007 640.971C450.912 647.255 453.981 650.513 461.537 645.828C466.449 642.782 469.943 647.458 471.531 651.262C475.003 659.585 481.354 664.946 487.817 670.69C492.739 675.065 500.527 678.994 495.892 688.357C494.393 691.381 497.777 692.049 499.632 693.3C502.854 695.474 505.868 697.882 506.584 702.03C506.914 703.937 505.68 707.3 505.446 707.119C500.171 703.035 493.873 706.923 488.684 704.842C485.185 703.439 484.989 699.73 486.299 696.111C488.311 690.553 485.397 690.696 481.254 691.722C478.5 692.405 475.464 692.841 472.698 692.424C462.726 690.923 463.287 694.312 466.318 702.264C469.008 709.322 471.762 708.77 476.779 705.937C479.125 704.613 481.595 704.911 482.693 707.663C483.736 710.276 482.108 713.334 480.116 713.656C472.638 714.868 466.533 723.878 457.649 717.544C454.976 715.639 450.484 717.086 450.026 719.212C448.212 727.652 441.1 729.874 435.233 733.747C434.126 734.478 433.317 735.974 432.832 737.287C428.515 748.929 422.345 758.894 412.116 766.72C406.917 770.696 406.581 777.611 411.915 783.327C414.533 786.131 415.273 790.002 411.746 792.022C408.251 794.019 407.76 789.005 405.662 787.453C403.425 785.799 401.535 783.398 400.117 780.962C395.938 773.782 389.52 773.009 382.685 775.2C378.501 776.541 374.46 777.556 370.1 777.558C361.517 777.563 353.856 777.138 355.846 790.57C356.589 795.58 349.424 801.208 355.978 807.604C360.751 812.261 365.064 814.471 371.085 810.712C373.117 809.445 375.016 807.958 377.071 806.729C380.064 804.936 383.788 803.561 386.642 805.33C391.022 808.046 386.733 811.461 385.575 813.817C381.852 821.409 382.585 825.343 392.115 825.264C397.199 825.223 400.036 828.622 400.153 833.62C400.263 838.302 398.277 844.191 404.266 846C410.512 847.885 418.44 848.525 423.314 844.63C433.806 836.245 444.143 838.021 455.423 841.556C458.456 842.505 461.607 842.954 464.778 843.162C483.075 844.369 493.145 861.649 509.942 865.731C515.67 885.555 536.141 882.49 549.321 890.722C552.736 892.856 557.123 893.951 560.818 896.23C567.942 900.632 569.906 906.281 564.5 912.914C559.094 919.546 557.696 927.315 555.395 935.17C551.612 948.08 549.283 962.992 530.724 964.166C525.721 964.483 523.122 969.19 521.642 974.214C515.704 994.377 513.558 996.504 491.775 1004.92C490.085 1005.57 489.596 1006.24 490.149 1007.79C493.572 1017.37 487.011 1019.98 480.068 1020.63C473.578 1021.24 473.247 1026.64 470.671 1030.15C466.041 1036.47 464.962 1045.07 458.06 1050.09C457.63 1050.4 458.112 1053.18 458.936 1053.81C463.399 1057.23 461.42 1059.44 458.583 1063.01C449.169 1074.85 449.339 1075.49 457.793 1087.81C459.143 1089.78 461.754 1091.24 457.513 1092.67C446.048 1096.53 435.283 1091.19 430.94 1079.78C427.55 1070.88 427.35 1061.15 429.718 1052.83C434.66 1035.45 433.94 1017.39 438.14 999.762C441.355 986.269 443.95 971.259 444.164 956.572C444.3 947.38 440.634 940.304 433.355 936C425.297 931.237 420.782 924.544 417.746 916.205C416.939 913.99 415.49 912.014 414.471 909.866C411.781 904.197 401.094 902.324 407.228 892.288C410.545 886.86 409.087 878.963 415.199 874.476C419.135 871.588 419.335 867.387 419.562 862.921C419.806 858.15 418.655 856.184 413.407 855.673C403.915 854.752 393.965 853.728 391.626 841.326C391.117 838.632 387.89 838.336 385.754 837.904C374.728 835.663 366.03 828.343 353.285 827.877C342.528 827.486 328.031 822.027 322.573 807.7C320.162 801.373 317.465 796.774 307.491 798.793C299.334 800.444 294.04 790.184 291.271 782.749C286.954 771.162 280.798 762.264 270.829 754.285C260.053 745.662 257.093 731.494 257.365 717.725C257.552 708.317 258.265 699.412 248.146 694.293C245.99 693.202 245.107 691.448 244.809 688.631C243.623 677.461 242.706 676.836 230.844 675.893C227.028 675.59 227.178 672.349 225.775 669.986C217.147 655.47 206.189 644.723 187.881 642.744C181.246 642.026 177.172 645.448 171.876 646.472C166.255 647.558 159.565 644.938 163.26 655.384C164.35 658.473 159.512 663.148 155.555 661.869C148.321 659.528 144.875 663.404 141.166 668.001C140.283 669.096 139.156 670.783 138.089 670.824C124.981 671.323 114.146 680.015 101.202 680.963L100.362 678.473ZM372.852 571.319C370.501 571.715 368.152 572.178 366.522 574.133C364.663 576.362 365.362 578.701 366.916 580.568C371.947 586.609 375.687 594.093 384.587 595.893C386.315 596.241 384.138 601.499 387.864 600.58C389.683 600.134 391.556 597.437 392.215 595.377C393.065 592.721 390.647 590.869 388.394 590.313C380.673 588.408 377.947 582.94 377.119 575.79C376.835 573.348 376.09 571.076 372.852 571.319Z" fill="black"/>
</g>
<g filter="url(#filter1_d_2031_23)">
<path d="M1174.92 926.547C1174.79 919.506 1175.05 913.477 1167.49 911.651C1166.57 911.429 1164.89 910.928 1164.92 910.713C1166.59 896.152 1153.76 898.5 1146.31 894.555C1144.66 893.681 1143.28 892.197 1141.98 890.801C1139.66 888.302 1136.97 885.232 1139.64 882.02C1142.78 878.254 1147.79 879.509 1149.47 882.896C1152.98 889.984 1157.33 887.879 1163.35 887.347C1176.69 886.166 1187.39 893.309 1194.66 903.835C1197.49 907.923 1205.42 912.503 1202.96 915.214C1199.04 919.534 1194 912.933 1189.56 910.689C1185.98 908.885 1182.86 909.782 1180.49 912.522C1177.86 915.582 1179.61 918.613 1181.1 921.795C1188.39 937.294 1199.1 950.454 1209.34 963.954C1218.86 976.517 1219.39 983.455 1211.76 997.146C1210.35 999.673 1208.9 1002.19 1207.7 1004.82C1198.48 1025.05 1183.2 1027.55 1167.52 1012.7C1160.11 1005.68 1151.17 1000.17 1142.59 994.504C1137.23 990.966 1131.74 992.663 1126.34 995.671C1117.55 1000.56 1108.34 1004.04 1098.04 1005.06C1086.8 1006.17 1086.66 1006.81 1085.08 995.425C1083.72 985.637 1077.87 977.095 1079.22 966.307C1080.31 957.693 1083.55 953.416 1091.51 951.154C1098.1 949.285 1104.27 948.087 1107.45 939.146C1109.22 934.189 1118.55 929.215 1126.31 929.58C1130.84 929.792 1133.37 929.093 1135.63 925.246C1139.18 919.21 1145.28 919.883 1151.06 920.317C1154.82 920.599 1157.98 922.317 1157.05 926.582C1154.96 936.198 1161.15 939.409 1168.22 939.022C1176.34 938.576 1174.15 930.719 1174.92 926.547ZM738.282 518.189C733.659 519.329 727.365 514.394 724.43 521.485C721.415 528.766 729.802 530.666 731.84 535.647C732.976 538.421 735.418 539.984 737.673 541.776C741.74 545.008 746.051 545.505 748.679 540.874C752.726 533.738 757.12 533.614 763.032 538.213C764.565 539.404 766.705 539.146 768.326 537.807C769.536 536.807 770.2 534.972 768.992 534.07C756.264 524.571 767.651 526.182 773.119 524.695C775.334 524.091 777.35 522.594 779.317 521.291C780.424 520.559 781.969 519.422 782.019 518.408C782.093 516.885 780.195 516.671 778.868 516.582C772.205 516.143 765.949 512.89 758.4 513.974C751.576 512.542 745.182 516.484 738.282 518.189ZM315.203 543.454C312.971 540.958 309.53 540.366 308.157 543.729C302.806 556.837 296.29 546.903 292.228 543.793C281.395 535.504 276.731 535.058 267.535 543.96C263.549 547.82 263.299 550.24 269.266 551.433C277.218 553.023 284.693 555.309 291.887 559.586C300.601 564.768 318.138 559.985 325.117 551.939C326.313 550.669 326.447 549.402 325.112 548.135C320.905 548.483 317.919 546.493 315.203 543.454ZM1062.92 875.702C1062.41 876.07 1062.31 877.557 1062.55 878.378C1064.39 884.874 1066.35 891.393 1074.11 893.266C1080.81 894.887 1085.72 893.068 1089.98 887.018C1095.32 879.437 1092.89 870.44 1095.95 862.489C1097.08 859.554 1093.31 857.998 1088.36 857.964C1080.66 863.296 1071.75 869.435 1062.92 875.702ZM857.465 923.795C851.491 927.993 843.209 931.277 840.14 937.664C836.605 945.022 835.331 953.925 835.842 962.538C836.021 965.562 837.615 967.978 840.892 968.56C844.859 969.266 849.57 969.006 850.704 964.939C853.847 953.674 859.938 943.339 861.489 932.308C860.155 928.561 861.403 921.026 857.465 923.795ZM887.225 585.847C877.347 574.878 877.359 572.565 888.564 563.264C895.175 557.777 902.388 553.211 910.985 551.183C914.656 550.316 918.241 548.918 921.682 547.357C922.599 546.941 923.341 545.01 923.281 543.822C923.164 541.571 921.296 540.404 919.262 540.903C900.748 545.431 882.223 549.982 870.229 566.878C865.435 573.632 867.084 580.976 874.421 584.63C878.442 586.632 882.803 585.993 887.065 586.043L887.225 585.847ZM1277.09 1048.52C1280.54 1040.19 1286.83 1034.97 1293.82 1029.78C1302.31 1023.47 1301.7 1018.92 1292.95 1011.98C1291.1 1010.52 1289.24 1008.11 1286.85 1009.21C1283.96 1010.53 1285.8 1013.29 1286.18 1015.49C1287.28 1021.84 1286.43 1026.19 1279.45 1029.87C1273.53 1033.01 1269.31 1039.68 1264.86 1045.2C1261.36 1049.56 1263.25 1054.16 1268.7 1054.48C1272.44 1054.53 1275.66 1051.97 1277.09 1048.52ZM1174.82 732.108C1172.89 731 1170.87 731.389 1169.87 733.201C1163.76 744.194 1153.58 749.564 1142.49 754.089C1137.96 755.939 1134.8 759.753 1135.04 765.247C1135.13 767.371 1136.31 769.245 1138.53 768.257C1148.67 763.756 1159.12 759.71 1168.56 754.013C1174.25 750.586 1176.17 743.368 1177.49 737.769C1177.64 734.599 1176.56 733.108 1174.82 732.108ZM1020.33 510.451C1013.46 505.966 1009.22 510.236 1006.65 515.546C1003.98 521.069 1005.93 525.943 1012.41 527.8C1017.46 529.249 1022.6 530.409 1027.7 531.697C1030.66 529.318 1032.37 526.065 1033.97 522.73C1030.82 517.086 1025.52 513.838 1020.33 510.451ZM1161.15 551.075C1158.33 556.037 1164.37 556.794 1166.5 559.419C1167.4 560.522 1168.41 561.548 1169.18 562.734C1171.33 566.064 1173.92 569.553 1178.2 568.15C1183.51 566.415 1176.95 562.476 1179.02 559.78C1180.16 558.295 1181.12 556.662 1182.33 555.242C1185.19 551.879 1183.3 550.039 1180.15 549.173C1177.45 548.428 1174.54 548.419 1172.65 548.197C1167.97 548.598 1163.23 547.435 1161.15 551.075ZM1107.26 841.878C1111.91 845.887 1116.12 842.699 1118.47 839.863C1121.01 836.796 1118.21 833.235 1114.49 832.498C1107.77 831.164 1107.36 827.875 1109.7 822.245C1110.69 819.855 1107.86 817.805 1105.59 817.192C1102.56 816.371 1101.48 819.104 1100.73 821.307C1100.12 823.078 1100.19 825.082 1099.96 826.982C1099.49 833.398 1102.68 837.916 1107.26 841.878ZM1095.96 888.149C1096.31 892.407 1096.92 898.503 1101.55 899.562C1104.04 900.135 1110.43 897.882 1110.01 892.268C1109.7 888.159 1108.73 883.612 1102.98 883.008C1099.55 883.175 1095.65 884.342 1095.96 888.149Z" fill="black"/>
</g>
<path d="M939 770.822C932.371 770.822 927 776.171 927 782.798C927 794.255 939 809.198 939 809.198C939 809.198 951 794.253 951 782.798C951 776.174 945.629 770.822 939 770.822ZM939 789.424C937.281 789.424 935.633 788.741 934.418 787.526C933.203 786.311 932.52 784.663 932.52 782.944C932.52 781.225 933.203 779.577 934.418 778.362C935.633 777.147 937.281 776.464 939 776.464C940.719 776.464 942.367 777.147 943.582 778.362C944.797 779.577 945.48 781.225 945.48 782.944C945.48 784.663 944.797 786.311 943.582 787.526C942.367 788.741 940.719 789.424 939 789.424Z" fill="url(#paint0_linear_2031_23)"/>
<path d="M690 751.822C683.371 751.822 678 757.171 678 763.798C678 775.255 690 790.198 690 790.198C690 790.198 702 775.253 702 763.798C702 757.174 696.629 751.822 690 751.822ZM690 770.424C688.281 770.424 686.633 769.741 685.418 768.526C684.203 767.311 683.52 765.663 683.52 763.944C683.52 762.225 684.203 760.577 685.418 759.362C686.633 758.147 688.281 757.464 690 757.464C691.719 757.464 693.367 758.147 694.582 759.362C695.797 760.577 696.48 762.225 696.48 763.944C696.48 765.663 695.797 767.311 694.582 768.526C693.367 769.741 691.719 770.424 690 770.424Z" fill="url(#paint1_linear_2031_23)"/>
<path d="M1126 928.822C1119.37 928.822 1114 934.171 1114 940.798C1114 952.255 1126 967.198 1126 967.198C1126 967.198 1138 952.253 1138 940.798C1138 934.174 1132.63 928.822 1126 928.822ZM1126 947.424C1124.28 947.424 1122.63 946.741 1121.42 945.526C1120.2 944.311 1119.52 942.663 1119.52 940.944C1119.52 939.225 1120.2 937.577 1121.42 936.362C1122.63 935.147 1124.28 934.464 1126 934.464C1127.72 934.464 1129.37 935.147 1130.58 936.362C1131.8 937.577 1132.48 939.225 1132.48 940.944C1132.48 942.663 1131.8 944.311 1130.58 945.526C1129.37 946.741 1127.72 947.424 1126 947.424Z" fill="url(#paint2_linear_2031_23)"/>
<path d="M271 626.822C264.371 626.822 259 632.171 259 638.798C259 650.255 271 665.198 271 665.198C271 665.198 283 650.253 283 638.798C283 632.174 277.629 626.822 271 626.822ZM271 645.424C269.281 645.424 267.633 644.741 266.418 643.526C265.203 642.311 264.52 640.663 264.52 638.944C264.52 637.225 265.203 635.577 266.418 634.362C267.633 633.147 269.281 632.464 271 632.464C272.719 632.464 274.367 633.147 275.582 634.362C276.797 635.577 277.48 637.225 277.48 638.944C277.48 640.663 276.797 642.311 275.582 643.526C274.367 644.741 272.719 645.424 271 645.424Z" fill="url(#paint3_linear_2031_23)"/>
<path d="M405 708.822C398.371 708.822 393 714.171 393 720.798C393 732.255 405 747.198 405 747.198C405 747.198 417 732.253 417 720.798C417 714.174 411.629 708.822 405 708.822ZM405 727.424C403.281 727.424 401.633 726.741 400.418 725.526C399.203 724.311 398.52 722.663 398.52 720.944C398.52 719.225 399.203 717.577 400.418 716.362C401.633 715.147 403.281 714.464 405 714.464C406.719 714.464 408.367 715.147 409.582 716.362C410.797 717.577 411.48 719.225 411.48 720.944C411.48 722.663 410.797 724.311 409.582 725.526C408.367 726.741 406.719 727.424 405 727.424Z" fill="url(#paint4_linear_2031_23)"/>
</g>
<defs>
<filter id="filter0_d_2031_23" x="100.362" y="486.078" width="1234.65" height="615.836" filterUnits="userSpaceOnUse" color-interpolation-filters="sRGB">
<feFlood flood-opacity="0" result="BackgroundImageFix"/>
<feColorMatrix in="SourceAlpha" type="matrix" values="0 0 0 0 0 0 0 0 0 0 0 0 0 0 0 0 0 0 127 0" result="hardAlpha"/>
<feOffset dx="4" dy="4"/>
<feGaussianBlur stdDeviation="2"/>
<feComposite in2="hardAlpha" operator="out"/>
<feColorMatrix type="matrix" values="0 0 0 0 0 0 0 0 0 0 0 0 0 0 0 0 0 0 0.25 0"/>
<feBlend mode="normal" in2="BackgroundImageFix" result="effect1_dropShadow_2031_23"/>
<feBlend mode="normal" in="SourceGraphic" in2="effect1_dropShadow_2031_23" result="shape"/>
</filter>
<filter id="filter1_d_2031_23" x="264.647" y="508.569" width="1043.22" height="553.911" filterUnits="userSpaceOnUse" color-interpolation-filters="sRGB">
<feFlood flood-opacity="0" result="BackgroundImageFix"/>
<feColorMatrix in="SourceAlpha" type="matrix" values="0 0 0 0 0 0 0 0 0 0 0 0 0 0 0 0 0 0 127 0" result="hardAlpha"/>
<feOffset dx="4" dy="4"/>
<feGaussianBlur stdDeviation="2"/>
<feComposite in2="hardAlpha" operator="out"/>
<feColorMatrix type="matrix" values="0 0 0 0 0 0 0 0 0 0 0 0 0 0 0 0 0 0 0.25 0"/>
<feBlend mode="normal" in2="BackgroundImageFix" result="effect1_dropShadow_2031_23"/>
<feBlend mode="normal" in="SourceGraphic" in2="effect1_dropShadow_2031_23" result="shape"/>
</filter>
<linearGradient id="paint0_linear_2031_23" x1="939" y1="770.822" x2="939" y2="809.198" gradientUnits="userSpaceOnUse">
<stop stop-color="#2B92D5"/>
<stop offset="1" stop-color="#3FD9D7"/>
</linearGradient>
<linearGradient id="paint1_linear_2031_23" x1="690" y1="751.822" x2="690" y2="790.198" gradientUnits="userSpaceOnUse">
<stop stop-color="#2B92D5"/>
<stop offset="1" stop-color="#3FD9D7"/>
</linearGradient>
<linearGradient id="paint2_linear_2031_23" x1="1126" y1="928.822" x2="1126" y2="967.198" gradientUnits="userSpaceOnUse">
<stop stop-color="#2B92D5"/>
<stop offset="1" stop-color="#3FD9D7"/>
</linearGradient>
<linearGradient id="paint3_linear_2031_23" x1="271" y1="626.822" x2="271" y2="665.198" gradientUnits="userSpaceOnUse">
<stop stop-color="#2B92D5"/>
<stop offset="1" stop-color="#3FD9D7"/>
</linearGradient>
<linearGradient id="paint4_linear_2031_23" x1="405" y1="708.822" x2="405" y2="747.198" gradientUnits="userSpaceOnUse">
<stop stop-color="#2B92D5"/>
<stop offset="1" stop-color="#3FD9D7"/>
</linearGradient>
<clipPath id="clip0_2031_23">
<rect width="1222" height="1222" fill="white" transform="translate(109 179)"/>
</clipPath>
</defs>
</svg>
