<svg width="1377" height="544" viewBox="0 0 1377 544" fill="none" xmlns="http://www.w3.org/2000/svg">
<path fill-rule="evenodd" clip-rule="evenodd" d="M190 124V0H164V124H-95V150H55V394H164V544H190V394H299V150H449V124H190Z" fill="black" fill-opacity="0.1"/>
<path d="M235 173.5C234.172 173.5 233.5 174.172 233.5 175C233.5 175.828 234.172 176.5 235 176.5V173.5ZM471.061 176.061C471.646 175.475 471.646 174.525 471.061 173.939L461.515 164.393C460.929 163.808 459.979 163.808 459.393 164.393C458.808 164.979 458.808 165.929 459.393 166.515L467.879 175L459.393 183.485C458.808 184.071 458.808 185.021 459.393 185.607C459.979 186.192 460.929 186.192 461.515 185.607L471.061 176.061ZM237.043 176.5C237.872 176.5 238.543 175.828 238.543 175C238.543 174.172 237.872 173.5 237.043 173.5V176.5ZM243.174 173.5C242.345 173.5 241.674 174.172 241.674 175C241.674 175.828 242.345 176.5 243.174 176.5V173.5ZM247.261 176.5C248.089 176.5 248.761 175.828 248.761 175C248.761 174.172 248.089 173.5 247.261 173.5V176.5ZM253.391 173.5C252.563 173.5 251.891 174.172 251.891 175C251.891 175.828 252.563 176.5 253.391 176.5V173.5ZM257.478 176.5C258.307 176.5 258.978 175.828 258.978 175C258.978 174.172 258.307 173.5 257.478 173.5V176.5ZM263.609 173.5C262.78 173.5 262.109 174.172 262.109 175C262.109 175.828 262.78 176.5 263.609 176.5V173.5ZM267.696 176.5C268.524 176.5 269.196 175.828 269.196 175C269.196 174.172 268.524 173.5 267.696 173.5V176.5ZM273.826 173.5C272.998 173.5 272.326 174.172 272.326 175C272.326 175.828 272.998 176.5 273.826 176.5V173.5ZM277.913 176.5C278.741 176.5 279.413 175.828 279.413 175C279.413 174.172 278.741 173.5 277.913 173.5V176.5ZM284.043 173.5C283.215 173.5 282.543 174.172 282.543 175C282.543 175.828 283.215 176.5 284.043 176.5V173.5ZM288.13 176.5C288.959 176.5 289.63 175.828 289.63 175C289.63 174.172 288.959 173.5 288.13 173.5V176.5ZM294.261 173.5C293.432 173.5 292.761 174.172 292.761 175C292.761 175.828 293.432 176.5 294.261 176.5V173.5ZM298.348 176.5C299.176 176.5 299.848 175.828 299.848 175C299.848 174.172 299.176 173.5 298.348 173.5V176.5ZM304.478 173.5C303.65 173.5 302.978 174.172 302.978 175C302.978 175.828 303.65 176.5 304.478 176.5V173.5ZM308.565 176.5C309.394 176.5 310.065 175.828 310.065 175C310.065 174.172 309.394 173.5 308.565 173.5V176.5ZM314.696 173.5C313.867 173.5 313.196 174.172 313.196 175C313.196 175.828 313.867 176.5 314.696 176.5V173.5ZM318.783 176.5C319.611 176.5 320.283 175.828 320.283 175C320.283 174.172 319.611 173.5 318.783 173.5V176.5ZM324.913 173.5C324.085 173.5 323.413 174.172 323.413 175C323.413 175.828 324.085 176.5 324.913 176.5V173.5ZM329 176.5C329.828 176.5 330.5 175.828 330.5 175C330.5 174.172 329.828 173.5 329 173.5V176.5ZM335.13 173.5C334.302 173.5 333.63 174.172 333.63 175C333.63 175.828 334.302 176.5 335.13 176.5V173.5ZM339.217 176.5C340.046 176.5 340.717 175.828 340.717 175C340.717 174.172 340.046 173.5 339.217 173.5V176.5ZM345.348 173.5C344.519 173.5 343.848 174.172 343.848 175C343.848 175.828 344.519 176.5 345.348 176.5V173.5ZM349.435 176.5C350.263 176.5 350.935 175.828 350.935 175C350.935 174.172 350.263 173.5 349.435 173.5V176.5ZM355.565 173.5C354.737 173.5 354.065 174.172 354.065 175C354.065 175.828 354.737 176.5 355.565 176.5V173.5ZM359.652 176.5C360.481 176.5 361.152 175.828 361.152 175C361.152 174.172 360.481 173.5 359.652 173.5V176.5ZM365.783 173.5C364.954 173.5 364.283 174.172 364.283 175C364.283 175.828 364.954 176.5 365.783 176.5V173.5ZM369.87 176.5C370.698 176.5 371.37 175.828 371.37 175C371.37 174.172 370.698 173.5 369.87 173.5V176.5ZM376 173.5C375.172 173.5 374.5 174.172 374.5 175C374.5 175.828 375.172 176.5 376 176.5V173.5ZM380.087 176.5C380.915 176.5 381.587 175.828 381.587 175C381.587 174.172 380.915 173.5 380.087 173.5V176.5ZM386.217 173.5C385.389 173.5 384.717 174.172 384.717 175C384.717 175.828 385.389 176.5 386.217 176.5V173.5ZM390.304 176.5C391.133 176.5 391.804 175.828 391.804 175C391.804 174.172 391.133 173.5 390.304 173.5V176.5ZM396.435 173.5C395.606 173.5 394.935 174.172 394.935 175C394.935 175.828 395.606 176.5 396.435 176.5V173.5ZM400.522 176.5C401.35 176.5 402.022 175.828 402.022 175C402.022 174.172 401.35 173.5 400.522 173.5V176.5ZM406.652 173.5C405.824 173.5 405.152 174.172 405.152 175C405.152 175.828 405.824 176.5 406.652 176.5V173.5ZM410.739 176.5C411.568 176.5 412.239 175.828 412.239 175C412.239 174.172 411.568 173.5 410.739 173.5V176.5ZM416.87 173.5C416.041 173.5 415.37 174.172 415.37 175C415.37 175.828 416.041 176.5 416.87 176.5V173.5ZM420.957 176.5C421.785 176.5 422.457 175.828 422.457 175C422.457 174.172 421.785 173.5 420.957 173.5V176.5ZM427.087 173.5C426.259 173.5 425.587 174.172 425.587 175C425.587 175.828 426.259 176.5 427.087 176.5V173.5ZM431.174 176.5C432.002 176.5 432.674 175.828 432.674 175C432.674 174.172 432.002 173.5 431.174 173.5V176.5ZM437.304 173.5C436.476 173.5 435.804 174.172 435.804 175C435.804 175.828 436.476 176.5 437.304 176.5V173.5ZM441.391 176.5C442.22 176.5 442.891 175.828 442.891 175C442.891 174.172 442.22 173.5 441.391 173.5V176.5ZM447.522 173.5C446.693 173.5 446.022 174.172 446.022 175C446.022 175.828 446.693 176.5 447.522 176.5V173.5ZM451.609 176.5C452.437 176.5 453.109 175.828 453.109 175C453.109 174.172 452.437 173.5 451.609 173.5V176.5ZM457.739 173.5C456.911 173.5 456.239 174.172 456.239 175C456.239 175.828 456.911 176.5 457.739 176.5V173.5ZM461.826 176.5C462.655 176.5 463.326 175.828 463.326 175C463.326 174.172 462.655 173.5 461.826 173.5V176.5ZM467.957 173.5C467.128 173.5 466.457 174.172 466.457 175C466.457 175.828 467.128 176.5 467.957 176.5V173.5ZM235 176.5H237.043V173.5H235V176.5ZM243.174 176.5H247.261V173.5H243.174V176.5ZM253.391 176.5H257.478V173.5H253.391V176.5ZM263.609 176.5H267.696V173.5H263.609V176.5ZM273.826 176.5H277.913V173.5H273.826V176.5ZM284.043 176.5H288.13V173.5H284.043V176.5ZM294.261 176.5H298.348V173.5H294.261V176.5ZM304.478 176.5H308.565V173.5H304.478V176.5ZM314.696 176.5H318.783V173.5H314.696V176.5ZM324.913 176.5H329V173.5H324.913V176.5ZM335.13 176.5H339.217V173.5H335.13V176.5ZM345.348 176.5H349.435V173.5H345.348V176.5ZM355.565 176.5H359.652V173.5H355.565V176.5ZM365.783 176.5H369.87V173.5H365.783V176.5ZM376 176.5H380.087V173.5H376V176.5ZM386.217 176.5H390.304V173.5H386.217V176.5ZM396.435 176.5H400.522V173.5H396.435V176.5ZM406.652 176.5H410.739V173.5H406.652V176.5ZM416.87 176.5H420.957V173.5H416.87V176.5ZM427.087 176.5H431.174V173.5H427.087V176.5ZM437.304 176.5H441.391V173.5H437.304V176.5ZM447.522 176.5H451.609V173.5H447.522V176.5ZM457.739 176.5H461.826V173.5H457.739V176.5ZM467.957 176.5H470V173.5H467.957V176.5ZM235 173.5C234.172 173.5 233.5 174.172 233.5 175C233.5 175.828 234.172 176.5 235 176.5V173.5ZM471.061 176.061C471.646 175.475 471.646 174.525 471.061 173.939L461.515 164.393C460.929 163.808 459.979 163.808 459.393 164.393C458.808 164.979 458.808 165.929 459.393 166.515L467.879 175L459.393 183.485C458.808 184.071 458.808 185.021 459.393 185.607C459.979 186.192 460.929 186.192 461.515 185.607L471.061 176.061ZM237.043 176.5C237.872 176.5 238.543 175.828 238.543 175C238.543 174.172 237.872 173.5 237.043 173.5V176.5ZM243.174 173.5C242.345 173.5 241.674 174.172 241.674 175C241.674 175.828 242.345 176.5 243.174 176.5V173.5ZM247.261 176.5C248.089 176.5 248.761 175.828 248.761 175C248.761 174.172 248.089 173.5 247.261 173.5V176.5ZM253.391 173.5C252.563 173.5 251.891 174.172 251.891 175C251.891 175.828 252.563 176.5 253.391 176.5V173.5ZM257.478 176.5C258.307 176.5 258.978 175.828 258.978 175C258.978 174.172 258.307 173.5 257.478 173.5V176.5ZM263.609 173.5C262.78 173.5 262.109 174.172 262.109 175C262.109 175.828 262.78 176.5 263.609 176.5V173.5ZM267.696 176.5C268.524 176.5 269.196 175.828 269.196 175C269.196 174.172 268.524 173.5 267.696 173.5V176.5ZM273.826 173.5C272.998 173.5 272.326 174.172 272.326 175C272.326 175.828 272.998 176.5 273.826 176.5V173.5ZM277.913 176.5C278.741 176.5 279.413 175.828 279.413 175C279.413 174.172 278.741 173.5 277.913 173.5V176.5ZM284.043 173.5C283.215 173.5 282.543 174.172 282.543 175C282.543 175.828 283.215 176.5 284.043 176.5V173.5ZM288.13 176.5C288.959 176.5 289.63 175.828 289.63 175C289.63 174.172 288.959 173.5 288.13 173.5V176.5ZM294.261 173.5C293.432 173.5 292.761 174.172 292.761 175C292.761 175.828 293.432 176.5 294.261 176.5V173.5ZM298.348 176.5C299.176 176.5 299.848 175.828 299.848 175C299.848 174.172 299.176 173.5 298.348 173.5V176.5ZM304.478 173.5C303.65 173.5 302.978 174.172 302.978 175C302.978 175.828 303.65 176.5 304.478 176.5V173.5ZM308.565 176.5C309.394 176.5 310.065 175.828 310.065 175C310.065 174.172 309.394 173.5 308.565 173.5V176.5ZM314.696 173.5C313.867 173.5 313.196 174.172 313.196 175C313.196 175.828 313.867 176.5 314.696 176.5V173.5ZM318.783 176.5C319.611 176.5 320.283 175.828 320.283 175C320.283 174.172 319.611 173.5 318.783 173.5V176.5ZM324.913 173.5C324.085 173.5 323.413 174.172 323.413 175C323.413 175.828 324.085 176.5 324.913 176.5V173.5ZM329 176.5C329.828 176.5 330.5 175.828 330.5 175C330.5 174.172 329.828 173.5 329 173.5V176.5ZM335.13 173.5C334.302 173.5 333.63 174.172 333.63 175C333.63 175.828 334.302 176.5 335.13 176.5V173.5ZM339.217 176.5C340.046 176.5 340.717 175.828 340.717 175C340.717 174.172 340.046 173.5 339.217 173.5V176.5ZM345.348 173.5C344.519 173.5 343.848 174.172 343.848 175C343.848 175.828 344.519 176.5 345.348 176.5V173.5ZM349.435 176.5C350.263 176.5 350.935 175.828 350.935 175C350.935 174.172 350.263 173.5 349.435 173.5V176.5ZM355.565 173.5C354.737 173.5 354.065 174.172 354.065 175C354.065 175.828 354.737 176.5 355.565 176.5V173.5ZM359.652 176.5C360.481 176.5 361.152 175.828 361.152 175C361.152 174.172 360.481 173.5 359.652 173.5V176.5ZM365.783 173.5C364.954 173.5 364.283 174.172 364.283 175C364.283 175.828 364.954 176.5 365.783 176.5V173.5ZM369.87 176.5C370.698 176.5 371.37 175.828 371.37 175C371.37 174.172 370.698 173.5 369.87 173.5V176.5ZM376 173.5C375.172 173.5 374.5 174.172 374.5 175C374.5 175.828 375.172 176.5 376 176.5V173.5ZM380.087 176.5C380.915 176.5 381.587 175.828 381.587 175C381.587 174.172 380.915 173.5 380.087 173.5V176.5ZM386.217 173.5C385.389 173.5 384.717 174.172 384.717 175C384.717 175.828 385.389 176.5 386.217 176.5V173.5ZM390.304 176.5C391.133 176.5 391.804 175.828 391.804 175C391.804 174.172 391.133 173.5 390.304 173.5V176.5ZM396.435 173.5C395.606 173.5 394.935 174.172 394.935 175C394.935 175.828 395.606 176.5 396.435 176.5V173.5ZM400.522 176.5C401.35 176.5 402.022 175.828 402.022 175C402.022 174.172 401.35 173.5 400.522 173.5V176.5ZM406.652 173.5C405.824 173.5 405.152 174.172 405.152 175C405.152 175.828 405.824 176.5 406.652 176.5V173.5ZM410.739 176.5C411.568 176.5 412.239 175.828 412.239 175C412.239 174.172 411.568 173.5 410.739 173.5V176.5ZM416.87 173.5C416.041 173.5 415.37 174.172 415.37 175C415.37 175.828 416.041 176.5 416.87 176.5V173.5ZM420.957 176.5C421.785 176.5 422.457 175.828 422.457 175C422.457 174.172 421.785 173.5 420.957 173.5V176.5ZM427.087 173.5C426.259 173.5 425.587 174.172 425.587 175C425.587 175.828 426.259 176.5 427.087 176.5V173.5ZM431.174 176.5C432.002 176.5 432.674 175.828 432.674 175C432.674 174.172 432.002 173.5 431.174 173.5V176.5ZM437.304 173.5C436.476 173.5 435.804 174.172 435.804 175C435.804 175.828 436.476 176.5 437.304 176.5V173.5ZM441.391 176.5C442.22 176.5 442.891 175.828 442.891 175C442.891 174.172 442.22 173.5 441.391 173.5V176.5ZM447.522 173.5C446.693 173.5 446.022 174.172 446.022 175C446.022 175.828 446.693 176.5 447.522 176.5V173.5ZM451.609 176.5C452.437 176.5 453.109 175.828 453.109 175C453.109 174.172 452.437 173.5 451.609 173.5V176.5ZM457.739 173.5C456.911 173.5 456.239 174.172 456.239 175C456.239 175.828 456.911 176.5 457.739 176.5V173.5ZM461.826 176.5C462.655 176.5 463.326 175.828 463.326 175C463.326 174.172 462.655 173.5 461.826 173.5V176.5ZM467.957 173.5C467.128 173.5 466.457 174.172 466.457 175C466.457 175.828 467.128 176.5 467.957 176.5V173.5ZM235 176.5H237.043V173.5H235V176.5ZM243.174 176.5H247.261V173.5H243.174V176.5ZM253.391 176.5H257.478V173.5H253.391V176.5ZM263.609 176.5H267.696V173.5H263.609V176.5ZM273.826 176.5H277.913V173.5H273.826V176.5ZM284.043 176.5H288.13V173.5H284.043V176.5ZM294.261 176.5H298.348V173.5H294.261V176.5ZM304.478 176.5H308.565V173.5H304.478V176.5ZM314.696 176.5H318.783V173.5H314.696V176.5ZM324.913 176.5H329V173.5H324.913V176.5ZM335.13 176.5H339.217V173.5H335.13V176.5ZM345.348 176.5H349.435V173.5H345.348V176.5ZM355.565 176.5H359.652V173.5H355.565V176.5ZM365.783 176.5H369.87V173.5H365.783V176.5ZM376 176.5H380.087V173.5H376V176.5ZM386.217 176.5H390.304V173.5H386.217V176.5ZM396.435 176.5H400.522V173.5H396.435V176.5ZM406.652 176.5H410.739V173.5H406.652V176.5ZM416.87 176.5H420.957V173.5H416.87V176.5ZM427.087 176.5H431.174V173.5H427.087V176.5ZM437.304 176.5H441.391V173.5H437.304V176.5ZM447.522 176.5H451.609V173.5H447.522V176.5ZM457.739 176.5H461.826V173.5H457.739V176.5ZM467.957 176.5H470V173.5H467.957V176.5Z" fill="#FE4D00"/>
<path d="M628 173.5C627.172 173.5 626.5 174.172 626.5 175C626.5 175.828 627.172 176.5 628 176.5V173.5ZM864.061 176.061C864.646 175.475 864.646 174.525 864.061 173.939L854.515 164.393C853.929 163.808 852.979 163.808 852.393 164.393C851.808 164.979 851.808 165.929 852.393 166.515L860.879 175L852.393 183.485C851.808 184.071 851.808 185.021 852.393 185.607C852.979 186.192 853.929 186.192 854.515 185.607L864.061 176.061ZM630.043 176.5C630.872 176.5 631.543 175.828 631.543 175C631.543 174.172 630.872 173.5 630.043 173.5V176.5ZM636.174 173.5C635.345 173.5 634.674 174.172 634.674 175C634.674 175.828 635.345 176.5 636.174 176.5V173.5ZM640.261 176.5C641.089 176.5 641.761 175.828 641.761 175C641.761 174.172 641.089 173.5 640.261 173.5V176.5ZM646.391 173.5C645.563 173.5 644.891 174.172 644.891 175C644.891 175.828 645.563 176.5 646.391 176.5V173.5ZM650.478 176.5C651.307 176.5 651.978 175.828 651.978 175C651.978 174.172 651.307 173.5 650.478 173.5V176.5ZM656.609 173.5C655.78 173.5 655.109 174.172 655.109 175C655.109 175.828 655.78 176.5 656.609 176.5V173.5ZM660.696 176.5C661.524 176.5 662.196 175.828 662.196 175C662.196 174.172 661.524 173.5 660.696 173.5V176.5ZM666.826 173.5C665.998 173.5 665.326 174.172 665.326 175C665.326 175.828 665.998 176.5 666.826 176.5V173.5ZM670.913 176.5C671.741 176.5 672.413 175.828 672.413 175C672.413 174.172 671.741 173.5 670.913 173.5V176.5ZM677.043 173.5C676.215 173.5 675.543 174.172 675.543 175C675.543 175.828 676.215 176.5 677.043 176.5V173.5ZM681.13 176.5C681.959 176.5 682.63 175.828 682.63 175C682.63 174.172 681.959 173.5 681.13 173.5V176.5ZM687.261 173.5C686.432 173.5 685.761 174.172 685.761 175C685.761 175.828 686.432 176.5 687.261 176.5V173.5ZM691.348 176.5C692.176 176.5 692.848 175.828 692.848 175C692.848 174.172 692.176 173.5 691.348 173.5V176.5ZM697.478 173.5C696.65 173.5 695.978 174.172 695.978 175C695.978 175.828 696.65 176.5 697.478 176.5V173.5ZM701.565 176.5C702.394 176.5 703.065 175.828 703.065 175C703.065 174.172 702.394 173.5 701.565 173.5V176.5ZM707.696 173.5C706.867 173.5 706.196 174.172 706.196 175C706.196 175.828 706.867 176.5 707.696 176.5V173.5ZM711.783 176.5C712.611 176.5 713.283 175.828 713.283 175C713.283 174.172 712.611 173.5 711.783 173.5V176.5ZM717.913 173.5C717.085 173.5 716.413 174.172 716.413 175C716.413 175.828 717.085 176.5 717.913 176.5V173.5ZM722 176.5C722.828 176.5 723.5 175.828 723.5 175C723.5 174.172 722.828 173.5 722 173.5V176.5ZM728.13 173.5C727.302 173.5 726.63 174.172 726.63 175C726.63 175.828 727.302 176.5 728.13 176.5V173.5ZM732.217 176.5C733.046 176.5 733.717 175.828 733.717 175C733.717 174.172 733.046 173.5 732.217 173.5V176.5ZM738.348 173.5C737.519 173.5 736.848 174.172 736.848 175C736.848 175.828 737.519 176.5 738.348 176.5V173.5ZM742.435 176.5C743.263 176.5 743.935 175.828 743.935 175C743.935 174.172 743.263 173.5 742.435 173.5V176.5ZM748.565 173.5C747.737 173.5 747.065 174.172 747.065 175C747.065 175.828 747.737 176.5 748.565 176.5V173.5ZM752.652 176.5C753.481 176.5 754.152 175.828 754.152 175C754.152 174.172 753.481 173.5 752.652 173.5V176.5ZM758.783 173.5C757.954 173.5 757.283 174.172 757.283 175C757.283 175.828 757.954 176.5 758.783 176.5V173.5ZM762.87 176.5C763.698 176.5 764.37 175.828 764.37 175C764.37 174.172 763.698 173.5 762.87 173.5V176.5ZM769 173.5C768.172 173.5 767.5 174.172 767.5 175C767.5 175.828 768.172 176.5 769 176.5V173.5ZM773.087 176.5C773.915 176.5 774.587 175.828 774.587 175C774.587 174.172 773.915 173.5 773.087 173.5V176.5ZM779.217 173.5C778.389 173.5 777.717 174.172 777.717 175C777.717 175.828 778.389 176.5 779.217 176.5V173.5ZM783.304 176.5C784.133 176.5 784.804 175.828 784.804 175C784.804 174.172 784.133 173.5 783.304 173.5V176.5ZM789.435 173.5C788.606 173.5 787.935 174.172 787.935 175C787.935 175.828 788.606 176.5 789.435 176.5V173.5ZM793.522 176.5C794.35 176.5 795.022 175.828 795.022 175C795.022 174.172 794.35 173.5 793.522 173.5V176.5ZM799.652 173.5C798.824 173.5 798.152 174.172 798.152 175C798.152 175.828 798.824 176.5 799.652 176.5V173.5ZM803.739 176.5C804.568 176.5 805.239 175.828 805.239 175C805.239 174.172 804.568 173.5 803.739 173.5V176.5ZM809.87 173.5C809.041 173.5 808.37 174.172 808.37 175C808.37 175.828 809.041 176.5 809.87 176.5V173.5ZM813.957 176.5C814.785 176.5 815.457 175.828 815.457 175C815.457 174.172 814.785 173.5 813.957 173.5V176.5ZM820.087 173.5C819.259 173.5 818.587 174.172 818.587 175C818.587 175.828 819.259 176.5 820.087 176.5V173.5ZM824.174 176.5C825.002 176.5 825.674 175.828 825.674 175C825.674 174.172 825.002 173.5 824.174 173.5V176.5ZM830.304 173.5C829.476 173.5 828.804 174.172 828.804 175C828.804 175.828 829.476 176.5 830.304 176.5V173.5ZM834.391 176.5C835.22 176.5 835.891 175.828 835.891 175C835.891 174.172 835.22 173.5 834.391 173.5V176.5ZM840.522 173.5C839.693 173.5 839.022 174.172 839.022 175C839.022 175.828 839.693 176.5 840.522 176.5V173.5ZM844.609 176.5C845.437 176.5 846.109 175.828 846.109 175C846.109 174.172 845.437 173.5 844.609 173.5V176.5ZM850.739 173.5C849.911 173.5 849.239 174.172 849.239 175C849.239 175.828 849.911 176.5 850.739 176.5V173.5ZM854.826 176.5C855.655 176.5 856.326 175.828 856.326 175C856.326 174.172 855.655 173.5 854.826 173.5V176.5ZM860.957 173.5C860.128 173.5 859.457 174.172 859.457 175C859.457 175.828 860.128 176.5 860.957 176.5V173.5ZM628 176.5H630.043V173.5H628V176.5ZM636.174 176.5H640.261V173.5H636.174V176.5ZM646.391 176.5H650.478V173.5H646.391V176.5ZM656.609 176.5H660.696V173.5H656.609V176.5ZM666.826 176.5H670.913V173.5H666.826V176.5ZM677.043 176.5H681.13V173.5H677.043V176.5ZM687.261 176.5H691.348V173.5H687.261V176.5ZM697.478 176.5H701.565V173.5H697.478V176.5ZM707.696 176.5H711.783V173.5H707.696V176.5ZM717.913 176.5H722V173.5H717.913V176.5ZM728.13 176.5H732.217V173.5H728.13V176.5ZM738.348 176.5H742.435V173.5H738.348V176.5ZM748.565 176.5H752.652V173.5H748.565V176.5ZM758.783 176.5H762.87V173.5H758.783V176.5ZM769 176.5H773.087V173.5H769V176.5ZM779.217 176.5H783.304V173.5H779.217V176.5ZM789.435 176.5H793.522V173.5H789.435V176.5ZM799.652 176.5H803.739V173.5H799.652V176.5ZM809.87 176.5H813.957V173.5H809.87V176.5ZM820.087 176.5H824.174V173.5H820.087V176.5ZM830.304 176.5H834.391V173.5H830.304V176.5ZM840.522 176.5H844.609V173.5H840.522V176.5ZM850.739 176.5H854.826V173.5H850.739V176.5ZM860.957 176.5H863V173.5H860.957V176.5ZM628 173.5C627.172 173.5 626.5 174.172 626.5 175C626.5 175.828 627.172 176.5 628 176.5V173.5ZM864.061 176.061C864.646 175.475 864.646 174.525 864.061 173.939L854.515 164.393C853.929 163.808 852.979 163.808 852.393 164.393C851.808 164.979 851.808 165.929 852.393 166.515L860.879 175L852.393 183.485C851.808 184.071 851.808 185.021 852.393 185.607C852.979 186.192 853.929 186.192 854.515 185.607L864.061 176.061ZM630.043 176.5C630.872 176.5 631.543 175.828 631.543 175C631.543 174.172 630.872 173.5 630.043 173.5V176.5ZM636.174 173.5C635.345 173.5 634.674 174.172 634.674 175C634.674 175.828 635.345 176.5 636.174 176.5V173.5ZM640.261 176.5C641.089 176.5 641.761 175.828 641.761 175C641.761 174.172 641.089 173.5 640.261 173.5V176.5ZM646.391 173.5C645.563 173.5 644.891 174.172 644.891 175C644.891 175.828 645.563 176.5 646.391 176.5V173.5ZM650.478 176.5C651.307 176.5 651.978 175.828 651.978 175C651.978 174.172 651.307 173.5 650.478 173.5V176.5ZM656.609 173.5C655.78 173.5 655.109 174.172 655.109 175C655.109 175.828 655.78 176.5 656.609 176.5V173.5ZM660.696 176.5C661.524 176.5 662.196 175.828 662.196 175C662.196 174.172 661.524 173.5 660.696 173.5V176.5ZM666.826 173.5C665.998 173.5 665.326 174.172 665.326 175C665.326 175.828 665.998 176.5 666.826 176.5V173.5ZM670.913 176.5C671.741 176.5 672.413 175.828 672.413 175C672.413 174.172 671.741 173.5 670.913 173.5V176.5ZM677.043 173.5C676.215 173.5 675.543 174.172 675.543 175C675.543 175.828 676.215 176.5 677.043 176.5V173.5ZM681.13 176.5C681.959 176.5 682.63 175.828 682.63 175C682.63 174.172 681.959 173.5 681.13 173.5V176.5ZM687.261 173.5C686.432 173.5 685.761 174.172 685.761 175C685.761 175.828 686.432 176.5 687.261 176.5V173.5ZM691.348 176.5C692.176 176.5 692.848 175.828 692.848 175C692.848 174.172 692.176 173.5 691.348 173.5V176.5ZM697.478 173.5C696.65 173.5 695.978 174.172 695.978 175C695.978 175.828 696.65 176.5 697.478 176.5V173.5ZM701.565 176.5C702.394 176.5 703.065 175.828 703.065 175C703.065 174.172 702.394 173.5 701.565 173.5V176.5ZM707.696 173.5C706.867 173.5 706.196 174.172 706.196 175C706.196 175.828 706.867 176.5 707.696 176.5V173.5ZM711.783 176.5C712.611 176.5 713.283 175.828 713.283 175C713.283 174.172 712.611 173.5 711.783 173.5V176.5ZM717.913 173.5C717.085 173.5 716.413 174.172 716.413 175C716.413 175.828 717.085 176.5 717.913 176.5V173.5ZM722 176.5C722.828 176.5 723.5 175.828 723.5 175C723.5 174.172 722.828 173.5 722 173.5V176.5ZM728.13 173.5C727.302 173.5 726.63 174.172 726.63 175C726.63 175.828 727.302 176.5 728.13 176.5V173.5ZM732.217 176.5C733.046 176.5 733.717 175.828 733.717 175C733.717 174.172 733.046 173.5 732.217 173.5V176.5ZM738.348 173.5C737.519 173.5 736.848 174.172 736.848 175C736.848 175.828 737.519 176.5 738.348 176.5V173.5ZM742.435 176.5C743.263 176.5 743.935 175.828 743.935 175C743.935 174.172 743.263 173.5 742.435 173.5V176.5ZM748.565 173.5C747.737 173.5 747.065 174.172 747.065 175C747.065 175.828 747.737 176.5 748.565 176.5V173.5ZM752.652 176.5C753.481 176.5 754.152 175.828 754.152 175C754.152 174.172 753.481 173.5 752.652 173.5V176.5ZM758.783 173.5C757.954 173.5 757.283 174.172 757.283 175C757.283 175.828 757.954 176.5 758.783 176.5V173.5ZM762.87 176.5C763.698 176.5 764.37 175.828 764.37 175C764.37 174.172 763.698 173.5 762.87 173.5V176.5ZM769 173.5C768.172 173.5 767.5 174.172 767.5 175C767.5 175.828 768.172 176.5 769 176.5V173.5ZM773.087 176.5C773.915 176.5 774.587 175.828 774.587 175C774.587 174.172 773.915 173.5 773.087 173.5V176.5ZM779.217 173.5C778.389 173.5 777.717 174.172 777.717 175C777.717 175.828 778.389 176.5 779.217 176.5V173.5ZM783.304 176.5C784.133 176.5 784.804 175.828 784.804 175C784.804 174.172 784.133 173.5 783.304 173.5V176.5ZM789.435 173.5C788.606 173.5 787.935 174.172 787.935 175C787.935 175.828 788.606 176.5 789.435 176.5V173.5ZM793.522 176.5C794.35 176.5 795.022 175.828 795.022 175C795.022 174.172 794.35 173.5 793.522 173.5V176.5ZM799.652 173.5C798.824 173.5 798.152 174.172 798.152 175C798.152 175.828 798.824 176.5 799.652 176.5V173.5ZM803.739 176.5C804.568 176.5 805.239 175.828 805.239 175C805.239 174.172 804.568 173.5 803.739 173.5V176.5ZM809.87 173.5C809.041 173.5 808.37 174.172 808.37 175C808.37 175.828 809.041 176.5 809.87 176.5V173.5ZM813.957 176.5C814.785 176.5 815.457 175.828 815.457 175C815.457 174.172 814.785 173.5 813.957 173.5V176.5ZM820.087 173.5C819.259 173.5 818.587 174.172 818.587 175C818.587 175.828 819.259 176.5 820.087 176.5V173.5ZM824.174 176.5C825.002 176.5 825.674 175.828 825.674 175C825.674 174.172 825.002 173.5 824.174 173.5V176.5ZM830.304 173.5C829.476 173.5 828.804 174.172 828.804 175C828.804 175.828 829.476 176.5 830.304 176.5V173.5ZM834.391 176.5C835.22 176.5 835.891 175.828 835.891 175C835.891 174.172 835.22 173.5 834.391 173.5V176.5ZM840.522 173.5C839.693 173.5 839.022 174.172 839.022 175C839.022 175.828 839.693 176.5 840.522 176.5V173.5ZM844.609 176.5C845.437 176.5 846.109 175.828 846.109 175C846.109 174.172 845.437 173.5 844.609 173.5V176.5ZM850.739 173.5C849.911 173.5 849.239 174.172 849.239 175C849.239 175.828 849.911 176.5 850.739 176.5V173.5ZM854.826 176.5C855.655 176.5 856.326 175.828 856.326 175C856.326 174.172 855.655 173.5 854.826 173.5V176.5ZM860.957 173.5C860.128 173.5 859.457 174.172 859.457 175C859.457 175.828 860.128 176.5 860.957 176.5V173.5ZM628 176.5H630.043V173.5H628V176.5ZM636.174 176.5H640.261V173.5H636.174V176.5ZM646.391 176.5H650.478V173.5H646.391V176.5ZM656.609 176.5H660.696V173.5H656.609V176.5ZM666.826 176.5H670.913V173.5H666.826V176.5ZM677.043 176.5H681.13V173.5H677.043V176.5ZM687.261 176.5H691.348V173.5H687.261V176.5ZM697.478 176.5H701.565V173.5H697.478V176.5ZM707.696 176.5H711.783V173.5H707.696V176.5ZM717.913 176.5H722V173.5H717.913V176.5ZM728.13 176.5H732.217V173.5H728.13V176.5ZM738.348 176.5H742.435V173.5H738.348V176.5ZM748.565 176.5H752.652V173.5H748.565V176.5ZM758.783 176.5H762.87V173.5H758.783V176.5ZM769 176.5H773.087V173.5H769V176.5ZM779.217 176.5H783.304V173.5H779.217V176.5ZM789.435 176.5H793.522V173.5H789.435V176.5ZM799.652 176.5H803.739V173.5H799.652V176.5ZM809.87 176.5H813.957V173.5H809.87V176.5ZM820.087 176.5H824.174V173.5H820.087V176.5ZM830.304 176.5H834.391V173.5H830.304V176.5ZM840.522 176.5H844.609V173.5H840.522V176.5ZM850.739 176.5H854.826V173.5H850.739V176.5ZM860.957 176.5H863V173.5H860.957V176.5Z" fill="#FE4D00"/>
<path d="M998 173.5C997.172 173.5 996.5 174.172 996.5 175C996.5 175.828 997.172 176.5 998 176.5V173.5ZM1221.06 176.061C1221.65 175.475 1221.65 174.525 1221.06 173.939L1211.51 164.393C1210.93 163.808 1209.98 163.808 1209.39 164.393C1208.81 164.979 1208.81 165.929 1209.39 166.515L1217.88 175L1209.39 183.485C1208.81 184.071 1208.81 185.021 1209.39 185.607C1209.98 186.192 1210.93 186.192 1211.51 185.607L1221.06 176.061ZM1000.02 176.5C1000.85 176.5 1001.52 175.828 1001.52 175C1001.52 174.172 1000.85 173.5 1000.02 173.5V176.5ZM1006.07 173.5C1005.24 173.5 1004.57 174.172 1004.57 175C1004.57 175.828 1005.24 176.5 1006.07 176.5V173.5ZM1010.11 176.5C1010.94 176.5 1011.61 175.828 1011.61 175C1011.61 174.172 1010.94 173.5 1010.11 173.5V176.5ZM1016.16 173.5C1015.34 173.5 1014.66 174.172 1014.66 175C1014.66 175.828 1015.34 176.5 1016.16 176.5V173.5ZM1020.2 176.5C1021.03 176.5 1021.7 175.828 1021.7 175C1021.7 174.172 1021.03 173.5 1020.2 173.5V176.5ZM1026.25 173.5C1025.43 173.5 1024.75 174.172 1024.75 175C1024.75 175.828 1025.43 176.5 1026.25 176.5V173.5ZM1030.29 176.5C1031.12 176.5 1031.79 175.828 1031.79 175C1031.79 174.172 1031.12 173.5 1030.29 173.5V176.5ZM1036.35 173.5C1035.52 173.5 1034.85 174.172 1034.85 175C1034.85 175.828 1035.52 176.5 1036.35 176.5V173.5ZM1040.38 176.5C1041.21 176.5 1041.88 175.828 1041.88 175C1041.88 174.172 1041.21 173.5 1040.38 173.5V176.5ZM1046.44 173.5C1045.61 173.5 1044.94 174.172 1044.94 175C1044.94 175.828 1045.61 176.5 1046.44 176.5V173.5ZM1050.47 176.5C1051.3 176.5 1051.97 175.828 1051.97 175C1051.97 174.172 1051.3 173.5 1050.47 173.5V176.5ZM1056.53 173.5C1055.7 173.5 1055.03 174.172 1055.03 175C1055.03 175.828 1055.7 176.5 1056.53 176.5V173.5ZM1060.56 176.5C1061.39 176.5 1062.06 175.828 1062.06 175C1062.06 174.172 1061.39 173.5 1060.56 173.5V176.5ZM1066.62 173.5C1065.79 173.5 1065.12 174.172 1065.12 175C1065.12 175.828 1065.79 176.5 1066.62 176.5V173.5ZM1070.65 176.5C1071.48 176.5 1072.15 175.828 1072.15 175C1072.15 174.172 1071.48 173.5 1070.65 173.5V176.5ZM1076.71 173.5C1075.88 173.5 1075.21 174.172 1075.21 175C1075.21 175.828 1075.88 176.5 1076.71 176.5V173.5ZM1080.75 176.5C1081.57 176.5 1082.25 175.828 1082.25 175C1082.25 174.172 1081.57 173.5 1080.75 173.5V176.5ZM1086.8 173.5C1085.97 173.5 1085.3 174.172 1085.3 175C1085.3 175.828 1085.97 176.5 1086.8 176.5V173.5ZM1090.84 176.5C1091.66 176.5 1092.34 175.828 1092.34 175C1092.34 174.172 1091.66 173.5 1090.84 173.5V176.5ZM1096.89 173.5C1096.06 173.5 1095.39 174.172 1095.39 175C1095.39 175.828 1096.06 176.5 1096.89 176.5V173.5ZM1100.93 176.5C1101.76 176.5 1102.43 175.828 1102.43 175C1102.43 174.172 1101.76 173.5 1100.93 173.5V176.5ZM1106.98 173.5C1106.15 173.5 1105.48 174.172 1105.48 175C1105.48 175.828 1106.15 176.5 1106.98 176.5V173.5ZM1111.02 176.5C1111.85 176.5 1112.52 175.828 1112.52 175C1112.52 174.172 1111.85 173.5 1111.02 173.5V176.5ZM1117.07 173.5C1116.24 173.5 1115.57 174.172 1115.57 175C1115.57 175.828 1116.24 176.5 1117.07 176.5V173.5ZM1121.11 176.5C1121.94 176.5 1122.61 175.828 1122.61 175C1122.61 174.172 1121.94 173.5 1121.11 173.5V176.5ZM1127.16 173.5C1126.34 173.5 1125.66 174.172 1125.66 175C1125.66 175.828 1126.34 176.5 1127.16 176.5V173.5ZM1131.2 176.5C1132.03 176.5 1132.7 175.828 1132.7 175C1132.7 174.172 1132.03 173.5 1131.2 173.5V176.5ZM1137.25 173.5C1136.43 173.5 1135.75 174.172 1135.75 175C1135.75 175.828 1136.43 176.5 1137.25 176.5V173.5ZM1141.29 176.5C1142.12 176.5 1142.79 175.828 1142.79 175C1142.79 174.172 1142.12 173.5 1141.29 173.5V176.5ZM1147.35 173.5C1146.52 173.5 1145.85 174.172 1145.85 175C1145.85 175.828 1146.52 176.5 1147.35 176.5V173.5ZM1151.38 176.5C1152.21 176.5 1152.88 175.828 1152.88 175C1152.88 174.172 1152.21 173.5 1151.38 173.5V176.5ZM1157.44 173.5C1156.61 173.5 1155.94 174.172 1155.94 175C1155.94 175.828 1156.61 176.5 1157.44 176.5V173.5ZM1161.47 176.5C1162.3 176.5 1162.97 175.828 1162.97 175C1162.97 174.172 1162.3 173.5 1161.47 173.5V176.5ZM1167.53 173.5C1166.7 173.5 1166.03 174.172 1166.03 175C1166.03 175.828 1166.7 176.5 1167.53 176.5V173.5ZM1171.56 176.5C1172.39 176.5 1173.06 175.828 1173.06 175C1173.06 174.172 1172.39 173.5 1171.56 173.5V176.5ZM1177.62 173.5C1176.79 173.5 1176.12 174.172 1176.12 175C1176.12 175.828 1176.79 176.5 1177.62 176.5V173.5ZM1181.65 176.5C1182.48 176.5 1183.15 175.828 1183.15 175C1183.15 174.172 1182.48 173.5 1181.65 173.5V176.5ZM1187.71 173.5C1186.88 173.5 1186.21 174.172 1186.21 175C1186.21 175.828 1186.88 176.5 1187.71 176.5V173.5ZM1191.75 176.5C1192.57 176.5 1193.25 175.828 1193.25 175C1193.25 174.172 1192.57 173.5 1191.75 173.5V176.5ZM1197.8 173.5C1196.97 173.5 1196.3 174.172 1196.3 175C1196.3 175.828 1196.97 176.5 1197.8 176.5V173.5ZM1201.84 176.5C1202.66 176.5 1203.34 175.828 1203.34 175C1203.34 174.172 1202.66 173.5 1201.84 173.5V176.5ZM1207.89 173.5C1207.06 173.5 1206.39 174.172 1206.39 175C1206.39 175.828 1207.06 176.5 1207.89 176.5V173.5ZM1211.93 176.5C1212.76 176.5 1213.43 175.828 1213.43 175C1213.43 174.172 1212.76 173.5 1211.93 173.5V176.5ZM1217.98 173.5C1217.15 173.5 1216.48 174.172 1216.48 175C1216.48 175.828 1217.15 176.5 1217.98 176.5V173.5ZM998 176.5H1000.02V173.5H998V176.5ZM1006.07 176.5H1010.11V173.5H1006.07V176.5ZM1016.16 176.5H1020.2V173.5H1016.16V176.5ZM1026.25 176.5H1030.29V173.5H1026.25V176.5ZM1036.35 176.5H1040.38V173.5H1036.35V176.5ZM1046.44 176.5H1050.47V173.5H1046.44V176.5ZM1056.53 176.5H1060.56V173.5H1056.53V176.5ZM1066.62 176.5H1070.65V173.5H1066.62V176.5ZM1076.71 176.5H1080.75V173.5H1076.71V176.5ZM1086.8 176.5H1090.84V173.5H1086.8V176.5ZM1096.89 176.5H1100.93V173.5H1096.89V176.5ZM1106.98 176.5H1111.02V173.5H1106.98V176.5ZM1117.07 176.5H1121.11V173.5H1117.07V176.5ZM1127.16 176.5H1131.2V173.5H1127.16V176.5ZM1137.25 176.5H1141.29V173.5H1137.25V176.5ZM1147.35 176.5H1151.38V173.5H1147.35V176.5ZM1157.44 176.5H1161.47V173.5H1157.44V176.5ZM1167.53 176.5H1171.56V173.5H1167.53V176.5ZM1177.62 176.5H1181.65V173.5H1177.62V176.5ZM1187.71 176.5H1191.75V173.5H1187.71V176.5ZM1197.8 176.5H1201.84V173.5H1197.8V176.5ZM1207.89 176.5H1211.93V173.5H1207.89V176.5ZM1217.98 176.5H1220V173.5H1217.98V176.5ZM998 173.5C997.172 173.5 996.5 174.172 996.5 175C996.5 175.828 997.172 176.5 998 176.5V173.5ZM1221.06 176.061C1221.65 175.475 1221.65 174.525 1221.06 173.939L1211.51 164.393C1210.93 163.808 1209.98 163.808 1209.39 164.393C1208.81 164.979 1208.81 165.929 1209.39 166.515L1217.88 175L1209.39 183.485C1208.81 184.071 1208.81 185.021 1209.39 185.607C1209.98 186.192 1210.93 186.192 1211.51 185.607L1221.06 176.061ZM1000.02 176.5C1000.85 176.5 1001.52 175.828 1001.52 175C1001.52 174.172 1000.85 173.5 1000.02 173.5V176.5ZM1006.07 173.5C1005.24 173.5 1004.57 174.172 1004.57 175C1004.57 175.828 1005.24 176.5 1006.07 176.5V173.5ZM1010.11 176.5C1010.94 176.5 1011.61 175.828 1011.61 175C1011.61 174.172 1010.94 173.5 1010.11 173.5V176.5ZM1016.16 173.5C1015.34 173.5 1014.66 174.172 1014.66 175C1014.66 175.828 1015.34 176.5 1016.16 176.5V173.5ZM1020.2 176.5C1021.03 176.5 1021.7 175.828 1021.7 175C1021.7 174.172 1021.03 173.5 1020.2 173.5V176.5ZM1026.25 173.5C1025.43 173.5 1024.75 174.172 1024.75 175C1024.75 175.828 1025.43 176.5 1026.25 176.5V173.5ZM1030.29 176.5C1031.12 176.5 1031.79 175.828 1031.79 175C1031.79 174.172 1031.12 173.5 1030.29 173.5V176.5ZM1036.35 173.5C1035.52 173.5 1034.85 174.172 1034.85 175C1034.85 175.828 1035.52 176.5 1036.35 176.5V173.5ZM1040.38 176.5C1041.21 176.5 1041.88 175.828 1041.88 175C1041.88 174.172 1041.21 173.5 1040.38 173.5V176.5ZM1046.44 173.5C1045.61 173.5 1044.94 174.172 1044.94 175C1044.94 175.828 1045.61 176.5 1046.44 176.5V173.5ZM1050.47 176.5C1051.3 176.5 1051.97 175.828 1051.97 175C1051.97 174.172 1051.3 173.5 1050.47 173.5V176.5ZM1056.53 173.5C1055.7 173.5 1055.03 174.172 1055.03 175C1055.03 175.828 1055.7 176.5 1056.53 176.5V173.5ZM1060.56 176.5C1061.39 176.5 1062.06 175.828 1062.06 175C1062.06 174.172 1061.39 173.5 1060.56 173.5V176.5ZM1066.62 173.5C1065.79 173.5 1065.12 174.172 1065.12 175C1065.12 175.828 1065.79 176.5 1066.62 176.5V173.5ZM1070.65 176.5C1071.48 176.5 1072.15 175.828 1072.15 175C1072.15 174.172 1071.48 173.5 1070.65 173.5V176.5ZM1076.71 173.5C1075.88 173.5 1075.21 174.172 1075.21 175C1075.21 175.828 1075.88 176.5 1076.71 176.5V173.5ZM1080.75 176.5C1081.57 176.5 1082.25 175.828 1082.25 175C1082.25 174.172 1081.57 173.5 1080.75 173.5V176.5ZM1086.8 173.5C1085.97 173.5 1085.3 174.172 1085.3 175C1085.3 175.828 1085.97 176.5 1086.8 176.5V173.5ZM1090.84 176.5C1091.66 176.5 1092.34 175.828 1092.34 175C1092.34 174.172 1091.66 173.5 1090.84 173.5V176.5ZM1096.89 173.5C1096.06 173.5 1095.39 174.172 1095.39 175C1095.39 175.828 1096.06 176.5 1096.89 176.5V173.5ZM1100.93 176.5C1101.76 176.5 1102.43 175.828 1102.43 175C1102.43 174.172 1101.76 173.5 1100.93 173.5V176.5ZM1106.98 173.5C1106.15 173.5 1105.48 174.172 1105.48 175C1105.48 175.828 1106.15 176.5 1106.98 176.5V173.5ZM1111.02 176.5C1111.85 176.5 1112.52 175.828 1112.52 175C1112.52 174.172 1111.85 173.5 1111.02 173.5V176.5ZM1117.07 173.5C1116.24 173.5 1115.57 174.172 1115.57 175C1115.57 175.828 1116.24 176.5 1117.07 176.5V173.5ZM1121.11 176.5C1121.94 176.5 1122.61 175.828 1122.61 175C1122.61 174.172 1121.94 173.5 1121.11 173.5V176.5ZM1127.16 173.5C1126.34 173.5 1125.66 174.172 1125.66 175C1125.66 175.828 1126.34 176.5 1127.16 176.5V173.5ZM1131.2 176.5C1132.03 176.5 1132.7 175.828 1132.7 175C1132.7 174.172 1132.03 173.5 1131.2 173.5V176.5ZM1137.25 173.5C1136.43 173.5 1135.75 174.172 1135.75 175C1135.75 175.828 1136.43 176.5 1137.25 176.5V173.5ZM1141.29 176.5C1142.12 176.5 1142.79 175.828 1142.79 175C1142.79 174.172 1142.12 173.5 1141.29 173.5V176.5ZM1147.35 173.5C1146.52 173.5 1145.85 174.172 1145.85 175C1145.85 175.828 1146.52 176.5 1147.35 176.5V173.5ZM1151.38 176.5C1152.21 176.5 1152.88 175.828 1152.88 175C1152.88 174.172 1152.21 173.5 1151.38 173.5V176.5ZM1157.44 173.5C1156.61 173.5 1155.94 174.172 1155.94 175C1155.94 175.828 1156.61 176.5 1157.44 176.5V173.5ZM1161.47 176.5C1162.3 176.5 1162.97 175.828 1162.97 175C1162.97 174.172 1162.3 173.5 1161.47 173.5V176.5ZM1167.53 173.5C1166.7 173.5 1166.03 174.172 1166.03 175C1166.03 175.828 1166.7 176.5 1167.53 176.5V173.5ZM1171.56 176.5C1172.39 176.5 1173.06 175.828 1173.06 175C1173.06 174.172 1172.39 173.5 1171.56 173.5V176.5ZM1177.62 173.5C1176.79 173.5 1176.12 174.172 1176.12 175C1176.12 175.828 1176.79 176.5 1177.62 176.5V173.5ZM1181.65 176.5C1182.48 176.5 1183.15 175.828 1183.15 175C1183.15 174.172 1182.48 173.5 1181.65 173.5V176.5ZM1187.71 173.5C1186.88 173.5 1186.21 174.172 1186.21 175C1186.21 175.828 1186.88 176.5 1187.71 176.5V173.5ZM1191.75 176.5C1192.57 176.5 1193.25 175.828 1193.25 175C1193.25 174.172 1192.57 173.5 1191.75 173.5V176.5ZM1197.8 173.5C1196.97 173.5 1196.3 174.172 1196.3 175C1196.3 175.828 1196.97 176.5 1197.8 176.5V173.5ZM1201.84 176.5C1202.66 176.5 1203.34 175.828 1203.34 175C1203.34 174.172 1202.66 173.5 1201.84 173.5V176.5ZM1207.89 173.5C1207.06 173.5 1206.39 174.172 1206.39 175C1206.39 175.828 1207.06 176.5 1207.89 176.5V173.5ZM1211.93 176.5C1212.76 176.5 1213.43 175.828 1213.43 175C1213.43 174.172 1212.76 173.5 1211.93 173.5V176.5ZM1217.98 173.5C1217.15 173.5 1216.48 174.172 1216.48 175C1216.48 175.828 1217.15 176.5 1217.98 176.5V173.5ZM998 176.5H1000.02V173.5H998V176.5ZM1006.07 176.5H1010.11V173.5H1006.07V176.5ZM1016.16 176.5H1020.2V173.5H1016.16V176.5ZM1026.25 176.5H1030.29V173.5H1026.25V176.5ZM1036.35 176.5H1040.38V173.5H1036.35V176.5ZM1046.44 176.5H1050.47V173.5H1046.44V176.5ZM1056.53 176.5H1060.56V173.5H1056.53V176.5ZM1066.62 176.5H1070.65V173.5H1066.62V176.5ZM1076.71 176.5H1080.75V173.5H1076.71V176.5ZM1086.8 176.5H1090.84V173.5H1086.8V176.5ZM1096.89 176.5H1100.93V173.5H1096.89V176.5ZM1106.98 176.5H1111.02V173.5H1106.98V176.5ZM1117.07 176.5H1121.11V173.5H1117.07V176.5ZM1127.16 176.5H1131.2V173.5H1127.16V176.5ZM1137.25 176.5H1141.29V173.5H1137.25V176.5ZM1147.35 176.5H1151.38V173.5H1147.35V176.5ZM1157.44 176.5H1161.47V173.5H1157.44V176.5ZM1167.53 176.5H1171.56V173.5H1167.53V176.5ZM1177.62 176.5H1181.65V173.5H1177.62V176.5ZM1187.71 176.5H1191.75V173.5H1187.71V176.5ZM1197.8 176.5H1201.84V173.5H1197.8V176.5ZM1207.89 176.5H1211.93V173.5H1207.89V176.5ZM1217.98 176.5H1220V173.5H1217.98V176.5Z" fill="#FE4D00"/>
<path d="M821 360.5C820.172 360.5 819.5 361.172 819.5 362C819.5 362.828 820.172 363.5 821 363.5L821 360.5ZM1039.08 363.061C1039.67 362.475 1039.67 361.525 1039.08 360.939L1029.54 351.393C1028.95 350.808 1028 350.808 1027.41 351.393C1026.83 351.979 1026.83 352.929 1027.41 353.515L1035.9 362L1027.41 370.485C1026.83 371.071 1026.83 372.021 1027.41 372.607C1028 373.192 1028.95 373.192 1029.54 372.607L1039.08 363.061ZM822.973 363.5C823.801 363.5 824.473 362.828 824.473 362C824.473 361.172 823.801 360.5 822.973 360.5L822.973 363.5ZM828.892 360.5C828.063 360.5 827.392 361.172 827.392 362C827.392 362.828 828.063 363.5 828.892 363.5L828.892 360.5ZM832.837 363.5C833.666 363.5 834.337 362.828 834.337 362C834.337 361.172 833.666 360.5 832.837 360.5L832.837 363.5ZM838.756 360.5C837.928 360.5 837.256 361.172 837.256 362C837.256 362.828 837.928 363.5 838.756 363.5L838.756 360.5ZM842.702 363.5C843.531 363.5 844.202 362.828 844.202 362C844.202 361.172 843.531 360.5 842.702 360.5L842.702 363.5ZM848.621 360.5C847.792 360.5 847.121 361.172 847.121 362C847.121 362.828 847.792 363.5 848.621 363.5L848.621 360.5ZM852.567 363.5C853.395 363.5 854.067 362.828 854.067 362C854.067 361.172 853.395 360.5 852.567 360.5L852.567 363.5ZM858.485 360.5C857.657 360.5 856.985 361.172 856.985 362C856.985 362.828 857.657 363.5 858.485 363.5L858.485 360.5ZM862.431 363.5C863.26 363.5 863.931 362.828 863.931 362C863.931 361.172 863.26 360.5 862.431 360.5L862.431 363.5ZM868.35 360.5C867.522 360.5 866.85 361.172 866.85 362C866.85 362.828 867.522 363.5 868.35 363.5L868.35 360.5ZM872.296 363.5C873.124 363.5 873.796 362.828 873.796 362C873.796 361.172 873.124 360.5 872.296 360.5L872.296 363.5ZM878.215 360.5C877.386 360.5 876.715 361.172 876.715 362C876.715 362.828 877.386 363.5 878.215 363.5L878.215 360.5ZM882.16 363.5C882.989 363.5 883.66 362.828 883.66 362C883.66 361.172 882.989 360.5 882.16 360.5L882.16 363.5ZM888.079 360.5C887.251 360.5 886.579 361.172 886.579 362C886.579 362.828 887.251 363.5 888.079 363.5L888.079 360.5ZM892.025 363.5C892.853 363.5 893.525 362.828 893.525 362C893.525 361.172 892.853 360.5 892.025 360.5L892.025 363.5ZM897.944 360.5C897.115 360.5 896.444 361.172 896.444 362C896.444 362.828 897.115 363.5 897.944 363.5L897.944 360.5ZM901.89 363.5C902.718 363.5 903.39 362.828 903.39 362C903.39 361.172 902.718 360.5 901.89 360.5L901.89 363.5ZM907.808 360.5C906.98 360.5 906.308 361.172 906.308 362C906.308 362.828 906.98 363.5 907.808 363.5L907.808 360.5ZM911.754 363.5C912.583 363.5 913.254 362.828 913.254 362C913.254 361.172 912.583 360.5 911.754 360.5L911.754 363.5ZM917.673 360.5C916.844 360.5 916.173 361.172 916.173 362C916.173 362.828 916.844 363.5 917.673 363.5L917.673 360.5ZM921.619 363.5C922.447 363.5 923.119 362.828 923.119 362C923.119 361.172 922.447 360.5 921.619 360.5L921.619 363.5ZM927.537 360.5C926.709 360.5 926.037 361.172 926.037 362C926.037 362.828 926.709 363.5 927.537 363.5L927.537 360.5ZM931.483 363.5C932.312 363.5 932.983 362.828 932.983 362C932.983 361.172 932.312 360.5 931.483 360.5L931.483 363.5ZM937.402 360.5C936.574 360.5 935.902 361.172 935.902 362C935.902 362.828 936.574 363.5 937.402 363.5L937.402 360.5ZM941.348 363.5C942.176 363.5 942.848 362.828 942.848 362C942.848 361.172 942.176 360.5 941.348 360.5L941.348 363.5ZM947.267 360.5C946.438 360.5 945.767 361.172 945.767 362C945.767 362.828 946.438 363.5 947.267 363.5L947.267 360.5ZM951.212 363.5C952.041 363.5 952.712 362.828 952.712 362C952.712 361.172 952.041 360.5 951.212 360.5L951.212 363.5ZM957.131 360.5C956.303 360.5 955.631 361.172 955.631 362C955.631 362.828 956.303 363.5 957.131 363.5L957.131 360.5ZM961.077 363.5C961.905 363.5 962.577 362.828 962.577 362C962.577 361.172 961.905 360.5 961.077 360.5L961.077 363.5ZM966.996 360.5C966.167 360.5 965.496 361.172 965.496 362C965.496 362.828 966.167 363.5 966.996 363.5L966.996 360.5ZM970.942 363.5C971.77 363.5 972.442 362.828 972.442 362C972.442 361.172 971.77 360.5 970.942 360.5L970.942 363.5ZM976.86 360.5C976.032 360.5 975.36 361.172 975.36 362C975.36 362.828 976.032 363.5 976.86 363.5L976.86 360.5ZM980.806 363.5C981.635 363.5 982.306 362.828 982.306 362C982.306 361.172 981.635 360.5 980.806 360.5L980.806 363.5ZM986.725 360.5C985.896 360.5 985.225 361.172 985.225 362C985.225 362.828 985.896 363.5 986.725 363.5L986.725 360.5ZM990.671 363.5C991.499 363.5 992.171 362.828 992.171 362C992.171 361.172 991.499 360.5 990.671 360.5L990.671 363.5ZM996.589 360.5C995.761 360.5 995.089 361.172 995.089 362C995.089 362.828 995.761 363.5 996.589 363.5L996.589 360.5ZM1000.54 363.5C1001.36 363.5 1002.04 362.828 1002.04 362C1002.04 361.172 1001.36 360.5 1000.54 360.5L1000.54 363.5ZM1006.45 360.5C1005.63 360.5 1004.95 361.172 1004.95 362C1004.95 362.828 1005.63 363.5 1006.45 363.5L1006.45 360.5ZM1010.4 363.5C1011.23 363.5 1011.9 362.828 1011.9 362C1011.9 361.172 1011.23 360.5 1010.4 360.5L1010.4 363.5ZM1016.32 360.5C1015.49 360.5 1014.82 361.172 1014.82 362C1014.82 362.828 1015.49 363.5 1016.32 363.5L1016.32 360.5ZM1020.26 363.5C1021.09 363.5 1021.76 362.828 1021.76 362C1021.76 361.172 1021.09 360.5 1020.26 360.5L1020.26 363.5ZM1026.18 360.5C1025.35 360.5 1024.68 361.172 1024.68 362C1024.68 362.828 1025.35 363.5 1026.18 363.5L1026.18 360.5ZM1030.13 363.5C1030.96 363.5 1031.63 362.828 1031.63 362C1031.63 361.172 1030.96 360.5 1030.13 360.5L1030.13 363.5ZM1036.05 360.5C1035.22 360.5 1034.55 361.172 1034.55 362C1034.55 362.828 1035.22 363.5 1036.05 363.5L1036.05 360.5ZM821 363.5L822.973 363.5L822.973 360.5L821 360.5L821 363.5ZM828.892 363.5L832.837 363.5L832.837 360.5L828.892 360.5L828.892 363.5ZM838.756 363.5L842.702 363.5L842.702 360.5L838.756 360.5L838.756 363.5ZM848.621 363.5L852.567 363.5L852.567 360.5L848.621 360.5L848.621 363.5ZM858.485 363.5L862.431 363.5L862.431 360.5L858.485 360.5L858.485 363.5ZM868.35 363.5L872.296 363.5L872.296 360.5L868.35 360.5L868.35 363.5ZM878.215 363.5L882.16 363.5L882.16 360.5L878.215 360.5L878.215 363.5ZM888.079 363.5L892.025 363.5L892.025 360.5L888.079 360.5L888.079 363.5ZM897.944 363.5L901.89 363.5L901.89 360.5L897.944 360.5L897.944 363.5ZM907.808 363.5L911.754 363.5L911.754 360.5L907.808 360.5L907.808 363.5ZM917.673 363.5L921.619 363.5L921.619 360.5L917.673 360.5L917.673 363.5ZM927.537 363.5L931.483 363.5L931.483 360.5L927.537 360.5L927.537 363.5ZM937.402 363.5L941.348 363.5L941.348 360.5L937.402 360.5L937.402 363.5ZM947.267 363.5L951.212 363.5L951.212 360.5L947.267 360.5L947.267 363.5ZM957.131 363.5L961.077 363.5L961.077 360.5L957.131 360.5L957.131 363.5ZM966.996 363.5L970.942 363.5L970.942 360.5L966.996 360.5L966.996 363.5ZM976.86 363.5L980.806 363.5L980.806 360.5L976.86 360.5L976.86 363.5ZM986.725 363.5L990.671 363.5L990.671 360.5L986.725 360.5L986.725 363.5ZM996.589 363.5L1000.54 363.5L1000.54 360.5L996.589 360.5L996.589 363.5ZM1006.45 363.5L1010.4 363.5L1010.4 360.5L1006.45 360.5L1006.45 363.5ZM1016.32 363.5L1020.26 363.5L1020.26 360.5L1016.32 360.5L1016.32 363.5ZM1026.18 363.5L1030.13 363.5L1030.13 360.5L1026.18 360.5L1026.18 363.5ZM1036.05 363.5L1038.02 363.5L1038.02 360.5L1036.05 360.5L1036.05 363.5ZM821 360.5C820.172 360.5 819.5 361.172 819.5 362C819.5 362.828 820.172 363.5 821 363.5L821 360.5ZM1039.08 363.061C1039.67 362.475 1039.67 361.525 1039.08 360.939L1029.54 351.393C1028.95 350.808 1028 350.808 1027.41 351.393C1026.83 351.979 1026.83 352.929 1027.41 353.515L1035.9 362L1027.41 370.485C1026.83 371.071 1026.83 372.021 1027.41 372.607C1028 373.192 1028.95 373.192 1029.54 372.607L1039.08 363.061ZM822.973 363.5C823.801 363.5 824.473 362.828 824.473 362C824.473 361.172 823.801 360.5 822.973 360.5L822.973 363.5ZM828.892 360.5C828.063 360.5 827.392 361.172 827.392 362C827.392 362.828 828.063 363.5 828.892 363.5L828.892 360.5ZM832.837 363.5C833.666 363.5 834.337 362.828 834.337 362C834.337 361.172 833.666 360.5 832.837 360.5L832.837 363.5ZM838.756 360.5C837.928 360.5 837.256 361.172 837.256 362C837.256 362.828 837.928 363.5 838.756 363.5L838.756 360.5ZM842.702 363.5C843.531 363.5 844.202 362.828 844.202 362C844.202 361.172 843.531 360.5 842.702 360.5L842.702 363.5ZM848.621 360.5C847.792 360.5 847.121 361.172 847.121 362C847.121 362.828 847.792 363.5 848.621 363.5L848.621 360.5ZM852.567 363.5C853.395 363.5 854.067 362.828 854.067 362C854.067 361.172 853.395 360.5 852.567 360.5L852.567 363.5ZM858.485 360.5C857.657 360.5 856.985 361.172 856.985 362C856.985 362.828 857.657 363.5 858.485 363.5L858.485 360.5ZM862.431 363.5C863.26 363.5 863.931 362.828 863.931 362C863.931 361.172 863.26 360.5 862.431 360.5L862.431 363.5ZM868.35 360.5C867.522 360.5 866.85 361.172 866.85 362C866.85 362.828 867.522 363.5 868.35 363.5L868.35 360.5ZM872.296 363.5C873.124 363.5 873.796 362.828 873.796 362C873.796 361.172 873.124 360.5 872.296 360.5L872.296 363.5ZM878.215 360.5C877.386 360.5 876.715 361.172 876.715 362C876.715 362.828 877.386 363.5 878.215 363.5L878.215 360.5ZM882.16 363.5C882.989 363.5 883.66 362.828 883.66 362C883.66 361.172 882.989 360.5 882.16 360.5L882.16 363.5ZM888.079 360.5C887.251 360.5 886.579 361.172 886.579 362C886.579 362.828 887.251 363.5 888.079 363.5L888.079 360.5ZM892.025 363.5C892.853 363.5 893.525 362.828 893.525 362C893.525 361.172 892.853 360.5 892.025 360.5L892.025 363.5ZM897.944 360.5C897.115 360.5 896.444 361.172 896.444 362C896.444 362.828 897.115 363.5 897.944 363.5L897.944 360.5ZM901.89 363.5C902.718 363.5 903.39 362.828 903.39 362C903.39 361.172 902.718 360.5 901.89 360.5L901.89 363.5ZM907.808 360.5C906.98 360.5 906.308 361.172 906.308 362C906.308 362.828 906.98 363.5 907.808 363.5L907.808 360.5ZM911.754 363.5C912.583 363.5 913.254 362.828 913.254 362C913.254 361.172 912.583 360.5 911.754 360.5L911.754 363.5ZM917.673 360.5C916.844 360.5 916.173 361.172 916.173 362C916.173 362.828 916.844 363.5 917.673 363.5L917.673 360.5ZM921.619 363.5C922.447 363.5 923.119 362.828 923.119 362C923.119 361.172 922.447 360.5 921.619 360.5L921.619 363.5ZM927.537 360.5C926.709 360.5 926.037 361.172 926.037 362C926.037 362.828 926.709 363.5 927.537 363.5L927.537 360.5ZM931.483 363.5C932.312 363.5 932.983 362.828 932.983 362C932.983 361.172 932.312 360.5 931.483 360.5L931.483 363.5ZM937.402 360.5C936.574 360.5 935.902 361.172 935.902 362C935.902 362.828 936.574 363.5 937.402 363.5L937.402 360.5ZM941.348 363.5C942.176 363.5 942.848 362.828 942.848 362C942.848 361.172 942.176 360.5 941.348 360.5L941.348 363.5ZM947.267 360.5C946.438 360.5 945.767 361.172 945.767 362C945.767 362.828 946.438 363.5 947.267 363.5L947.267 360.5ZM951.212 363.5C952.041 363.5 952.712 362.828 952.712 362C952.712 361.172 952.041 360.5 951.212 360.5L951.212 363.5ZM957.131 360.5C956.303 360.5 955.631 361.172 955.631 362C955.631 362.828 956.303 363.5 957.131 363.5L957.131 360.5ZM961.077 363.5C961.905 363.5 962.577 362.828 962.577 362C962.577 361.172 961.905 360.5 961.077 360.5L961.077 363.5ZM966.996 360.5C966.167 360.5 965.496 361.172 965.496 362C965.496 362.828 966.167 363.5 966.996 363.5L966.996 360.5ZM970.942 363.5C971.77 363.5 972.442 362.828 972.442 362C972.442 361.172 971.77 360.5 970.942 360.5L970.942 363.5ZM976.86 360.5C976.032 360.5 975.36 361.172 975.36 362C975.36 362.828 976.032 363.5 976.86 363.5L976.86 360.5ZM980.806 363.5C981.635 363.5 982.306 362.828 982.306 362C982.306 361.172 981.635 360.5 980.806 360.5L980.806 363.5ZM986.725 360.5C985.896 360.5 985.225 361.172 985.225 362C985.225 362.828 985.896 363.5 986.725 363.5L986.725 360.5ZM990.671 363.5C991.499 363.5 992.171 362.828 992.171 362C992.171 361.172 991.499 360.5 990.671 360.5L990.671 363.5ZM996.589 360.5C995.761 360.5 995.089 361.172 995.089 362C995.089 362.828 995.761 363.5 996.589 363.5L996.589 360.5ZM1000.54 363.5C1001.36 363.5 1002.04 362.828 1002.04 362C1002.04 361.172 1001.36 360.5 1000.54 360.5L1000.54 363.5ZM1006.45 360.5C1005.63 360.5 1004.95 361.172 1004.95 362C1004.95 362.828 1005.63 363.5 1006.45 363.5L1006.45 360.5ZM1010.4 363.5C1011.23 363.5 1011.9 362.828 1011.9 362C1011.9 361.172 1011.23 360.5 1010.4 360.5L1010.4 363.5ZM1016.32 360.5C1015.49 360.5 1014.82 361.172 1014.82 362C1014.82 362.828 1015.49 363.5 1016.32 363.5L1016.32 360.5ZM1020.26 363.5C1021.09 363.5 1021.76 362.828 1021.76 362C1021.76 361.172 1021.09 360.5 1020.26 360.5L1020.26 363.5ZM1026.18 360.5C1025.35 360.5 1024.68 361.172 1024.68 362C1024.68 362.828 1025.35 363.5 1026.18 363.5L1026.18 360.5ZM1030.13 363.5C1030.96 363.5 1031.63 362.828 1031.63 362C1031.63 361.172 1030.96 360.5 1030.13 360.5L1030.13 363.5ZM1036.05 360.5C1035.22 360.5 1034.55 361.172 1034.55 362C1034.55 362.828 1035.22 363.5 1036.05 363.5L1036.05 360.5ZM821 363.5L822.973 363.5L822.973 360.5L821 360.5L821 363.5ZM828.892 363.5L832.837 363.5L832.837 360.5L828.892 360.5L828.892 363.5ZM838.756 363.5L842.702 363.5L842.702 360.5L838.756 360.5L838.756 363.5ZM848.621 363.5L852.567 363.5L852.567 360.5L848.621 360.5L848.621 363.5ZM858.485 363.5L862.431 363.5L862.431 360.5L858.485 360.5L858.485 363.5ZM868.35 363.5L872.296 363.5L872.296 360.5L868.35 360.5L868.35 363.5ZM878.215 363.5L882.16 363.5L882.16 360.5L878.215 360.5L878.215 363.5ZM888.079 363.5L892.025 363.5L892.025 360.5L888.079 360.5L888.079 363.5ZM897.944 363.5L901.89 363.5L901.89 360.5L897.944 360.5L897.944 363.5ZM907.808 363.5L911.754 363.5L911.754 360.5L907.808 360.5L907.808 363.5ZM917.673 363.5L921.619 363.5L921.619 360.5L917.673 360.5L917.673 363.5ZM927.537 363.5L931.483 363.5L931.483 360.5L927.537 360.5L927.537 363.5ZM937.402 363.5L941.348 363.5L941.348 360.5L937.402 360.5L937.402 363.5ZM947.267 363.5L951.212 363.5L951.212 360.5L947.267 360.5L947.267 363.5ZM957.131 363.5L961.077 363.5L961.077 360.5L957.131 360.5L957.131 363.5ZM966.996 363.5L970.942 363.5L970.942 360.5L966.996 360.5L966.996 363.5ZM976.86 363.5L980.806 363.5L980.806 360.5L976.86 360.5L976.86 363.5ZM986.725 363.5L990.671 363.5L990.671 360.5L986.725 360.5L986.725 363.5ZM996.589 363.5L1000.54 363.5L1000.54 360.5L996.589 360.5L996.589 363.5ZM1006.45 363.5L1010.4 363.5L1010.4 360.5L1006.45 360.5L1006.45 363.5ZM1016.32 363.5L1020.26 363.5L1020.26 360.5L1016.32 360.5L1016.32 363.5ZM1026.18 363.5L1030.13 363.5L1030.13 360.5L1026.18 360.5L1026.18 363.5ZM1036.05 363.5L1038.02 363.5L1038.02 360.5L1036.05 360.5L1036.05 363.5Z" fill="#FE4D00"/>
<path d="M1328 271L251 271" stroke="#FE4D00" stroke-width="3" stroke-linecap="round" stroke-dasharray="4 6"/>
<path d="M406 360.5C405.172 360.5 404.5 361.172 404.5 362C404.5 362.828 405.172 363.5 406 363.5V360.5ZM624.081 363.061C624.667 362.475 624.667 361.525 624.081 360.939L614.535 351.393C613.95 350.808 613 350.808 612.414 351.393C611.828 351.979 611.828 352.929 612.414 353.515L620.899 362L612.414 370.485C611.828 371.071 611.828 372.021 612.414 372.607C613 373.192 613.95 373.192 614.535 372.607L624.081 363.061ZM407.973 363.5C408.801 363.5 409.473 362.828 409.473 362C409.473 361.172 408.801 360.5 407.973 360.5V363.5ZM413.892 360.5C413.063 360.5 412.392 361.172 412.392 362C412.392 362.828 413.063 363.5 413.892 363.5V360.5ZM417.837 363.5C418.666 363.5 419.337 362.828 419.337 362C419.337 361.172 418.666 360.5 417.837 360.5V363.5ZM423.756 360.5C422.928 360.5 422.256 361.172 422.256 362C422.256 362.828 422.928 363.5 423.756 363.5V360.5ZM427.702 363.5C428.531 363.5 429.202 362.828 429.202 362C429.202 361.172 428.531 360.5 427.702 360.5V363.5ZM433.621 360.5C432.792 360.5 432.121 361.172 432.121 362C432.121 362.828 432.792 363.5 433.621 363.5V360.5ZM437.567 363.5C438.395 363.5 439.067 362.828 439.067 362C439.067 361.172 438.395 360.5 437.567 360.5V363.5ZM443.485 360.5C442.657 360.5 441.985 361.172 441.985 362C441.985 362.828 442.657 363.5 443.485 363.5V360.5ZM447.431 363.5C448.26 363.5 448.931 362.828 448.931 362C448.931 361.172 448.26 360.5 447.431 360.5V363.5ZM453.35 360.5C452.522 360.5 451.85 361.172 451.85 362C451.85 362.828 452.522 363.5 453.35 363.5V360.5ZM457.296 363.5C458.124 363.5 458.796 362.828 458.796 362C458.796 361.172 458.124 360.5 457.296 360.5V363.5ZM463.215 360.5C462.386 360.5 461.715 361.172 461.715 362C461.715 362.828 462.386 363.5 463.215 363.5V360.5ZM467.16 363.5C467.989 363.5 468.66 362.828 468.66 362C468.66 361.172 467.989 360.5 467.16 360.5V363.5ZM473.079 360.5C472.251 360.5 471.579 361.172 471.579 362C471.579 362.828 472.251 363.5 473.079 363.5V360.5ZM477.025 363.5C477.853 363.5 478.525 362.828 478.525 362C478.525 361.172 477.853 360.5 477.025 360.5V363.5ZM482.944 360.5C482.115 360.5 481.444 361.172 481.444 362C481.444 362.828 482.115 363.5 482.944 363.5V360.5ZM486.89 363.5C487.718 363.5 488.39 362.828 488.39 362C488.39 361.172 487.718 360.5 486.89 360.5V363.5ZM492.808 360.5C491.98 360.5 491.308 361.172 491.308 362C491.308 362.828 491.98 363.5 492.808 363.5V360.5ZM496.754 363.5C497.583 363.5 498.254 362.828 498.254 362C498.254 361.172 497.583 360.5 496.754 360.5V363.5ZM502.673 360.5C501.844 360.5 501.173 361.172 501.173 362C501.173 362.828 501.844 363.5 502.673 363.5V360.5ZM506.619 363.5C507.447 363.5 508.119 362.828 508.119 362C508.119 361.172 507.447 360.5 506.619 360.5V363.5ZM512.537 360.5C511.709 360.5 511.037 361.172 511.037 362C511.037 362.828 511.709 363.5 512.537 363.5V360.5ZM516.483 363.5C517.312 363.5 517.983 362.828 517.983 362C517.983 361.172 517.312 360.5 516.483 360.5V363.5ZM522.402 360.5C521.574 360.5 520.902 361.172 520.902 362C520.902 362.828 521.574 363.5 522.402 363.5V360.5ZM526.348 363.5C527.176 363.5 527.848 362.828 527.848 362C527.848 361.172 527.176 360.5 526.348 360.5V363.5ZM532.267 360.5C531.438 360.5 530.767 361.172 530.767 362C530.767 362.828 531.438 363.5 532.267 363.5V360.5ZM536.212 363.5C537.041 363.5 537.712 362.828 537.712 362C537.712 361.172 537.041 360.5 536.212 360.5V363.5ZM542.131 360.5C541.303 360.5 540.631 361.172 540.631 362C540.631 362.828 541.303 363.5 542.131 363.5V360.5ZM546.077 363.5C546.905 363.5 547.577 362.828 547.577 362C547.577 361.172 546.905 360.5 546.077 360.5V363.5ZM551.996 360.5C551.167 360.5 550.496 361.172 550.496 362C550.496 362.828 551.167 363.5 551.996 363.5V360.5ZM555.942 363.5C556.77 363.5 557.442 362.828 557.442 362C557.442 361.172 556.77 360.5 555.942 360.5V363.5ZM561.86 360.5C561.032 360.5 560.36 361.172 560.36 362C560.36 362.828 561.032 363.5 561.86 363.5V360.5ZM565.806 363.5C566.635 363.5 567.306 362.828 567.306 362C567.306 361.172 566.635 360.5 565.806 360.5V363.5ZM571.725 360.5C570.896 360.5 570.225 361.172 570.225 362C570.225 362.828 570.896 363.5 571.725 363.5V360.5ZM575.671 363.5C576.499 363.5 577.171 362.828 577.171 362C577.171 361.172 576.499 360.5 575.671 360.5V363.5ZM581.589 360.5C580.761 360.5 580.089 361.172 580.089 362C580.089 362.828 580.761 363.5 581.589 363.5V360.5ZM585.535 363.5C586.364 363.5 587.035 362.828 587.035 362C587.035 361.172 586.364 360.5 585.535 360.5V363.5ZM591.454 360.5C590.626 360.5 589.954 361.172 589.954 362C589.954 362.828 590.626 363.5 591.454 363.5V360.5ZM595.4 363.5C596.228 363.5 596.9 362.828 596.9 362C596.9 361.172 596.228 360.5 595.4 360.5V363.5ZM601.319 360.5C600.49 360.5 599.819 361.172 599.819 362C599.819 362.828 600.49 363.5 601.319 363.5V360.5ZM605.264 363.5C606.093 363.5 606.764 362.828 606.764 362C606.764 361.172 606.093 360.5 605.264 360.5V363.5ZM611.183 360.5C610.355 360.5 609.683 361.172 609.683 362C609.683 362.828 610.355 363.5 611.183 363.5V360.5ZM615.129 363.5C615.957 363.5 616.629 362.828 616.629 362C616.629 361.172 615.957 360.5 615.129 360.5V363.5ZM621.048 360.5C620.219 360.5 619.548 361.172 619.548 362C619.548 362.828 620.219 363.5 621.048 363.5V360.5ZM406 363.5H407.973V360.5H406V363.5ZM413.892 363.5H417.837V360.5H413.892V363.5ZM423.756 363.5H427.702V360.5H423.756V363.5ZM433.621 363.5H437.567V360.5H433.621V363.5ZM443.485 363.5H447.431V360.5H443.485V363.5ZM453.35 363.5H457.296V360.5H453.35V363.5ZM463.215 363.5H467.16V360.5H463.215V363.5ZM473.079 363.5H477.025V360.5H473.079V363.5ZM482.944 363.5H486.89V360.5H482.944V363.5ZM492.808 363.5H496.754V360.5H492.808V363.5ZM502.673 363.5H506.619V360.5H502.673V363.5ZM512.537 363.5H516.483V360.5H512.537V363.5ZM522.402 363.5H526.348V360.5H522.402V363.5ZM532.267 363.5H536.212V360.5H532.267V363.5ZM542.131 363.5H546.077V360.5H542.131V363.5ZM551.996 363.5H555.942V360.5H551.996V363.5ZM561.86 363.5H565.806V360.5H561.86V363.5ZM571.725 363.5H575.671V360.5H571.725V363.5ZM581.589 363.5H585.535V360.5H581.589V363.5ZM591.454 363.5H595.4V360.5H591.454V363.5ZM601.319 363.5H605.264V360.5H601.319V363.5ZM611.183 363.5H615.129V360.5H611.183V363.5ZM621.048 363.5H623.021V360.5H621.048V363.5ZM406 360.5C405.172 360.5 404.5 361.172 404.5 362C404.5 362.828 405.172 363.5 406 363.5V360.5ZM624.081 363.061C624.667 362.475 624.667 361.525 624.081 360.939L614.535 351.393C613.95 350.808 613 350.808 612.414 351.393C611.828 351.979 611.828 352.929 612.414 353.515L620.899 362L612.414 370.485C611.828 371.071 611.828 372.021 612.414 372.607C613 373.192 613.95 373.192 614.535 372.607L624.081 363.061ZM407.973 363.5C408.801 363.5 409.473 362.828 409.473 362C409.473 361.172 408.801 360.5 407.973 360.5V363.5ZM413.892 360.5C413.063 360.5 412.392 361.172 412.392 362C412.392 362.828 413.063 363.5 413.892 363.5V360.5ZM417.837 363.5C418.666 363.5 419.337 362.828 419.337 362C419.337 361.172 418.666 360.5 417.837 360.5V363.5ZM423.756 360.5C422.928 360.5 422.256 361.172 422.256 362C422.256 362.828 422.928 363.5 423.756 363.5V360.5ZM427.702 363.5C428.531 363.5 429.202 362.828 429.202 362C429.202 361.172 428.531 360.5 427.702 360.5V363.5ZM433.621 360.5C432.792 360.5 432.121 361.172 432.121 362C432.121 362.828 432.792 363.5 433.621 363.5V360.5ZM437.567 363.5C438.395 363.5 439.067 362.828 439.067 362C439.067 361.172 438.395 360.5 437.567 360.5V363.5ZM443.485 360.5C442.657 360.5 441.985 361.172 441.985 362C441.985 362.828 442.657 363.5 443.485 363.5V360.5ZM447.431 363.5C448.26 363.5 448.931 362.828 448.931 362C448.931 361.172 448.26 360.5 447.431 360.5V363.5ZM453.35 360.5C452.522 360.5 451.85 361.172 451.85 362C451.85 362.828 452.522 363.5 453.35 363.5V360.5ZM457.296 363.5C458.124 363.5 458.796 362.828 458.796 362C458.796 361.172 458.124 360.5 457.296 360.5V363.5ZM463.215 360.5C462.386 360.5 461.715 361.172 461.715 362C461.715 362.828 462.386 363.5 463.215 363.5V360.5ZM467.16 363.5C467.989 363.5 468.66 362.828 468.66 362C468.66 361.172 467.989 360.5 467.16 360.5V363.5ZM473.079 360.5C472.251 360.5 471.579 361.172 471.579 362C471.579 362.828 472.251 363.5 473.079 363.5V360.5ZM477.025 363.5C477.853 363.5 478.525 362.828 478.525 362C478.525 361.172 477.853 360.5 477.025 360.5V363.5ZM482.944 360.5C482.115 360.5 481.444 361.172 481.444 362C481.444 362.828 482.115 363.5 482.944 363.5V360.5ZM486.89 363.5C487.718 363.5 488.39 362.828 488.39 362C488.39 361.172 487.718 360.5 486.89 360.5V363.5ZM492.808 360.5C491.98 360.5 491.308 361.172 491.308 362C491.308 362.828 491.98 363.5 492.808 363.5V360.5ZM496.754 363.5C497.583 363.5 498.254 362.828 498.254 362C498.254 361.172 497.583 360.5 496.754 360.5V363.5ZM502.673 360.5C501.844 360.5 501.173 361.172 501.173 362C501.173 362.828 501.844 363.5 502.673 363.5V360.5ZM506.619 363.5C507.447 363.5 508.119 362.828 508.119 362C508.119 361.172 507.447 360.5 506.619 360.5V363.5ZM512.537 360.5C511.709 360.5 511.037 361.172 511.037 362C511.037 362.828 511.709 363.5 512.537 363.5V360.5ZM516.483 363.5C517.312 363.5 517.983 362.828 517.983 362C517.983 361.172 517.312 360.5 516.483 360.5V363.5ZM522.402 360.5C521.574 360.5 520.902 361.172 520.902 362C520.902 362.828 521.574 363.5 522.402 363.5V360.5ZM526.348 363.5C527.176 363.5 527.848 362.828 527.848 362C527.848 361.172 527.176 360.5 526.348 360.5V363.5ZM532.267 360.5C531.438 360.5 530.767 361.172 530.767 362C530.767 362.828 531.438 363.5 532.267 363.5V360.5ZM536.212 363.5C537.041 363.5 537.712 362.828 537.712 362C537.712 361.172 537.041 360.5 536.212 360.5V363.5ZM542.131 360.5C541.303 360.5 540.631 361.172 540.631 362C540.631 362.828 541.303 363.5 542.131 363.5V360.5ZM546.077 363.5C546.905 363.5 547.577 362.828 547.577 362C547.577 361.172 546.905 360.5 546.077 360.5V363.5ZM551.996 360.5C551.167 360.5 550.496 361.172 550.496 362C550.496 362.828 551.167 363.5 551.996 363.5V360.5ZM555.942 363.5C556.77 363.5 557.442 362.828 557.442 362C557.442 361.172 556.77 360.5 555.942 360.5V363.5ZM561.86 360.5C561.032 360.5 560.36 361.172 560.36 362C560.36 362.828 561.032 363.5 561.86 363.5V360.5ZM565.806 363.5C566.635 363.5 567.306 362.828 567.306 362C567.306 361.172 566.635 360.5 565.806 360.5V363.5ZM571.725 360.5C570.896 360.5 570.225 361.172 570.225 362C570.225 362.828 570.896 363.5 571.725 363.5V360.5ZM575.671 363.5C576.499 363.5 577.171 362.828 577.171 362C577.171 361.172 576.499 360.5 575.671 360.5V363.5ZM581.589 360.5C580.761 360.5 580.089 361.172 580.089 362C580.089 362.828 580.761 363.5 581.589 363.5V360.5ZM585.535 363.5C586.364 363.5 587.035 362.828 587.035 362C587.035 361.172 586.364 360.5 585.535 360.5V363.5ZM591.454 360.5C590.626 360.5 589.954 361.172 589.954 362C589.954 362.828 590.626 363.5 591.454 363.5V360.5ZM595.4 363.5C596.228 363.5 596.9 362.828 596.9 362C596.9 361.172 596.228 360.5 595.4 360.5V363.5ZM601.319 360.5C600.49 360.5 599.819 361.172 599.819 362C599.819 362.828 600.49 363.5 601.319 363.5V360.5ZM605.264 363.5C606.093 363.5 606.764 362.828 606.764 362C606.764 361.172 606.093 360.5 605.264 360.5V363.5ZM611.183 360.5C610.355 360.5 609.683 361.172 609.683 362C609.683 362.828 610.355 363.5 611.183 363.5V360.5ZM615.129 363.5C615.957 363.5 616.629 362.828 616.629 362C616.629 361.172 615.957 360.5 615.129 360.5V363.5ZM621.048 360.5C620.219 360.5 619.548 361.172 619.548 362C619.548 362.828 620.219 363.5 621.048 363.5V360.5ZM406 363.5H407.973V360.5H406V363.5ZM413.892 363.5H417.837V360.5H413.892V363.5ZM423.756 363.5H427.702V360.5H423.756V363.5ZM433.621 363.5H437.567V360.5H433.621V363.5ZM443.485 363.5H447.431V360.5H443.485V363.5ZM453.35 363.5H457.296V360.5H453.35V363.5ZM463.215 363.5H467.16V360.5H463.215V363.5ZM473.079 363.5H477.025V360.5H473.079V363.5ZM482.944 363.5H486.89V360.5H482.944V363.5ZM492.808 363.5H496.754V360.5H492.808V363.5ZM502.673 363.5H506.619V360.5H502.673V363.5ZM512.537 363.5H516.483V360.5H512.537V363.5ZM522.402 363.5H526.348V360.5H522.402V363.5ZM532.267 363.5H536.212V360.5H532.267V363.5ZM542.131 363.5H546.077V360.5H542.131V363.5ZM551.996 363.5H555.942V360.5H551.996V363.5ZM561.86 363.5H565.806V360.5H561.86V363.5ZM571.725 363.5H575.671V360.5H571.725V363.5ZM581.589 363.5H585.535V360.5H581.589V363.5ZM591.454 363.5H595.4V360.5H591.454V363.5ZM601.319 363.5H605.264V360.5H601.319V363.5ZM611.183 363.5H615.129V360.5H611.183V363.5ZM621.048 363.5H623.021V360.5H621.048V363.5Z" fill="#FE4D00"/>
<path d="M1332.53 174.598C1331.76 174.303 1330.89 174.692 1330.6 175.466C1330.3 176.24 1330.69 177.107 1331.47 177.402L1332.53 174.598ZM1363.5 188L1364.87 187.393L1364.62 186.821L1364.03 186.598L1363.5 188ZM1375 214L1376.49 214.147L1376.53 213.754L1376.37 213.393L1375 214ZM1371.5 249.5L1372.25 250.796L1372.92 250.41L1372.99 249.647L1371.5 249.5ZM1336.55 268.617C1336.34 269.418 1336.82 270.239 1337.62 270.45L1350.67 273.898C1351.47 274.11 1352.29 273.632 1352.5 272.831C1352.71 272.03 1352.24 271.209 1351.44 270.998L1339.83 267.933L1342.9 256.331C1343.11 255.53 1342.63 254.709 1341.83 254.497C1341.03 254.286 1340.21 254.764 1340 255.565L1336.55 268.617ZM1333.57 178.202C1334.34 178.497 1335.21 178.108 1335.5 177.334C1335.8 176.56 1335.41 175.693 1334.63 175.398L1333.57 178.202ZM1340.93 177.798C1340.16 177.503 1339.29 177.892 1339 178.666C1338.7 179.44 1339.09 180.307 1339.87 180.602L1340.93 177.798ZM1344.07 182.202C1344.84 182.497 1345.71 182.108 1346 181.334C1346.3 180.56 1345.91 179.693 1345.13 179.398L1344.07 182.202ZM1351.43 181.798C1350.66 181.503 1349.79 181.892 1349.5 182.666C1349.2 183.44 1349.59 184.307 1350.37 184.602L1351.43 181.798ZM1354.57 186.202C1355.34 186.497 1356.21 186.108 1356.5 185.334C1356.8 184.56 1356.41 183.693 1355.63 183.398L1354.57 186.202ZM1361.93 185.798C1361.16 185.503 1360.29 185.892 1360 186.666C1359.7 187.44 1360.09 188.307 1360.87 188.602L1361.93 185.798ZM1362.89 190.34C1363.23 191.098 1364.12 191.44 1364.87 191.105C1365.63 190.77 1365.97 189.884 1365.64 189.127L1362.89 190.34ZM1367.94 194.327C1367.6 193.569 1366.72 193.226 1365.96 193.562C1365.2 193.897 1364.86 194.782 1365.19 195.54L1367.94 194.327ZM1366.73 199.007C1367.06 199.764 1367.95 200.107 1368.71 199.772C1369.46 199.437 1369.81 198.551 1369.47 197.793L1366.73 199.007ZM1371.77 202.993C1371.44 202.236 1370.55 201.893 1369.79 202.228C1369.04 202.563 1368.69 203.449 1369.03 204.207L1371.77 202.993ZM1370.56 207.673C1370.9 208.431 1371.78 208.774 1372.54 208.438C1373.3 208.103 1373.64 207.218 1373.31 206.46L1370.56 207.673ZM1375.61 211.66C1375.27 210.902 1374.38 210.56 1373.63 210.895C1372.87 211.23 1372.53 212.116 1372.86 212.873L1375.61 211.66ZM1373.33 215.628C1373.25 216.452 1373.85 217.186 1374.68 217.268C1375.5 217.349 1376.24 216.747 1376.32 215.922L1373.33 215.628ZM1375.79 221.247C1375.87 220.423 1375.27 219.689 1374.45 219.607C1373.62 219.526 1372.89 220.128 1372.81 220.953L1375.79 221.247ZM1372.46 224.503C1372.38 225.327 1372.98 226.061 1373.8 226.143C1374.63 226.224 1375.36 225.622 1375.44 224.797L1372.46 224.503ZM1374.92 230.122C1375 229.298 1374.4 228.564 1373.57 228.482C1372.75 228.401 1372.01 229.003 1371.93 229.828L1374.92 230.122ZM1371.58 233.378C1371.5 234.202 1372.1 234.936 1372.93 235.018C1373.75 235.099 1374.49 234.497 1374.57 233.672L1371.58 233.378ZM1374.04 238.997C1374.12 238.173 1373.52 237.439 1372.7 237.357C1371.87 237.276 1371.14 237.878 1371.06 238.703L1374.04 238.997ZM1370.71 242.253C1370.63 243.077 1371.23 243.811 1372.05 243.893C1372.88 243.974 1373.61 243.372 1373.69 242.547L1370.71 242.253ZM1373.17 247.872C1373.25 247.048 1372.65 246.314 1371.82 246.232C1371 246.151 1370.26 246.753 1370.18 247.578L1373.17 247.872ZM1369.07 249.179C1368.35 249.595 1368.11 250.514 1368.53 251.23C1368.95 251.946 1369.86 252.188 1370.58 251.771L1369.07 249.179ZM1365.55 254.696C1366.27 254.28 1366.51 253.361 1366.1 252.645C1365.68 251.929 1364.76 251.687 1364.05 252.104L1365.55 254.696ZM1360.7 254.054C1359.98 254.47 1359.74 255.389 1360.15 256.105C1360.57 256.821 1361.49 257.063 1362.2 256.646L1360.7 254.054ZM1357.18 259.571C1357.9 259.155 1358.14 258.236 1357.72 257.52C1357.3 256.804 1356.39 256.562 1355.67 256.979L1357.18 259.571ZM1352.32 258.929C1351.6 259.345 1351.36 260.264 1351.78 260.98C1352.2 261.696 1353.11 261.938 1353.83 261.521L1352.32 258.929ZM1348.8 264.446C1349.52 264.03 1349.76 263.111 1349.35 262.395C1348.93 261.679 1348.01 261.437 1347.3 261.854L1348.8 264.446ZM1343.95 263.804C1343.23 264.22 1342.99 265.139 1343.4 265.855C1343.82 266.571 1344.74 266.813 1345.45 266.396L1343.95 263.804ZM1340.43 269.321C1341.15 268.905 1341.39 267.986 1340.97 267.27C1340.55 266.554 1339.64 266.312 1338.92 266.729L1340.43 269.321ZM1331.47 177.402L1333.57 178.202L1334.63 175.398L1332.53 174.598L1331.47 177.402ZM1339.87 180.602L1344.07 182.202L1345.13 179.398L1340.93 177.798L1339.87 180.602ZM1350.37 184.602L1354.57 186.202L1355.63 183.398L1351.43 181.798L1350.37 184.602ZM1360.87 188.602L1362.97 189.402L1364.03 186.598L1361.93 185.798L1360.87 188.602ZM1362.13 188.607L1362.89 190.34L1365.64 189.127L1364.87 187.393L1362.13 188.607ZM1365.19 195.54L1366.73 199.007L1369.47 197.793L1367.94 194.327L1365.19 195.54ZM1369.03 204.207L1370.56 207.673L1373.31 206.46L1371.77 202.993L1369.03 204.207ZM1372.86 212.873L1373.63 214.607L1376.37 213.393L1375.61 211.66L1372.86 212.873ZM1373.51 213.853L1373.33 215.628L1376.32 215.922L1376.49 214.147L1373.51 213.853ZM1372.81 220.953L1372.46 224.503L1375.44 224.797L1375.79 221.247L1372.81 220.953ZM1371.93 229.828L1371.58 233.378L1374.57 233.672L1374.92 230.122L1371.93 229.828ZM1371.06 238.703L1370.71 242.253L1373.69 242.547L1374.04 238.997L1371.06 238.703ZM1370.18 247.578L1370.01 249.353L1372.99 249.647L1373.17 247.872L1370.18 247.578ZM1370.75 248.204L1369.07 249.179L1370.58 251.771L1372.25 250.796L1370.75 248.204ZM1364.05 252.104L1360.7 254.054L1362.2 256.646L1365.55 254.696L1364.05 252.104ZM1355.67 256.979L1352.32 258.929L1353.83 261.521L1357.18 259.571L1355.67 256.979ZM1347.3 261.854L1343.95 263.804L1345.45 266.396L1348.8 264.446L1347.3 261.854ZM1338.92 266.729L1337.25 267.704L1338.75 270.296L1340.43 269.321L1338.92 266.729ZM1332.53 174.598C1331.76 174.303 1330.89 174.692 1330.6 175.466C1330.3 176.24 1330.69 177.107 1331.47 177.402L1332.53 174.598ZM1363.5 188L1364.87 187.393L1364.62 186.821L1364.03 186.598L1363.5 188ZM1375 214L1376.49 214.147L1376.53 213.754L1376.37 213.393L1375 214ZM1371.5 249.5L1372.25 250.796L1372.92 250.41L1372.99 249.647L1371.5 249.5ZM1336.55 268.617C1336.34 269.418 1336.82 270.239 1337.62 270.45L1350.67 273.898C1351.47 274.11 1352.29 273.632 1352.5 272.831C1352.71 272.03 1352.24 271.209 1351.44 270.998L1339.83 267.933L1342.9 256.331C1343.11 255.53 1342.63 254.709 1341.83 254.497C1341.03 254.286 1340.21 254.764 1340 255.565L1336.55 268.617ZM1333.57 178.202C1334.34 178.497 1335.21 178.108 1335.5 177.334C1335.8 176.56 1335.41 175.693 1334.63 175.398L1333.57 178.202ZM1340.93 177.798C1340.16 177.503 1339.29 177.892 1339 178.666C1338.7 179.44 1339.09 180.307 1339.87 180.602L1340.93 177.798ZM1344.07 182.202C1344.84 182.497 1345.71 182.108 1346 181.334C1346.3 180.56 1345.91 179.693 1345.13 179.398L1344.07 182.202ZM1351.43 181.798C1350.66 181.503 1349.79 181.892 1349.5 182.666C1349.2 183.44 1349.59 184.307 1350.37 184.602L1351.43 181.798ZM1354.57 186.202C1355.34 186.497 1356.21 186.108 1356.5 185.334C1356.8 184.56 1356.41 183.693 1355.63 183.398L1354.57 186.202ZM1361.93 185.798C1361.16 185.503 1360.29 185.892 1360 186.666C1359.7 187.44 1360.09 188.307 1360.87 188.602L1361.93 185.798ZM1362.89 190.34C1363.23 191.098 1364.12 191.44 1364.87 191.105C1365.63 190.77 1365.97 189.884 1365.64 189.127L1362.89 190.34ZM1367.94 194.327C1367.6 193.569 1366.72 193.226 1365.96 193.562C1365.2 193.897 1364.86 194.782 1365.19 195.54L1367.94 194.327ZM1366.73 199.007C1367.06 199.764 1367.95 200.107 1368.71 199.772C1369.46 199.437 1369.81 198.551 1369.47 197.793L1366.73 199.007ZM1371.77 202.993C1371.44 202.236 1370.55 201.893 1369.79 202.228C1369.04 202.563 1368.69 203.449 1369.03 204.207L1371.77 202.993ZM1370.56 207.673C1370.9 208.431 1371.78 208.774 1372.54 208.438C1373.3 208.103 1373.64 207.218 1373.31 206.46L1370.56 207.673ZM1375.61 211.66C1375.27 210.902 1374.38 210.56 1373.63 210.895C1372.87 211.23 1372.53 212.116 1372.86 212.873L1375.61 211.66ZM1373.33 215.628C1373.25 216.452 1373.85 217.186 1374.68 217.268C1375.5 217.349 1376.24 216.747 1376.32 215.922L1373.33 215.628ZM1375.79 221.247C1375.87 220.423 1375.27 219.689 1374.45 219.607C1373.62 219.526 1372.89 220.128 1372.81 220.953L1375.79 221.247ZM1372.46 224.503C1372.38 225.327 1372.98 226.061 1373.8 226.143C1374.63 226.224 1375.36 225.622 1375.44 224.797L1372.46 224.503ZM1374.92 230.122C1375 229.298 1374.4 228.564 1373.57 228.482C1372.75 228.401 1372.01 229.003 1371.93 229.828L1374.92 230.122ZM1371.58 233.378C1371.5 234.202 1372.1 234.936 1372.93 235.018C1373.75 235.099 1374.49 234.497 1374.57 233.672L1371.58 233.378ZM1374.04 238.997C1374.12 238.173 1373.52 237.439 1372.7 237.357C1371.87 237.276 1371.14 237.878 1371.06 238.703L1374.04 238.997ZM1370.71 242.253C1370.63 243.077 1371.23 243.811 1372.05 243.893C1372.88 243.974 1373.61 243.372 1373.69 242.547L1370.71 242.253ZM1373.17 247.872C1373.25 247.048 1372.65 246.314 1371.82 246.232C1371 246.151 1370.26 246.753 1370.18 247.578L1373.17 247.872ZM1369.07 249.179C1368.35 249.595 1368.11 250.514 1368.53 251.23C1368.95 251.946 1369.86 252.188 1370.58 251.771L1369.07 249.179ZM1365.55 254.696C1366.27 254.28 1366.51 253.361 1366.1 252.645C1365.68 251.929 1364.76 251.687 1364.05 252.104L1365.55 254.696ZM1360.7 254.054C1359.98 254.47 1359.74 255.389 1360.15 256.105C1360.57 256.821 1361.49 257.063 1362.2 256.646L1360.7 254.054ZM1357.18 259.571C1357.9 259.155 1358.14 258.236 1357.72 257.52C1357.3 256.804 1356.39 256.562 1355.67 256.979L1357.18 259.571ZM1352.32 258.929C1351.6 259.345 1351.36 260.264 1351.78 260.98C1352.2 261.696 1353.11 261.938 1353.83 261.521L1352.32 258.929ZM1348.8 264.446C1349.52 264.03 1349.76 263.111 1349.35 262.395C1348.93 261.679 1348.01 261.437 1347.3 261.854L1348.8 264.446ZM1343.95 263.804C1343.23 264.22 1342.99 265.139 1343.4 265.855C1343.82 266.571 1344.74 266.813 1345.45 266.396L1343.95 263.804ZM1340.43 269.321C1341.15 268.905 1341.39 267.986 1340.97 267.27C1340.55 266.554 1339.64 266.312 1338.92 266.729L1340.43 269.321ZM1331.47 177.402L1333.57 178.202L1334.63 175.398L1332.53 174.598L1331.47 177.402ZM1339.87 180.602L1344.07 182.202L1345.13 179.398L1340.93 177.798L1339.87 180.602ZM1350.37 184.602L1354.57 186.202L1355.63 183.398L1351.43 181.798L1350.37 184.602ZM1360.87 188.602L1362.97 189.402L1364.03 186.598L1361.93 185.798L1360.87 188.602ZM1362.13 188.607L1362.89 190.34L1365.64 189.127L1364.87 187.393L1362.13 188.607ZM1365.19 195.54L1366.73 199.007L1369.47 197.793L1367.94 194.327L1365.19 195.54ZM1369.03 204.207L1370.56 207.673L1373.31 206.46L1371.77 202.993L1369.03 204.207ZM1372.86 212.873L1373.63 214.607L1376.37 213.393L1375.61 211.66L1372.86 212.873ZM1373.51 213.853L1373.33 215.628L1376.32 215.922L1376.49 214.147L1373.51 213.853ZM1372.81 220.953L1372.46 224.503L1375.44 224.797L1375.79 221.247L1372.81 220.953ZM1371.93 229.828L1371.58 233.378L1374.57 233.672L1374.92 230.122L1371.93 229.828ZM1371.06 238.703L1370.71 242.253L1373.69 242.547L1374.04 238.997L1371.06 238.703ZM1370.18 247.578L1370.01 249.353L1372.99 249.647L1373.17 247.872L1370.18 247.578ZM1370.75 248.204L1369.07 249.179L1370.58 251.771L1372.25 250.796L1370.75 248.204ZM1364.05 252.104L1360.7 254.054L1362.2 256.646L1365.55 254.696L1364.05 252.104ZM1355.67 256.979L1352.32 258.929L1353.83 261.521L1357.18 259.571L1355.67 256.979ZM1347.3 261.854L1343.95 263.804L1345.45 266.396L1348.8 264.446L1347.3 261.854ZM1338.92 266.729L1337.25 267.704L1338.75 270.296L1340.43 269.321L1338.92 266.729Z" fill="#FE4D00"/>
<path d="M243.466 271.598C244.24 271.303 245.107 271.692 245.402 272.466C245.697 273.24 245.308 274.107 244.534 274.402L243.466 271.598ZM212.5 285L211.128 284.393L211.381 283.821L211.966 283.598L212.5 285ZM201 311L199.507 311.147L199.469 310.754L199.628 310.393L201 311ZM204.5 346.5L203.731 347.788L203.081 347.4L203.007 346.647L204.5 346.5ZM235.5 365L235.5 366.5L235.086 366.5L234.731 366.288L235.5 365ZM282.061 363.939C282.646 364.525 282.646 365.475 282.061 366.061L272.515 375.607C271.929 376.192 270.979 376.192 270.393 375.607C269.808 375.021 269.808 374.071 270.393 373.485L278.879 365L270.393 356.515C269.808 355.929 269.808 354.979 270.393 354.393C270.979 353.808 271.929 353.808 272.515 354.393L282.061 363.939ZM242.434 275.202C241.66 275.497 240.793 275.108 240.498 274.334C240.203 273.56 240.592 272.693 241.366 272.398L242.434 275.202ZM235.066 274.798C235.84 274.503 236.707 274.892 237.002 275.666C237.297 276.44 236.908 277.307 236.134 277.602L235.066 274.798ZM231.934 279.202C231.16 279.497 230.293 279.108 229.998 278.334C229.703 277.56 230.092 276.693 230.866 276.398L231.934 279.202ZM224.566 278.798C225.34 278.503 226.207 278.892 226.502 279.666C226.797 280.44 226.408 281.307 225.634 281.602L224.566 278.798ZM221.434 283.202C220.66 283.497 219.793 283.108 219.498 282.334C219.203 281.56 219.592 280.693 220.366 280.398L221.434 283.202ZM214.066 282.798C214.84 282.503 215.707 282.892 216.002 283.666C216.297 284.44 215.908 285.307 215.134 285.602L214.066 282.798ZM213.105 287.34C212.77 288.098 211.884 288.44 211.127 288.105C210.369 287.77 210.026 286.884 210.362 286.127L213.105 287.34ZM208.062 291.327C208.397 290.569 209.282 290.226 210.04 290.562C210.798 290.897 211.14 291.782 210.805 292.54L208.062 291.327ZM209.272 296.007C208.937 296.764 208.051 297.107 207.293 296.772C206.536 296.437 206.193 295.551 206.528 294.793L209.272 296.007ZM204.228 299.993C204.563 299.236 205.449 298.893 206.207 299.228C206.964 299.563 207.307 300.449 206.972 301.207L204.228 299.993ZM205.438 304.673C205.103 305.431 204.218 305.774 203.46 305.438C202.702 305.103 202.36 304.218 202.695 303.46L205.438 304.673ZM200.395 308.66C200.73 307.902 201.616 307.56 202.373 307.895C203.131 308.23 203.474 309.116 203.138 309.873L200.395 308.66ZM202.668 312.628C202.749 313.452 202.147 314.186 201.322 314.268C200.498 314.349 199.764 313.747 199.682 312.922L202.668 312.628ZM200.207 318.247C200.126 317.423 200.728 316.689 201.553 316.607C202.377 316.526 203.111 317.128 203.193 317.953L200.207 318.247ZM203.543 321.503C203.624 322.327 203.022 323.061 202.197 323.143C201.373 323.224 200.639 322.622 200.557 321.797L203.543 321.503ZM201.082 327.122C201.001 326.298 201.603 325.564 202.428 325.482C203.252 325.401 203.986 326.003 204.068 326.828L201.082 327.122ZM204.418 330.378C204.499 331.202 203.897 331.936 203.072 332.018C202.248 332.099 201.514 331.497 201.432 330.672L204.418 330.378ZM201.957 335.997C201.876 335.173 202.478 334.439 203.303 334.357C204.127 334.276 204.861 334.878 204.943 335.703L201.957 335.997ZM205.293 339.253C205.374 340.077 204.772 340.811 203.947 340.893C203.123 340.974 202.389 340.372 202.307 339.547L205.293 339.253ZM202.832 344.872C202.751 344.048 203.353 343.314 204.178 343.232C205.002 343.151 205.736 343.753 205.818 344.578L202.832 344.872ZM206.819 346.137C207.53 346.561 207.763 347.482 207.338 348.194C206.914 348.905 205.993 349.138 205.281 348.713L206.819 346.137ZM209.931 351.488C209.22 351.064 208.987 350.143 209.412 349.431C209.836 348.72 210.757 348.487 211.469 348.912L209.931 351.488ZM214.569 350.762C215.28 351.186 215.513 352.107 215.088 352.819C214.664 353.53 213.743 353.763 213.031 353.338L214.569 350.762ZM217.681 356.113C216.97 355.689 216.737 354.768 217.162 354.056C217.586 353.345 218.507 353.112 219.219 353.537L217.681 356.113ZM222.319 355.387C223.03 355.811 223.263 356.732 222.838 357.444C222.414 358.155 221.493 358.388 220.781 357.963L222.319 355.387ZM225.431 360.738C224.72 360.314 224.487 359.393 224.912 358.681C225.336 357.97 226.257 357.737 226.969 358.162L225.431 360.738ZM230.069 360.012C230.78 360.436 231.013 361.357 230.588 362.069C230.164 362.78 229.243 363.013 228.531 362.588L230.069 360.012ZM233.181 365.363C232.47 364.939 232.237 364.018 232.662 363.306C233.086 362.595 234.007 362.362 234.719 362.787L233.181 365.363ZM237.32 363.5C238.148 363.5 238.82 364.172 238.82 365C238.82 365.828 238.148 366.5 237.32 366.5L237.32 363.5ZM242.78 366.5C241.952 366.5 241.28 365.828 241.28 365C241.28 364.172 241.952 363.5 242.78 363.5L242.78 366.5ZM246.42 363.5C247.248 363.5 247.92 364.172 247.92 365C247.92 365.828 247.248 366.5 246.42 366.5L246.42 363.5ZM251.88 366.5C251.052 366.5 250.38 365.828 250.38 365C250.38 364.172 251.052 363.5 251.88 363.5L251.88 366.5ZM255.52 363.5C256.348 363.5 257.02 364.172 257.02 365C257.02 365.828 256.348 366.5 255.52 366.5L255.52 363.5ZM260.98 366.5C260.152 366.5 259.48 365.828 259.48 365C259.48 364.172 260.152 363.5 260.98 363.5L260.98 366.5ZM264.62 363.5C265.448 363.5 266.12 364.172 266.12 365C266.12 365.828 265.448 366.5 264.62 366.5L264.62 363.5ZM270.08 366.5C269.252 366.5 268.58 365.828 268.58 365C268.58 364.172 269.252 363.5 270.08 363.5L270.08 366.5ZM273.72 363.5C274.548 363.5 275.22 364.172 275.22 365C275.22 365.828 274.548 366.5 273.72 366.5L273.72 363.5ZM279.18 366.5C278.352 366.5 277.68 365.828 277.68 365C277.68 364.172 278.352 363.5 279.18 363.5L279.18 366.5ZM244.534 274.402L242.434 275.202L241.366 272.398L243.466 271.598L244.534 274.402ZM236.134 277.602L231.934 279.202L230.866 276.398L235.066 274.798L236.134 277.602ZM225.634 281.602L221.434 283.202L220.366 280.398L224.566 278.798L225.634 281.602ZM215.134 285.602L213.034 286.402L211.966 283.598L214.066 282.798L215.134 285.602ZM213.872 285.607L213.105 287.34L210.362 286.127L211.128 284.393L213.872 285.607ZM210.805 292.54L209.272 296.007L206.528 294.793L208.062 291.327L210.805 292.54ZM206.972 301.207L205.438 304.673L202.695 303.46L204.228 299.993L206.972 301.207ZM203.138 309.873L202.372 311.607L199.628 310.393L200.395 308.66L203.138 309.873ZM202.493 310.853L202.668 312.628L199.682 312.922L199.507 311.147L202.493 310.853ZM203.193 317.953L203.543 321.503L200.557 321.797L200.207 318.247L203.193 317.953ZM204.068 326.828L204.418 330.378L201.432 330.672L201.082 327.122L204.068 326.828ZM204.943 335.703L205.293 339.253L202.307 339.547L201.957 335.997L204.943 335.703ZM205.818 344.578L205.993 346.353L203.007 346.647L202.832 344.872L205.818 344.578ZM205.269 345.212L206.819 346.137L205.281 348.713L203.731 347.788L205.269 345.212ZM211.469 348.912L214.569 350.762L213.031 353.338L209.931 351.488L211.469 348.912ZM219.219 353.537L222.319 355.387L220.781 357.963L217.681 356.113L219.219 353.537ZM226.969 358.162L230.069 360.012L228.531 362.588L225.431 360.738L226.969 358.162ZM234.719 362.787L236.269 363.712L234.731 366.288L233.181 365.363L234.719 362.787ZM235.5 363.5L237.32 363.5L237.32 366.5L235.5 366.5L235.5 363.5ZM242.78 363.5L246.42 363.5L246.42 366.5L242.78 366.5L242.78 363.5ZM251.88 363.5L255.52 363.5L255.52 366.5L251.88 366.5L251.88 363.5ZM260.98 363.5L264.62 363.5L264.62 366.5L260.98 366.5L260.98 363.5ZM270.08 363.5L273.72 363.5L273.72 366.5L270.08 366.5L270.08 363.5ZM279.18 363.5L281 363.5L281 366.5L279.18 366.5L279.18 363.5ZM243.466 271.598C244.24 271.303 245.107 271.692 245.402 272.466C245.697 273.24 245.308 274.107 244.534 274.402L243.466 271.598ZM212.5 285L211.128 284.393L211.381 283.821L211.966 283.598L212.5 285ZM201 311L199.507 311.147L199.469 310.754L199.628 310.393L201 311ZM204.5 346.5L203.731 347.788L203.081 347.4L203.007 346.647L204.5 346.5ZM235.5 365L235.5 366.5L235.086 366.5L234.731 366.288L235.5 365ZM282.061 363.939C282.646 364.525 282.646 365.475 282.061 366.061L272.515 375.607C271.929 376.192 270.979 376.192 270.393 375.607C269.808 375.021 269.808 374.071 270.393 373.485L278.879 365L270.393 356.515C269.808 355.929 269.808 354.979 270.393 354.393C270.979 353.808 271.929 353.808 272.515 354.393L282.061 363.939ZM242.434 275.202C241.66 275.497 240.793 275.108 240.498 274.334C240.203 273.56 240.592 272.693 241.366 272.398L242.434 275.202ZM235.066 274.798C235.84 274.503 236.707 274.892 237.002 275.666C237.297 276.44 236.908 277.307 236.134 277.602L235.066 274.798ZM231.934 279.202C231.16 279.497 230.293 279.108 229.998 278.334C229.703 277.56 230.092 276.693 230.866 276.398L231.934 279.202ZM224.566 278.798C225.34 278.503 226.207 278.892 226.502 279.666C226.797 280.44 226.408 281.307 225.634 281.602L224.566 278.798ZM221.434 283.202C220.66 283.497 219.793 283.108 219.498 282.334C219.203 281.56 219.592 280.693 220.366 280.398L221.434 283.202ZM214.066 282.798C214.84 282.503 215.707 282.892 216.002 283.666C216.297 284.44 215.908 285.307 215.134 285.602L214.066 282.798ZM213.105 287.34C212.77 288.098 211.884 288.44 211.127 288.105C210.369 287.77 210.026 286.884 210.362 286.127L213.105 287.34ZM208.062 291.327C208.397 290.569 209.282 290.226 210.04 290.562C210.798 290.897 211.14 291.782 210.805 292.54L208.062 291.327ZM209.272 296.007C208.937 296.764 208.051 297.107 207.293 296.772C206.536 296.437 206.193 295.551 206.528 294.793L209.272 296.007ZM204.228 299.993C204.563 299.236 205.449 298.893 206.207 299.228C206.964 299.563 207.307 300.449 206.972 301.207L204.228 299.993ZM205.438 304.673C205.103 305.431 204.218 305.774 203.46 305.438C202.702 305.103 202.36 304.218 202.695 303.46L205.438 304.673ZM200.395 308.66C200.73 307.902 201.616 307.56 202.373 307.895C203.131 308.23 203.474 309.116 203.138 309.873L200.395 308.66ZM202.668 312.628C202.749 313.452 202.147 314.186 201.322 314.268C200.498 314.349 199.764 313.747 199.682 312.922L202.668 312.628ZM200.207 318.247C200.126 317.423 200.728 316.689 201.553 316.607C202.377 316.526 203.111 317.128 203.193 317.953L200.207 318.247ZM203.543 321.503C203.624 322.327 203.022 323.061 202.197 323.143C201.373 323.224 200.639 322.622 200.557 321.797L203.543 321.503ZM201.082 327.122C201.001 326.298 201.603 325.564 202.428 325.482C203.252 325.401 203.986 326.003 204.068 326.828L201.082 327.122ZM204.418 330.378C204.499 331.202 203.897 331.936 203.072 332.018C202.248 332.099 201.514 331.497 201.432 330.672L204.418 330.378ZM201.957 335.997C201.876 335.173 202.478 334.439 203.303 334.357C204.127 334.276 204.861 334.878 204.943 335.703L201.957 335.997ZM205.293 339.253C205.374 340.077 204.772 340.811 203.947 340.893C203.123 340.974 202.389 340.372 202.307 339.547L205.293 339.253ZM202.832 344.872C202.751 344.048 203.353 343.314 204.178 343.232C205.002 343.151 205.736 343.753 205.818 344.578L202.832 344.872ZM206.819 346.137C207.53 346.561 207.763 347.482 207.338 348.194C206.914 348.905 205.993 349.138 205.281 348.713L206.819 346.137ZM209.931 351.488C209.22 351.064 208.987 350.143 209.412 349.431C209.836 348.72 210.757 348.487 211.469 348.912L209.931 351.488ZM214.569 350.762C215.28 351.186 215.513 352.107 215.088 352.819C214.664 353.53 213.743 353.763 213.031 353.338L214.569 350.762ZM217.681 356.113C216.97 355.689 216.737 354.768 217.162 354.056C217.586 353.345 218.507 353.112 219.219 353.537L217.681 356.113ZM222.319 355.387C223.03 355.811 223.263 356.732 222.838 357.444C222.414 358.155 221.493 358.388 220.781 357.963L222.319 355.387ZM225.431 360.738C224.72 360.314 224.487 359.393 224.912 358.681C225.336 357.97 226.257 357.737 226.969 358.162L225.431 360.738ZM230.069 360.012C230.78 360.436 231.013 361.357 230.588 362.069C230.164 362.78 229.243 363.013 228.531 362.588L230.069 360.012ZM233.181 365.363C232.47 364.939 232.237 364.018 232.662 363.306C233.086 362.595 234.007 362.362 234.719 362.787L233.181 365.363ZM237.32 363.5C238.148 363.5 238.82 364.172 238.82 365C238.82 365.828 238.148 366.5 237.32 366.5L237.32 363.5ZM242.78 366.5C241.952 366.5 241.28 365.828 241.28 365C241.28 364.172 241.952 363.5 242.78 363.5L242.78 366.5ZM246.42 363.5C247.248 363.5 247.92 364.172 247.92 365C247.92 365.828 247.248 366.5 246.42 366.5L246.42 363.5ZM251.88 366.5C251.052 366.5 250.38 365.828 250.38 365C250.38 364.172 251.052 363.5 251.88 363.5L251.88 366.5ZM255.52 363.5C256.348 363.5 257.02 364.172 257.02 365C257.02 365.828 256.348 366.5 255.52 366.5L255.52 363.5ZM260.98 366.5C260.152 366.5 259.48 365.828 259.48 365C259.48 364.172 260.152 363.5 260.98 363.5L260.98 366.5ZM264.62 363.5C265.448 363.5 266.12 364.172 266.12 365C266.12 365.828 265.448 366.5 264.62 366.5L264.62 363.5ZM270.08 366.5C269.252 366.5 268.58 365.828 268.58 365C268.58 364.172 269.252 363.5 270.08 363.5L270.08 366.5ZM273.72 363.5C274.548 363.5 275.22 364.172 275.22 365C275.22 365.828 274.548 366.5 273.72 366.5L273.72 363.5ZM279.18 366.5C278.352 366.5 277.68 365.828 277.68 365C277.68 364.172 278.352 363.5 279.18 363.5L279.18 366.5ZM244.534 274.402L242.434 275.202L241.366 272.398L243.466 271.598L244.534 274.402ZM236.134 277.602L231.934 279.202L230.866 276.398L235.066 274.798L236.134 277.602ZM225.634 281.602L221.434 283.202L220.366 280.398L224.566 278.798L225.634 281.602ZM215.134 285.602L213.034 286.402L211.966 283.598L214.066 282.798L215.134 285.602ZM213.872 285.607L213.105 287.34L210.362 286.127L211.128 284.393L213.872 285.607ZM210.805 292.54L209.272 296.007L206.528 294.793L208.062 291.327L210.805 292.54ZM206.972 301.207L205.438 304.673L202.695 303.46L204.228 299.993L206.972 301.207ZM203.138 309.873L202.372 311.607L199.628 310.393L200.395 308.66L203.138 309.873ZM202.493 310.853L202.668 312.628L199.682 312.922L199.507 311.147L202.493 310.853ZM203.193 317.953L203.543 321.503L200.557 321.797L200.207 318.247L203.193 317.953ZM204.068 326.828L204.418 330.378L201.432 330.672L201.082 327.122L204.068 326.828ZM204.943 335.703L205.293 339.253L202.307 339.547L201.957 335.997L204.943 335.703ZM205.818 344.578L205.993 346.353L203.007 346.647L202.832 344.872L205.818 344.578ZM205.269 345.212L206.819 346.137L205.281 348.713L203.731 347.788L205.269 345.212ZM211.469 348.912L214.569 350.762L213.031 353.338L209.931 351.488L211.469 348.912ZM219.219 353.537L222.319 355.387L220.781 357.963L217.681 356.113L219.219 353.537ZM226.969 358.162L230.069 360.012L228.531 362.588L225.431 360.738L226.969 358.162ZM234.719 362.787L236.269 363.712L234.731 366.288L233.181 365.363L234.719 362.787ZM235.5 363.5L237.32 363.5L237.32 366.5L235.5 366.5L235.5 363.5ZM242.78 363.5L246.42 363.5L246.42 366.5L242.78 366.5L242.78 363.5ZM251.88 363.5L255.52 363.5L255.52 366.5L251.88 366.5L251.88 363.5ZM260.98 363.5L264.62 363.5L264.62 366.5L260.98 366.5L260.98 363.5ZM270.08 363.5L273.72 363.5L273.72 366.5L270.08 366.5L270.08 363.5ZM279.18 363.5L281 363.5L281 366.5L279.18 366.5L279.18 363.5Z" fill="#FE4D00"/>
</svg>
