<svg width="1440" height="773" viewBox="0 0 1440 773" fill="none" xmlns="http://www.w3.org/2000/svg">
<line y1="517.5" x2="58" y2="517.5" stroke="black"/>
<path fill-rule="evenodd" clip-rule="evenodd" d="M1181 124V0H1155V124H896V150H1046V394H1155V544H1181V394H1290V150H1440V124H1181Z" fill="black" fill-opacity="0.1"/>
<path d="M1444.07 477C1445.25 486.309 1445.37 496.748 1444.07 507.805V773H-5V622.502C22.2605 654.347 145.785 706.605 421.798 660.876C766.814 603.714 775.759 632.895 1123.33 660.876C1364.73 680.31 1435.47 580.633 1444.07 507.805V477Z" fill="black"/>
<line x1="976.5" y1="477" x2="976.5" y2="544" stroke="black"/>
<line x1="977" y1="544.5" x2="908" y2="544.5" stroke="black"/>
<line x1="672" y1="493.5" x2="492" y2="493.5" stroke="black"/>
<line x1="1008" y1="327.5" x2="817" y2="327.5" stroke="black"/>
<line x1="1440" y1="304.5" x2="1368" y2="304.5" stroke="black"/>
<line x1="492.5" y1="494" x2="492.5" y2="549" stroke="black"/>
<line x1="817.5" y1="328" x2="817.5" y2="383" stroke="black"/>
<line x1="1368.5" y1="305" x2="1368.5" y2="360" stroke="black"/>
<line x1="493" y1="549.5" x2="295" y2="549.5" stroke="black"/>
<line x1="818" y1="383.5" x2="620" y2="383.5" stroke="black"/>
<line x1="1369" y1="360.5" x2="1171" y2="360.5" stroke="black"/>
<line x1="174.5" y1="443" x2="174.5" y2="372" stroke="black"/>
<line x1="174" y1="372.5" x2="383" y2="372.5" stroke="black"/>
<line x1="162.5" y1="273" x2="162.5" y2="308" stroke="black"/>
<line x1="162" y1="307.5" x2="343" y2="307.5" stroke="black"/>
<line x1="343.5" y1="308" x2="343.5" y2="187" stroke="black"/>
<line x1="343" y1="186.5" x2="676" y2="186.5" stroke="black"/>
<line x1="912" y1="167.5" x2="998" y2="167.5" stroke="black"/>
<line x1="997.5" y1="167" x2="997.5" y2="231" stroke="black"/>
<line x1="997" y1="230.5" x2="1440" y2="230.5" stroke="black"/>
<line x1="1440" y1="477.5" x2="976" y2="477.5" stroke="black"/>
<circle cx="162" cy="279" r="6" fill="#D9D9D9"/>
<circle cx="175" cy="436" r="6" fill="#D9D9D9"/>
<circle cx="456" cy="187" r="6" fill="#D9D9D9"/>
<circle cx="377" cy="373" r="6" fill="#D9D9D9"/>
<circle cx="997" cy="187" r="6" fill="#D9D9D9"/>
<circle cx="1002" cy="327" r="6" fill="#D9D9D9"/>
<circle cx="719" cy="383" r="6" fill="#D9D9D9"/>
<circle cx="377" cy="549" r="6" fill="#D9D9D9"/>
<circle cx="576" cy="493" r="6" fill="#D9D9D9"/>
<circle cx="914" cy="544" r="6" fill="#D9D9D9"/>
<circle cx="1289" cy="477" r="6" fill="#D9D9D9"/>
<circle cx="1368" cy="361" r="6" fill="#D9D9D9"/>
<circle cx="52" cy="518" r="6" fill="#D9D9D9"/>
</svg>
