<svg width="48" height="48" viewBox="0 0 48 48" fill="none" xmlns="http://www.w3.org/2000/svg">
<g clip-path="url(#clip0_0_1790)">
<path d="M27.2202 24.4861C27.2081 25.1197 27.0082 25.7354 26.6458 26.2552C26.2834 26.775 25.7748 27.1755 25.1845 27.406C24.5942 27.6364 23.9488 27.6864 23.3301 27.5497C22.7113 27.4129 22.1471 27.0955 21.709 26.6377C21.2708 26.1798 20.9785 25.6023 20.869 24.9781C20.7594 24.354 20.8377 23.7113 21.0938 23.1317C21.3499 22.5521 21.7724 22.0616 22.3076 21.7223C22.8428 21.3831 23.4667 21.2104 24.1002 21.2261C24.942 21.2573 25.7386 21.6151 26.321 22.2236C26.9035 22.8322 27.226 23.6437 27.2202 24.4861Z" fill="#D9D9D9"/>
<path d="M29.5259 14.4661H18.6759C17.6023 14.4661 16.5727 14.8925 15.8136 15.6517C15.0544 16.4108 14.6279 17.4405 14.6279 18.5141V29.6081C14.6279 30.1397 14.7326 30.666 14.9361 31.1572C15.1395 31.6483 15.4377 32.0945 15.8136 32.4704C16.1895 32.8463 16.6357 33.1445 17.1268 33.3479C17.618 33.5514 18.1443 33.6561 18.6759 33.6561H29.5259C30.0575 33.6561 30.5839 33.5514 31.075 33.3479C31.5662 33.1445 32.0124 32.8463 32.3883 32.4704C32.7642 32.0945 33.0624 31.6483 33.2658 31.1572C33.4692 30.666 33.5739 30.1397 33.5739 29.6081V18.5341C33.576 18.0009 33.4729 17.4726 33.2705 16.9794C33.068 16.4862 32.7703 16.0378 32.3942 15.6599C32.0182 15.282 31.5712 14.982 31.079 14.7772C30.5868 14.5723 30.0591 14.4666 29.5259 14.4661ZM24.0999 29.9121C23.0259 29.9363 21.9689 29.64 21.064 29.0609C20.1591 28.4818 19.4472 27.6462 19.0193 26.6608C18.5914 25.6754 18.4668 24.5848 18.6614 23.5282C18.856 22.4716 19.361 21.497 20.1119 20.7287C20.8629 19.9604 21.8257 19.4333 22.8776 19.2146C23.9294 18.9959 25.0226 19.0956 26.0175 19.501C27.0125 19.9063 27.8641 20.5989 28.4637 21.4904C29.0633 22.3818 29.3837 23.4317 29.3839 24.5061C29.3926 25.2082 29.2628 25.9051 29.0019 26.557C28.7409 27.2088 28.3539 27.8028 27.8631 28.305C27.3723 28.8071 26.7873 29.2075 26.1416 29.4833C25.4958 29.759 24.8021 29.9048 24.0999 29.9121ZM29.9719 19.1021C29.84 19.1021 29.7093 19.0758 29.5876 19.0247C29.466 18.9736 29.3557 18.8987 29.2633 18.8045C29.1709 18.7102 29.0983 18.5985 29.0496 18.4758C29.001 18.3532 28.9773 18.222 28.9799 18.0901C28.9799 17.8217 29.0865 17.5643 29.2763 17.3745C29.4661 17.1847 29.7235 17.0781 29.9919 17.0781C30.2603 17.0781 30.5177 17.1847 30.7075 17.3745C30.8973 17.5643 31.0039 17.8217 31.0039 18.0901C31.0079 18.2329 30.981 18.375 30.9249 18.5065C30.8689 18.638 30.7851 18.7558 30.6793 18.8519C30.5735 18.948 30.4482 19.0201 30.312 19.0633C30.1757 19.1065 30.0318 19.1197 29.8899 19.1021H29.9719Z" fill="#D9D9D9"/>
<path d="M24.12 0.000300414C17.7549 -0.0315252 11.6378 2.46648 7.1145 6.9448C2.59118 11.4231 0.032126 17.5149 0.000300414 23.88C-0.0315252 30.2451 2.46648 36.3622 6.9448 40.8855C11.4231 45.4088 17.5149 47.9679 23.88 47.9997C27.0317 48.0155 30.1556 47.4103 33.0734 46.2188C35.9912 45.0272 38.6458 43.2726 40.8855 41.0552C43.1252 38.8378 44.9063 36.2009 46.1269 33.2952C47.3476 30.3894 47.9839 27.2717 47.9997 24.12C48.0155 20.9683 47.4103 17.8444 46.2188 14.9266C45.0272 12.0088 43.2726 9.35422 41.0552 7.1145C38.8378 4.87478 36.2009 3.09375 33.2952 1.87309C30.3894 0.652433 27.2717 0.0160588 24.12 0.000300414ZM38.695 30.4847C38.7017 31.5614 38.4946 32.6287 38.0857 33.6248C37.6768 34.6209 37.0743 35.5259 36.3131 36.2874C35.5518 37.0488 34.647 37.6516 33.651 38.0608C32.6551 38.47 31.5878 38.6774 30.5111 38.671H17.7337C16.657 38.6777 15.5896 38.4706 14.5936 38.0617C13.5975 37.6528 12.6925 37.0503 11.931 36.2891C11.1696 35.5278 10.5668 34.623 10.1576 33.627C9.74842 32.6311 9.54101 31.5638 9.54738 30.4871V17.7073C9.54069 16.6306 9.74779 15.5632 10.1567 14.5672C10.5656 13.5711 11.1681 12.6661 11.9293 11.9046C12.6906 11.1432 13.5954 10.5404 14.5914 10.1312C15.5873 9.72202 16.6546 9.51461 17.7313 9.52098H30.5111C31.5876 9.51461 32.6547 9.72195 33.6505 10.131C34.6463 10.54 35.551 11.1426 36.3122 11.9038C37.0734 12.665 37.676 13.5697 38.085 14.5655C38.494 15.5613 38.7014 16.6284 38.695 17.7049V30.4847Z" fill="#D9D9D9"/>
</g>
<defs>
<clipPath id="clip0_0_1790">
<rect width="48" height="48" fill="white"/>
</clipPath>
</defs>
</svg>
